<?xml version="1.0" encoding="UTF-8" standalone="no"?>
<!-- Created with Inkscape (http://www.inkscape.org/) -->

<svg
   version="1.1"
   id="svg1075"
   width="2133.3333"
   height="506.66666"
   viewBox="0 0 2133.3333 506.66666"
   sodipodi:docname="pupil-mask.svg"
   inkscape:version="1.2.2 (b0a8486541, 2022-12-01)"
   xmlns:inkscape="http://www.inkscape.org/namespaces/inkscape"
   xmlns:sodipodi="http://sodipodi.sourceforge.net/DTD/sodipodi-0.dtd"
   xmlns="http://www.w3.org/2000/svg"
   xmlns:svg="http://www.w3.org/2000/svg">
  <defs
     id="defs1079" />
  <sodipodi:namedview
     id="namedview1077"
     pagecolor="#ffffff"
     bordercolor="#000000"
     borderopacity="0.25"
     inkscape:showpageshadow="2"
     inkscape:pageopacity="0.0"
     inkscape:pagecheckerboard="0"
     inkscape:deskcolor="#d1d1d1"
     showgrid="false"
     inkscape:zoom="0.5"
     inkscape:cx="1239"
     inkscape:cy="13"
     inkscape:window-width="2456"
     inkscape:window-height="1296"
     inkscape:window-x="528"
     inkscape:window-y="715"
     inkscape:window-maximized="0"
     inkscape:current-layer="svg1075" />
  <path
     style="display:inline;fill:#000000;fill-opacity:1;stroke-width:1.14017"
     d="m 1852.6666,400.3476 c -46.2372,-3.18021 -80.3298,-12.1438 -115.9965,-30.49758 -14.3847,-7.40228 -39.3263,-25.83494 -50.3017,-37.17469 -18.0874,-18.68772 -31.7003,-42.54407 -37.2638,-65.30394 -3.8101,-15.58699 -3.8101,-39.05512 0,-54.64212 5.5635,-22.75986 19.1764,-46.6162 37.2638,-65.30394 10.9754,-11.33975 35.917,-29.77239 50.3017,-37.17468 23.8723,-12.284467 47.0779,-20.274069 73.3299,-25.247186 21.2941,-4.033907 33.5037,-5.158638 56,-5.158638 22.4962,0 34.7058,1.124731 56,5.158638 38.3876,7.272067 70.3808,20.782736 99.3298,41.946876 18.218,13.31885 30.3594,25.50149 41.2971,41.4375 16.0863,23.43744 23.0144,45.01019 23.0144,71.6625 0,26.65229 -6.9281,48.22504 -23.0144,71.6625 -10.9377,15.936 -23.0791,28.11864 -41.2971,41.43749 -33.9352,24.80938 -74.0885,39.88551 -120.6632,45.30461 -12.6572,1.47269 -39.0025,2.5115 -48,1.89266 z"
     id="path6572" />
  <path
     style="display:inline;fill:#000000;fill-opacity:1;stroke-width:0.963786"
     d="m 1319.3333,354.62663 c -46.2371,-2.27235 -80.3299,-8.67711 -115.9965,-21.79143 -14.3847,-5.28916 -39.3263,-18.45984 -50.3018,-26.56243 -18.0873,-13.35294 -31.7003,-30.39901 -37.2637,-46.66162 -3.8101,-11.13737 -3.8101,-27.90606 0,-39.04343 5.5634,-16.2626 19.1764,-33.30867 37.2637,-46.66162 10.9755,-8.10258 35.9171,-21.27327 50.3018,-26.56242 23.8722,-8.77762 47.0778,-14.48643 73.3298,-18.03987 21.2942,-2.88234 33.5038,-3.68601 56,-3.68601 22.4963,0 34.7059,0.80367 56,3.68601 38.3876,5.1961 70.3808,14.84989 99.3299,29.97229 18.218,9.51672 30.3593,18.22158 41.2971,29.60834 16.0862,16.74675 23.0144,32.16113 23.0144,51.205 0,19.04386 -6.9282,34.45824 -23.0144,51.205 -10.9378,11.38675 -23.0791,20.09162 -41.2971,29.60833 -33.9352,17.72705 -74.0885,28.49939 -120.6632,32.37149 -12.6572,1.05229 -39.0025,1.79455 -48,1.35237 z"
     id="path6570" />
  <path
     style="display:inline;fill:#000000;fill-opacity:1;stroke-width:1.33333"
     d="M 252.66666,459.20993 C 206.4295,454.86093 172.33678,442.60302 136.67017,417.50383 122.28542,407.38106 97.343849,382.17401 86.368392,366.66666 68.281006,341.1108 54.668084,308.48673 49.104617,277.36213 c -3.810116,-21.31555 -3.810116,-53.40872 0,-74.72427 5.563467,-31.1246 19.176389,-63.74866 37.263775,-89.30453 C 97.343849,97.825983 122.28542,72.618934 136.67017,62.496155 160.54238,45.696882 183.748,34.77093 210,27.970086 c 21.29412,-5.516454 33.50372,-7.054548 56,-7.054548 22.49628,0 34.70588,1.538094 55.99999,7.054548 38.38767,9.944706 70.38082,28.420835 99.32983,57.363246 18.21799,18.213818 30.35932,34.873838 41.29705,56.666668 16.08635,32.05121 23.01446,61.55241 23.01446,98 0,36.44758 -6.92811,65.94878 -23.01446,98 -10.93773,21.79282 -23.07906,38.45285 -41.29705,56.66666 -33.93511,33.92736 -74.08848,54.54428 -120.66316,61.95501 -12.65716,2.01395 -39.00256,3.43454 -48,2.58826 z"
     id="path11753" />
  <g
     inkscape:groupmode="layer"
     inkscape:label="Image"
     id="g1081" />
</svg>
