<?xml version="1.0" encoding="UTF-8" standalone="no"?>
<!-- Created with Inkscape (http://www.inkscape.org/) -->

<svg
   version="1.1"
   id="svg1075"
   width="2133.3333"
   height="506.66666"
   viewBox="0 0 2133.3333 506.66666"
   sodipodi:docname="tango-eye-overlay.svg"
   inkscape:version="1.2.2 (b0a8486541, 2022-12-01)"
   xmlns:inkscape="http://www.inkscape.org/namespaces/inkscape"
   xmlns:sodipodi="http://sodipodi.sourceforge.net/DTD/sodipodi-0.dtd"
   xmlns:xlink="http://www.w3.org/1999/xlink"
   xmlns="http://www.w3.org/2000/svg"
   xmlns:svg="http://www.w3.org/2000/svg">
  <defs
     id="defs1079">
    <linearGradient
       inkscape:collect="always"
       id="linearGradient12061">
      <stop
         style="stop-color:#ffffff;stop-opacity:0;"
         offset="0.85020298"
         id="stop12057" />
      <stop
         style="stop-color:#ffffff;stop-opacity:0.5;"
         offset="0.94531345"
         id="stop12059" />
    </linearGradient>
    <linearGradient
       inkscape:collect="always"
       id="linearGradient10034">
      <stop
         style="stop-color:#ffffff;stop-opacity:0;"
         offset="0.59983397"
         id="stop10030" />
      <stop
         style="stop-color:#000000;stop-opacity:0.64999998;"
         offset="1"
         id="stop10032" />
    </linearGradient>
    <linearGradient
       inkscape:collect="always"
       id="shadow">
      <stop
         style="stop-color:#8a8a8a;stop-opacity:1;"
         offset="0.84917057"
         id="stop3303" />
      <stop
         style="stop-color:#8a8a8a;stop-opacity:0;"
         offset="1"
         id="stop3305" />
    </linearGradient>
    <radialGradient
       inkscape:collect="always"
       xlink:href="#shadow"
       id="radialGradient3277"
       cx="266.66666"
       cy="256.37967"
       fx="266.66666"
       fy="256.37967"
       r="233.15514"
       gradientTransform="matrix(1,0,0,1.0710165,0,-18.207192)"
       gradientUnits="userSpaceOnUse" />
    <radialGradient
       inkscape:collect="always"
       xlink:href="#shadow"
       id="radialGradient3285"
       cx="800"
       cy="256.37286"
       fx="800"
       fy="256.37286"
       r="233.17139"
       gradientTransform="matrix(1,0,0,1.0709127,0,-18.180079)"
       gradientUnits="userSpaceOnUse" />
    <radialGradient
       inkscape:collect="always"
       xlink:href="#shadow"
       id="radialGradient3301"
       cx="1333.3333"
       cy="256.37286"
       fx="1333.3333"
       fy="256.37286"
       r="233.17137"
       gradientTransform="matrix(1,0,0,1.0709127,0,-18.180098)"
       gradientUnits="userSpaceOnUse" />
    <radialGradient
       inkscape:collect="always"
       xlink:href="#shadow"
       id="radialGradient3309"
       cx="1866.6666"
       cy="256.37286"
       fx="1866.6666"
       fy="256.37286"
       r="233.17139"
       gradientTransform="matrix(1,0,0,1.0709127,0,-18.180078)"
       gradientUnits="userSpaceOnUse" />
    <radialGradient
       inkscape:collect="always"
       xlink:href="#linearGradient10034"
       id="radialGradient11776"
       cx="211.63954"
       cy="185.151"
       fx="211.63954"
       fy="185.151"
       r="219.69714"
       gradientTransform="matrix(1.4598393,0,0,1.4570128,-122.2916,-109.76868)"
       gradientUnits="userSpaceOnUse" />
    <radialGradient
       inkscape:collect="always"
       xlink:href="#linearGradient10034"
       id="radialGradient11794"
       cx="744.99847"
       cy="185.18303"
       fx="744.99847"
       fy="185.18303"
       r="219.76791"
       gradientTransform="matrix(1.4611867,0,0,1.4578879,-368.58352,-109.97887)"
       gradientUnits="userSpaceOnUse" />
    <radialGradient
       inkscape:collect="always"
       xlink:href="#linearGradient10034"
       id="radialGradient11802"
       cx="1278.2395"
       cy="185.06781"
       fx="1278.2395"
       fy="185.06781"
       r="219.69714"
       gradientTransform="matrix(1.4591815,0,0,1.4563563,-611.91021,-109.61099)"
       gradientUnits="userSpaceOnUse" />
    <radialGradient
       inkscape:collect="always"
       xlink:href="#linearGradient10034"
       id="radialGradient11810"
       cx="1811.3427"
       cy="184.834"
       fx="1811.3427"
       fy="184.834"
       r="219.69714"
       gradientTransform="matrix(1.4516805,0,0,1.4488698,-842.81057,-107.81283)"
       gradientUnits="userSpaceOnUse" />
    <radialGradient
       inkscape:collect="always"
       xlink:href="#linearGradient12061"
       id="radialGradient11852"
       cx="265.94418"
       cy="240.18732"
       fx="265.94418"
       fy="240.18732"
       r="219.69714"
       gradientTransform="matrix(1,0,0,0.99806379,0,0.46505329)"
       gradientUnits="userSpaceOnUse" />
    <radialGradient
       inkscape:collect="always"
       xlink:href="#linearGradient12061"
       id="radialGradient11860"
       cx="799.20679"
       cy="240.18732"
       fx="799.20679"
       fy="240.18732"
       r="219.76791"
       gradientTransform="matrix(1,0,0,0.9977424,0,0.54224629)"
       gradientUnits="userSpaceOnUse" />
    <radialGradient
       inkscape:collect="always"
       xlink:href="#linearGradient12061"
       id="radialGradient11868"
       cx="1332.6108"
       cy="240.18732"
       fx="1332.6108"
       fy="240.18732"
       r="219.69714"
       gradientTransform="matrix(1,0,0,0.99806385,0,0.46503965)"
       gradientUnits="userSpaceOnUse" />
    <radialGradient
       inkscape:collect="always"
       xlink:href="#linearGradient12061"
       id="radialGradient11876"
       cx="1865.9442"
       cy="240.18732"
       fx="1865.9442"
       fy="240.18732"
       r="219.69714"
       gradientTransform="matrix(1,0,0,0.99806385,0,0.46503965)"
       gradientUnits="userSpaceOnUse" />
  </defs>
  <sodipodi:namedview
     id="namedview1077"
     pagecolor="#ffffff"
     bordercolor="#000000"
     borderopacity="0.25"
     inkscape:showpageshadow="2"
     inkscape:pageopacity="0.0"
     inkscape:pagecheckerboard="0"
     inkscape:deskcolor="#d1d1d1"
     showgrid="false"
     inkscape:zoom="0.50000001"
     inkscape:cx="1307"
     inkscape:cy="406.99999"
     inkscape:window-width="2456"
     inkscape:window-height="1296"
     inkscape:window-x="88"
     inkscape:window-y="0"
     inkscape:window-maximized="0"
     inkscape:current-layer="g1081" />
  <g
     inkscape:groupmode="layer"
     inkscape:label="Image"
     id="g1081">
    <g
       id="g3269"
       inkscape:label="drop_shadow">
      <path
         id="path3261"
         style="fill:url(#radialGradient3309);stroke-width:1.33333;fill-opacity:1.0"
         inkscape:label="path3261"
         d="M 1866.666 6.6660156 C 1766.0573 6.6660156 1677.0913 70.755647 1645.4844 166 C 1635.0123 197.55634 1632.7643 216.05832 1633.6816 263.14648 C 1634.4696 303.60155 1636.647 319.01783 1645.3027 345.44141 C 1661.6794 395.43438 1693.4287 437.39395 1737.1328 466.79883 C 1768.3697 487.81563 1804.2363 500.79968 1843.4883 505.30078 C 1849.2695 505.96372 1862.3994 506.26094 1872.666 505.96289 C 1972.0318 503.07818 2057.1832 439.61176 2088.0312 345.44141 C 2096.687 319.01783 2098.8643 303.60155 2099.6523 263.14648 C 2100.5697 216.05832 2098.3218 197.55634 2087.8496 166 C 2056.2427 70.755647 1967.2747 6.6660156 1866.666 6.6660156 z M 1866 20.916016 C 1888.4962 20.916016 1900.7058 22.454255 1922 27.970703 C 1960.3876 37.915399 1992.3811 56.391602 2021.3301 85.333984 C 2039.5481 103.54778 2051.6893 120.20719 2062.627 142 C 2078.7132 174.05118 2085.6406 203.55245 2085.6406 240 C 2085.6406 276.44754 2078.7132 305.94881 2062.627 338 C 2051.6893 359.7928 2039.5481 376.45222 2021.3301 394.66602 C 1987.3949 428.59334 1947.2407 449.21037 1900.666 456.62109 C 1888.0088 458.63504 1861.6635 460.05526 1852.666 459.20898 C 1806.4289 454.85999 1772.3366 442.60307 1736.6699 417.50391 C 1722.2852 407.38115 1697.3445 382.17335 1686.3691 366.66602 C 1668.2818 341.11018 1654.669 308.4859 1649.1055 277.36133 C 1645.2954 256.0458 1645.2954 223.9542 1649.1055 202.63867 C 1654.669 171.5141 1668.2818 138.88983 1686.3691 113.33398 C 1697.3445 97.826653 1722.2852 72.618863 1736.6699 62.496094 C 1760.5422 45.696838 1783.748 34.77154 1810 27.970703 C 1831.2941 22.454255 1843.5037 20.916016 1866 20.916016 z " />
      <path
         id="path3257"
         style="fill:url(#radialGradient3301);stroke-width:1.33333;fill-opacity:1.0"
         d="M 1333.334 6.6660156 C 1232.7253 6.6660156 1143.7574 70.755647 1112.1504 166 C 1101.6783 197.55634 1099.4304 216.05832 1100.3477 263.14648 C 1101.1357 303.60155 1103.3131 319.01783 1111.9688 345.44141 C 1128.3453 395.43438 1160.0948 437.39395 1203.7988 466.79883 C 1235.0358 487.81563 1270.9043 500.79968 1310.1562 505.30078 C 1315.9374 505.96372 1329.0673 506.26094 1339.334 505.96289 C 1438.6998 503.07818 1523.8492 439.61176 1554.6973 345.44141 C 1563.353 319.01783 1565.5304 303.60155 1566.3184 263.14648 C 1567.2357 216.05832 1564.9877 197.55634 1554.5156 166 C 1522.9088 70.755647 1433.9427 6.6660156 1333.334 6.6660156 z M 1332.666 20.916016 C 1355.1623 20.916016 1367.3719 22.454255 1388.666 27.970703 C 1427.0536 37.915399 1459.047 56.391602 1487.9961 85.333984 C 1506.2141 103.54778 1518.3552 120.20719 1529.293 142 C 1545.3792 174.05118 1552.3086 203.55245 1552.3086 240 C 1552.3086 276.44754 1545.3792 305.94881 1529.293 338 C 1518.3552 359.7928 1506.2141 376.45222 1487.9961 394.66602 C 1454.0609 428.59334 1413.9086 449.21037 1367.334 456.62109 C 1354.6768 458.63504 1328.3315 460.05526 1319.334 459.20898 C 1273.0969 454.85999 1239.0025 442.60307 1203.3359 417.50391 C 1188.9513 407.38115 1164.0106 382.17335 1153.0352 366.66602 C 1134.9479 341.11018 1121.3349 308.4859 1115.7715 277.36133 C 1111.9614 256.0458 1111.9614 223.9542 1115.7715 202.63867 C 1121.3349 171.5141 1134.9479 138.88983 1153.0352 113.33398 C 1164.0106 97.826653 1188.9513 72.618863 1203.3359 62.496094 C 1227.2081 45.696838 1250.414 34.77154 1276.666 27.970703 C 1297.9602 22.454255 1310.1698 20.916016 1332.666 20.916016 z " />
      <path
         id="path3253"
         style="fill:url(#radialGradient3285);stroke-width:1.33333;fill-opacity:1.0"
         inkscape:label="path3253"
         d="M 800 6.6660156 C 699.39125 6.6660156 610.42537 70.755647 578.81836 166 C 568.34633 197.55634 566.09841 216.05832 567.01562 263.14648 C 567.80362 303.60155 569.97899 319.01783 578.63477 345.44141 C 595.01135 395.43438 626.76273 437.39395 670.4668 466.79883 C 701.70381 487.81563 737.57028 500.79968 776.82227 505.30078 C 782.6035 505.96372 795.73334 506.26094 806 505.96289 C 905.36574 503.07818 990.51709 439.61176 1021.3652 345.44141 C 1030.0209 319.01783 1032.1964 303.60155 1032.9844 263.14648 C 1033.9017 216.05832 1031.6537 197.55634 1021.1816 166 C 989.57467 70.755647 900.60875 6.6660156 800 6.6660156 z M 799.33398 20.916016 C 821.83024 20.916016 834.03989 22.454255 855.33398 27.970703 C 893.72162 37.915399 925.71507 56.391602 954.66406 85.333984 C 972.88202 103.54778 985.02321 120.20719 995.96094 142 C 1012.0472 174.05118 1018.9746 203.55245 1018.9746 240 C 1018.9746 276.44754 1012.0472 305.94881 995.96094 338 C 985.02321 359.7928 972.88202 376.45222 954.66406 394.66602 C 920.72899 428.59334 880.57463 449.21037 834 456.62109 C 821.34285 458.63504 794.99743 460.05526 786 459.20898 C 739.76289 454.85999 705.67048 442.60307 670.00391 417.50391 C 655.61917 407.38115 630.67663 382.17335 619.70117 366.66602 C 608.26129 350.50247 595.9949 326.06751 589.92969 307.36133 C 575.94152 264.21929 575.94152 215.78071 589.92969 172.63867 C 595.9949 153.93249 608.26129 129.49754 619.70117 113.33398 C 630.67663 97.826653 655.61917 72.618863 670.00391 62.496094 C 693.87609 45.696838 717.08201 34.77154 743.33398 27.970703 C 764.62808 22.454255 776.83773 20.916016 799.33398 20.916016 z " />
      <path
         id="path1210"
         style="fill:url(#radialGradient3277);stroke-width:1.33333;fill-opacity:1.0"
         d="M 266.66602 6.6660156 C 166.05727 6.6660156 77.091385 70.755647 45.484375 166 C 34.877796 197.96179 32.784916 215.69099 33.707031 265.76172 C 34.327582 299.45753 34.751251 304.99292 37.826172 319.42578 C 59.14285 419.48054 138.4247 492.5611 239.52734 505.34961 C 244.55344 505.98448 259.46603 506.26785 272.66602 505.97852 C 291.64444 505.56255 300.03421 504.75221 312.75977 502.09961 C 405.69937 482.72666 475.60162 412.85092 495.50586 319.42578 C 498.58079 304.99292 499.00639 299.45753 499.62695 265.76172 C 500.54906 215.69099 498.45619 197.96179 487.84961 166 C 456.2426 70.755647 367.27477 6.6660156 266.66602 6.6660156 z M 266 20.916016 C 288.49626 20.916016 300.70591 22.454255 322 27.970703 C 360.38763 37.915399 392.3811 56.391602 421.33008 85.333984 C 439.54805 103.54778 451.68923 120.20719 462.62695 142 C 478.71329 174.05118 485.64062 203.55245 485.64062 240 C 485.64062 276.44754 478.71329 305.94881 462.62695 338 C 451.68923 359.7928 439.54805 376.45222 421.33008 394.66602 C 387.395 428.59334 347.24065 449.21037 300.66602 456.62109 C 288.00887 458.63504 261.66345 460.05526 252.66602 459.20898 C 206.4289 454.85999 172.3365 442.60307 136.66992 417.50391 C 122.28519 407.38115 97.344587 382.17335 86.369141 366.66602 C 68.281773 341.11018 54.66893 308.4859 49.105469 277.36133 C 45.295357 256.0458 45.295357 223.9542 49.105469 202.63867 C 54.66893 171.5141 68.281773 138.88983 86.369141 113.33398 C 97.344587 97.826653 122.28519 72.618863 136.66992 62.496094 C 160.54211 45.696838 183.74803 34.77154 210 27.970703 C 231.2941 22.454255 243.50374 20.916016 266 20.916016 z " />
    </g>
    <g
       id="g3331"
       style="display:inline"
       inkscape:label="outline">
      <path
         id="path3323"
         style="display:inline;fill:#000000;stroke-width:1.33333"
         d="M 1866.666 7.0957031 C 1821.5405 7.0957031 1776.416 20.289051 1737.127 46.677734 C 1666.7887 93.920833 1628.1746 173.82558 1634.4434 259.16602 C 1638.4712 313.99692 1660.2829 362.23019 1699.252 402.47852 C 1735.5371 439.9549 1781.9532 463.71842 1833.5508 471.23438 C 1850.4213 473.69184 1881.5966 473.7199 1898.6602 471.29492 C 1951.2585 463.81994 1997.3825 440.38285 2034.082 402.47852 C 2040.7266 395.61572 2048.9814 386.28753 2052.4277 381.75 C 2133.3881 275.15434 2107.6074 121.50047 1996.207 46.677734 C 1956.918 20.289051 1911.7916 7.0957031 1866.666 7.0957031 z M 1866 20.916016 C 1888.4962 20.916016 1900.7058 22.454255 1922 27.970703 C 1960.3876 37.915399 1992.3811 56.391602 2021.3301 85.333984 C 2039.5481 103.54778 2051.6893 120.20719 2062.627 142 C 2078.7132 174.05118 2085.6406 203.55245 2085.6406 240 C 2085.6406 276.44754 2078.7132 305.94881 2062.627 338 C 2051.6893 359.7928 2039.5481 376.45222 2021.3301 394.66602 C 1987.3949 428.59334 1947.2407 449.21037 1900.666 456.62109 C 1888.0088 458.63504 1861.6635 460.05526 1852.666 459.20898 C 1806.4289 454.85999 1772.3366 442.60307 1736.6699 417.50391 C 1722.2852 407.38115 1697.3445 382.17335 1686.3691 366.66602 C 1668.2818 341.11018 1654.669 308.4859 1649.1055 277.36133 C 1645.2954 256.0458 1645.2954 223.9542 1649.1055 202.63867 C 1654.669 171.5141 1668.2818 138.88983 1686.3691 113.33398 C 1697.3445 97.826653 1722.2852 72.618863 1736.6699 62.496094 C 1760.5422 45.696838 1783.748 34.77154 1810 27.970703 C 1831.2941 22.454255 1843.5037 20.916016 1866 20.916016 z " />
      <path
         id="path3319"
         style="display:inline;fill:#000000;stroke-width:1.33333"
         inkscape:label="path3319"
         d="M 1333.334 7.0957031 C 1288.2084 7.0957031 1243.082 20.289051 1203.793 46.677734 C 1133.4547 93.920833 1094.8424 173.82558 1101.1113 259.16602 C 1105.139 313.99692 1126.949 362.23019 1165.918 402.47852 C 1202.2031 439.9549 1248.6212 463.71842 1300.2188 471.23438 C 1317.0892 473.69184 1348.2645 473.7199 1365.3281 471.29492 C 1417.9265 463.81994 1464.0485 440.38285 1500.748 402.47852 C 1507.3927 395.61572 1515.6495 386.28753 1519.0957 381.75 C 1600.056 275.15434 1574.2734 121.50047 1462.873 46.677734 C 1423.584 20.289051 1378.4595 7.0957031 1333.334 7.0957031 z M 1332.666 20.916016 C 1355.1623 20.916016 1367.3719 22.454255 1388.666 27.970703 C 1427.0536 37.915399 1459.047 56.391602 1487.9961 85.333984 C 1506.2141 103.54778 1518.3552 120.20719 1529.293 142 C 1545.3792 174.05118 1552.3086 203.55245 1552.3086 240 C 1552.3086 276.44754 1545.3792 305.94881 1529.293 338 C 1518.3552 359.7928 1506.2141 376.45222 1487.9961 394.66602 C 1454.0609 428.59334 1413.9086 449.21037 1367.334 456.62109 C 1354.6768 458.63504 1328.3315 460.05526 1319.334 459.20898 C 1273.0969 454.85999 1239.0025 442.60307 1203.3359 417.50391 C 1188.9513 407.38115 1164.0106 382.17335 1153.0352 366.66602 C 1134.9479 341.11018 1121.3349 308.4859 1115.7715 277.36133 C 1111.9614 256.0458 1111.9614 223.9542 1115.7715 202.63867 C 1121.3349 171.5141 1134.9479 138.88983 1153.0352 113.33398 C 1164.0106 97.826653 1188.9513 72.618863 1203.3359 62.496094 C 1227.2081 45.696838 1250.414 34.77154 1276.666 27.970703 C 1297.9602 22.454255 1310.1698 20.916016 1332.666 20.916016 z " />
      <path
         id="path3315"
         style="display:inline;fill:#000000;stroke-width:1.33333"
         d="M 800 7.0957031 C 754.87446 7.0957031 709.74799 20.289051 670.45898 46.677734 C 600.12071 93.920833 561.50849 173.82558 567.77734 259.16602 C 571.80504 313.99692 593.61694 362.23019 632.58594 402.47852 C 668.8711 439.9549 715.28719 463.71842 766.88477 471.23438 C 783.75521 473.69184 814.93054 473.7199 831.99414 471.29492 C 884.59247 463.81994 930.71456 440.38285 967.41406 402.47852 C 974.05873 395.61572 982.31542 386.28753 985.76172 381.75 C 1066.722 275.15434 1040.9414 121.50047 929.54102 46.677734 C 890.25201 20.289051 845.12554 7.0957031 800 7.0957031 z M 799.33398 20.916016 C 821.83024 20.916016 834.03989 22.454255 855.33398 27.970703 C 893.72162 37.915399 925.71507 56.391602 954.66406 85.333984 C 972.88202 103.54778 985.02321 120.20719 995.96094 142 C 1012.0472 174.05118 1018.9746 203.55245 1018.9746 240 C 1018.9746 276.44754 1012.0472 305.94881 995.96094 338 C 985.02321 359.7928 972.88202 376.45222 954.66406 394.66602 C 920.72899 428.59334 880.57463 449.21037 834 456.62109 C 821.34285 458.63504 794.99743 460.05526 786 459.20898 C 739.76289 454.85999 705.67048 442.60307 670.00391 417.50391 C 655.61917 407.38115 630.67663 382.17335 619.70117 366.66602 C 608.26129 350.50247 595.9949 326.06751 589.92969 307.36133 C 575.94152 264.21929 575.94152 215.78071 589.92969 172.63867 C 595.9949 153.93249 608.26129 129.49754 619.70117 113.33398 C 630.67663 97.826653 655.61917 72.618863 670.00391 62.496094 C 693.87609 45.696838 717.08201 34.77154 743.33398 27.970703 C 764.62808 22.454255 776.83773 20.916016 799.33398 20.916016 z " />
      <path
         id="path1208"
         style="display:inline;fill:#000000;stroke-width:1.33333"
         d="M 265.01953 7.0703125 C 249.60683 7.1564846 234.15356 8.7845155 218.89844 12.001953 C 159.81146 24.463906 107.17667 60.066623 73.341797 110.45898 C 22.278019 186.51141 20.24672 285.80176 68.173828 363.07617 C 90.111742 398.44736 124.31151 429.90603 161.08203 448.53906 C 181.29278 458.78064 210.19174 467.83179 233.55078 471.23438 C 250.42123 473.69184 281.59654 473.7199 298.66016 471.29492 C 351.25847 463.81994 397.38252 440.38285 434.08203 402.47852 C 440.72669 395.61572 448.98143 386.28753 452.42773 381.75 C 533.40263 275.13518 507.62748 121.51392 396.20703 46.677734 C 357.1327 20.433242 311.25763 6.8117961 265.01953 7.0703125 z M 266 20.916016 C 288.49626 20.916016 300.70591 22.454255 322 27.970703 C 360.38763 37.915399 392.3811 56.391602 421.33008 85.333984 C 439.54805 103.54778 451.68923 120.20719 462.62695 142 C 478.71329 174.05118 485.64062 203.55245 485.64062 240 C 485.64062 276.44754 478.71329 305.94881 462.62695 338 C 451.68923 359.7928 439.54805 376.45222 421.33008 394.66602 C 387.395 428.59334 347.24065 449.21037 300.66602 456.62109 C 288.00887 458.63504 261.66345 460.05526 252.66602 459.20898 C 206.4289 454.85999 172.3365 442.60307 136.66992 417.50391 C 122.28519 407.38115 97.344587 382.17335 86.369141 366.66602 C 68.281773 341.11018 54.66893 308.4859 49.105469 277.36133 C 45.295357 256.0458 45.295357 223.9542 49.105469 202.63867 C 54.66893 171.5141 68.281773 138.88983 86.369141 113.33398 C 97.344587 97.826653 122.28519 72.618863 136.66992 62.496094 C 160.54211 45.696838 183.74803 34.77154 210 27.970703 C 231.2941 22.454255 243.50374 20.916016 266 20.916016 z " />
    </g>
    <g
       id="g11755"
       style="display:inline"
       inkscape:label="ball_shading">
      <path
         style="display:inline;fill:url(#radialGradient11810);stroke-width:1.33333;fill-opacity:1.0"
         d="m 1852.6666,459.20993 c -46.2372,-4.349 -80.3298,-16.60691 -115.9965,-41.7061 -14.3847,-10.12277 -39.3263,-35.32982 -50.3017,-50.83717 -18.0874,-25.55586 -31.7003,-58.17993 -37.2638,-89.30453 -3.8101,-21.31555 -3.8101,-53.40872 0,-74.72427 5.5635,-31.1246 19.1764,-63.74866 37.2638,-89.30453 10.9754,-15.507347 35.917,-40.714396 50.3017,-50.837175 23.8723,-16.799273 47.0779,-27.725225 73.3299,-34.526069 21.2941,-5.516454 33.5037,-7.054548 56,-7.054548 22.4962,0 34.7058,1.538094 56,7.054548 38.3876,9.944706 70.3808,28.420835 99.3298,57.363246 18.218,18.213818 30.3594,34.873838 41.2971,56.666668 16.0863,32.05121 23.0144,61.55241 23.0144,98 0,36.44758 -6.9281,65.94878 -23.0144,98 -10.9377,21.79282 -23.0791,38.45285 -41.2971,56.66666 -33.9352,33.92736 -74.0885,54.54428 -120.6632,61.95501 -12.6572,2.01395 -39.0025,3.43454 -48,2.58826 z"
         id="path11747" />
      <path
         style="display:inline;fill:url(#radialGradient11802);stroke-width:1.33333;fill-opacity:1.0"
         d="m 1319.3333,459.20993 c -46.2371,-4.349 -80.3299,-16.60691 -115.9965,-41.7061 -14.3847,-10.12277 -39.3263,-35.32982 -50.3018,-50.83717 -18.0873,-25.55586 -31.7003,-58.17993 -37.2637,-89.30453 -3.8101,-21.31555 -3.8101,-53.40872 0,-74.72427 5.5634,-31.1246 19.1764,-63.74866 37.2637,-89.30453 10.9755,-15.507347 35.9171,-40.714396 50.3018,-50.837175 23.8722,-16.799273 47.0778,-27.725225 73.3298,-34.526069 21.2942,-5.516454 33.5038,-7.054548 56,-7.054548 22.4963,0 34.7059,1.538094 56,7.054548 38.3876,9.944706 70.3808,28.420835 99.3299,57.363246 18.218,18.213818 30.3593,34.873838 41.2971,56.666668 16.0862,32.05121 23.0144,61.55241 23.0144,98 0,36.44758 -6.9282,65.94878 -23.0144,98 -10.9378,21.79282 -23.0791,38.45285 -41.2971,56.66666 -33.9352,33.92736 -74.0885,54.54428 -120.6632,61.95501 -12.6572,2.01395 -39.0025,3.43454 -48,2.58826 z"
         id="path11749" />
      <path
         style="display:inline;fill:url(#radialGradient11794);stroke-width:1.33333;fill-opacity:1.0"
         d="m 785.99999,459.20993 c -46.23716,-4.349 -80.32988,-16.60691 -115.99649,-41.7061 -14.38475,-10.12277 -39.32632,-35.32982 -50.30179,-50.83717 -11.43989,-16.16356 -23.70649,-40.59833 -29.77171,-59.30453 -13.98818,-43.14208 -13.98818,-91.58219 0,-134.72427 6.06522,-18.7062 18.33182,-43.14096 29.77171,-59.30453 10.97547,-15.507347 35.91704,-40.714396 50.30179,-50.837175 23.87221,-16.799273 47.07782,-27.725225 73.32982,-34.526069 21.29412,-5.516454 33.50372,-7.054548 56,-7.054548 22.49628,0 34.70588,1.538094 56,7.054548 38.38767,9.944706 70.38081,28.420835 99.32983,57.363246 18.21798,18.213818 30.35931,34.873838 41.29705,56.666668 16.0863,32.05121 23.0145,61.55241 23.0145,98 0,36.44758 -6.9282,65.94878 -23.0145,98 -10.93774,21.79282 -23.07907,38.45285 -41.29705,56.66666 -33.93511,33.92736 -74.08848,54.54428 -120.66316,61.95501 -12.65716,2.01395 -39.00256,3.43454 -48,2.58826 z"
         id="path11751"
         inkscape:label="path11751" />
      <path
         style="display:inline;fill:url(#radialGradient11776);fill-opacity:1.0;stroke-width:1.33333"
         d="M 252.66666,459.20993 C 206.4295,454.86093 172.33678,442.60302 136.67017,417.50383 122.28542,407.38106 97.343849,382.17401 86.368392,366.66666 68.281006,341.1108 54.668084,308.48673 49.104617,277.36213 c -3.810116,-21.31555 -3.810116,-53.40872 0,-74.72427 5.563467,-31.1246 19.176389,-63.74866 37.263775,-89.30453 C 97.343849,97.825983 122.28542,72.618934 136.67017,62.496155 160.54238,45.696882 183.748,34.77093 210,27.970086 c 21.29412,-5.516454 33.50372,-7.054548 56,-7.054548 22.49628,0 34.70588,1.538094 55.99999,7.054548 38.38767,9.944706 70.38082,28.420835 99.32983,57.363246 18.21799,18.213818 30.35932,34.873838 41.29705,56.666668 16.08635,32.05121 23.01446,61.55241 23.01446,98 0,36.44758 -6.92811,65.94878 -23.01446,98 -10.93773,21.79282 -23.07906,38.45285 -41.29705,56.66666 -33.93511,33.92736 -74.08848,54.54428 -120.66316,61.95501 -12.65716,2.01395 -39.00256,3.43454 -48,2.58826 z"
         id="path11753" />
    </g>
    <g
       id="g3698"
       style="display:inline"
       inkscape:label="rim_light">
      <path
         style="display:inline;fill:url(#radialGradient11876);stroke-width:1.33333;fill-opacity:1.0"
         d="m 1852.6666,459.20993 c -46.2372,-4.349 -80.3298,-16.60691 -115.9965,-41.7061 -14.3847,-10.12277 -39.3263,-35.32982 -50.3017,-50.83717 -18.0874,-25.55586 -31.7003,-58.17993 -37.2638,-89.30453 -3.8101,-21.31555 -3.8101,-53.40872 0,-74.72427 5.5635,-31.1246 19.1764,-63.74866 37.2638,-89.30453 10.9754,-15.507347 35.917,-40.714396 50.3017,-50.837175 23.8723,-16.799273 47.0779,-27.725225 73.3299,-34.526069 21.2941,-5.516454 33.5037,-7.054548 56,-7.054548 22.4962,0 34.7058,1.538094 56,7.054548 38.3876,9.944706 70.3808,28.420835 99.3298,57.363246 18.218,18.213818 30.3594,34.873838 41.2971,56.666668 16.0863,32.05121 23.0144,61.55241 23.0144,98 0,36.44758 -6.9281,65.94878 -23.0144,98 -10.9377,21.79282 -23.0791,38.45285 -41.2971,56.66666 -33.9352,33.92736 -74.0885,54.54428 -120.6632,61.95501 -12.6572,2.01395 -39.0025,3.43454 -48,2.58826 z"
         id="path3690" />
      <path
         style="display:inline;fill:url(#radialGradient11868);stroke-width:1.33333;fill-opacity:1.0"
         d="m 1319.3333,459.20993 c -46.2371,-4.349 -80.3299,-16.60691 -115.9965,-41.7061 -14.3847,-10.12277 -39.3263,-35.32982 -50.3018,-50.83717 -18.0873,-25.55586 -31.7003,-58.17993 -37.2637,-89.30453 -3.8101,-21.31555 -3.8101,-53.40872 0,-74.72427 5.5634,-31.1246 19.1764,-63.74866 37.2637,-89.30453 10.9755,-15.507347 35.9171,-40.714396 50.3018,-50.837175 23.8722,-16.799273 47.0778,-27.725225 73.3298,-34.526069 21.2942,-5.516454 33.5038,-7.054548 56,-7.054548 22.4963,0 34.7059,1.538094 56,7.054548 38.3876,9.944706 70.3808,28.420835 99.3299,57.363246 18.218,18.213818 30.3593,34.873838 41.2971,56.666668 16.0862,32.05121 23.0144,61.55241 23.0144,98 0,36.44758 -6.9282,65.94878 -23.0144,98 -10.9378,21.79282 -23.0791,38.45285 -41.2971,56.66666 -33.9352,33.92736 -74.0885,54.54428 -120.6632,61.95501 -12.6572,2.01395 -39.0025,3.43454 -48,2.58826 z"
         id="path3686"
         inkscape:label="path3686" />
      <path
         style="display:inline;fill:url(#radialGradient11860);stroke-width:1.33333;fill-opacity:1.0"
         d="m 785.99999,459.20993 c -46.23716,-4.349 -80.32988,-16.60691 -115.99649,-41.7061 -14.38475,-10.12277 -39.32632,-35.32982 -50.30179,-50.83717 -11.43989,-16.16356 -23.70649,-40.59833 -29.77171,-59.30453 -13.98818,-43.14208 -13.98818,-91.58219 0,-134.72427 6.06522,-18.7062 18.33182,-43.14096 29.77171,-59.30453 10.97547,-15.507347 35.91704,-40.714396 50.30179,-50.837175 23.87221,-16.799273 47.07782,-27.725225 73.32982,-34.526069 21.29412,-5.516454 33.50372,-7.054548 56,-7.054548 22.49628,0 34.70588,1.538094 56,7.054548 38.38767,9.944706 70.38081,28.420835 99.32983,57.363246 18.21798,18.213818 30.35931,34.873838 41.29705,56.666668 16.0863,32.05121 23.0145,61.55241 23.0145,98 0,36.44758 -6.9282,65.94878 -23.0145,98 -10.93774,21.79282 -23.07907,38.45285 -41.29705,56.66666 -33.93511,33.92736 -74.08848,54.54428 -120.66316,61.95501 -12.65716,2.01395 -39.00256,3.43454 -48,2.58826 z"
         id="path3682" />
      <path
         style="display:inline;fill:url(#radialGradient11852);stroke-width:1.33333;fill-opacity:1.0"
         d="M 252.66666,459.20993 C 206.4295,454.86093 172.33678,442.60302 136.67017,417.50383 122.28542,407.38106 97.343849,382.17401 86.368392,366.66666 68.281006,341.1108 54.668084,308.48673 49.104617,277.36213 c -3.810116,-21.31555 -3.810116,-53.40872 0,-74.72427 5.563467,-31.1246 19.176389,-63.74866 37.263775,-89.30453 C 97.343849,97.825983 122.28542,72.618934 136.67017,62.496155 160.54238,45.696882 183.748,34.77093 210,27.970086 c 21.29412,-5.516454 33.50372,-7.054548 56,-7.054548 22.49628,0 34.70588,1.538094 55.99999,7.054548 38.38767,9.944706 70.38082,28.420835 99.32983,57.363246 18.21799,18.213818 30.35932,34.873838 41.29705,56.666668 16.08635,32.05121 23.01446,61.55241 23.01446,98 0,36.44758 -6.92811,65.94878 -23.01446,98 -10.93773,21.79282 -23.07906,38.45285 -41.29705,56.66666 -33.93511,33.92736 -74.08848,54.54428 -120.66316,61.95501 -12.65716,2.01395 -39.00256,3.43454 -48,2.58826 z"
         id="path1206" />
    </g>
    <g
       id="g11701"
       inkscape:label="shding guide"
       style="display:none">
      <path
         style="display:inline;fill:#000000;fill-opacity:1;stroke-width:1.33333"
         d="m 186.66666,153.33333 c 0,-5.86008 -0.33504,-6.66667 -2.76922,-6.66667 -3.58036,0 -10.56411,6.98375 -10.56411,10.56411 0,2.43419 0.80659,2.76923 6.66667,2.76923 h 6.66666 z"
         id="path4185" />
      <path
         style="display:inline;fill:#000000;fill-opacity:1;stroke-width:1.33333"
         d="m 1786.6666,153.33333 c 0,-5.86008 -0.335,-6.66667 -2.7692,-6.66667 -3.5804,0 -10.5641,6.98375 -10.5641,10.56411 0,2.43419 0.8065,2.76923 6.6667,2.76923 h 6.6666 z"
         id="path4197" />
      <path
         style="display:inline;fill:#000000;fill-opacity:1;stroke-width:1.33333"
         d="m 1253.3333,153.33333 c 0,-5.86008 -0.335,-6.66667 -2.7692,-6.66667 -3.5804,0 -10.5641,6.98375 -10.5641,10.56411 0,2.43419 0.8066,2.76923 6.6666,2.76923 h 6.6667 z"
         id="path4193" />
      <path
         style="display:inline;fill:#000000;fill-opacity:1;stroke-width:1.33333"
         d="m 719.99999,153.33333 c 0,-5.86008 -0.33504,-6.66667 -2.76923,-6.66667 -3.58036,0 -10.5641,6.98375 -10.5641,10.56411 0,2.43419 0.80658,2.76923 6.66666,2.76923 h 6.66667 z"
         id="path4189" />
    </g>
    <g
       id="g6529"
       style="display:inline"
       inkscape:label="lid">
      <path
         id="path6521"
         style="display:inline;fill:#000000;stroke-width:1.1547"
         d="M 1866.666 65.345703 C 1821.5405 65.345703 1776.416 75.24169 1737.127 95.033203 C 1666.7887 130.46553 1628.1746 190.39311 1634.4434 254.39844 C 1638.4712 295.52162 1660.2829 331.69656 1699.252 361.88281 C 1735.5371 389.99009 1781.9532 407.81225 1833.5508 413.44922 C 1850.4213 415.29229 1881.5966 415.31482 1898.6602 413.49609 C 1951.2585 407.88985 1997.3825 390.31105 2034.082 361.88281 C 2040.7266 356.73572 2048.9814 349.73907 2052.4277 346.33594 C 2133.3881 266.38919 2107.6074 151.15026 1996.207 95.033203 C 1956.918 75.24169 1911.7916 65.345703 1866.666 65.345703 z M 1866 79.845703 C 1888.4962 79.845703 1900.7058 80.970003 1922 85.003906 C 1960.3876 92.275966 1992.3811 105.78705 2021.3301 126.95117 C 2039.5481 140.27001 2051.6893 152.45268 2062.627 168.38867 C 2078.7132 191.82609 2085.6406 213.3985 2085.6406 240.05078 C 2085.6406 266.70304 2078.7132 288.27545 2062.627 311.71289 C 2051.6893 327.64887 2039.5481 339.83155 2021.3301 353.15039 C 1987.3949 377.95975 1947.2407 393.03598 1900.666 398.45508 C 1888.0088 399.92777 1861.6635 400.9665 1852.666 400.34766 C 1806.4289 397.16745 1772.3366 388.20337 1736.6699 369.84961 C 1722.2852 362.44734 1697.3445 344.01552 1686.3691 332.67578 C 1668.2818 313.98808 1654.669 290.13094 1649.1055 267.37109 C 1645.2954 251.78412 1645.2954 228.3155 1649.1055 212.72852 C 1654.669 189.96868 1668.2818 166.1135 1686.3691 147.42578 C 1697.3445 136.08604 1722.2852 117.65228 1736.6699 110.25 C 1760.5422 97.965545 1783.748 89.977018 1810 85.003906 C 1831.2941 80.970003 1843.5037 79.845703 1866 79.845703 z " />
      <path
         id="path6523"
         style="display:inline;fill:#000000;stroke-width:0.988824"
         d="M 1333.334 111.94531 C 1288.2084 111.94531 1243.082 119.20106 1203.793 133.71484 C 1133.4547 159.69855 1094.8424 203.64675 1101.1113 250.58398 C 1105.139 280.74098 1126.949 307.26966 1165.918 329.40625 C 1202.2031 350.01826 1248.6212 363.08694 1300.2188 367.2207 C 1317.0892 368.57235 1348.2645 368.5896 1365.3281 367.25586 C 1417.9265 363.14462 1464.0485 350.25363 1500.748 329.40625 C 1507.3927 325.63171 1515.6495 320.5015 1519.0957 318.00586 C 1600.056 259.37825 1574.2734 174.86734 1462.873 133.71484 C 1423.584 119.20106 1378.4595 111.94531 1333.334 111.94531 z M 1332.666 125.61719 C 1355.1623 125.61719 1367.3719 126.42235 1388.666 129.30469 C 1427.0536 134.50078 1459.047 144.15301 1487.9961 159.27539 C 1506.2141 168.7921 1518.3552 177.49802 1529.293 188.88477 C 1545.3792 205.6315 1552.3086 221.04599 1552.3086 240.08984 C 1552.3086 259.13368 1545.3792 274.54818 1529.293 291.29492 C 1518.3552 302.68166 1506.2141 311.38564 1487.9961 320.90234 C 1454.0609 338.62938 1413.9086 349.40134 1367.334 353.27344 C 1354.6768 354.32573 1328.3315 355.06913 1319.334 354.62695 C 1273.0969 352.35461 1239.0025 345.95024 1203.3359 332.83594 C 1188.9513 327.54678 1164.0106 314.37602 1153.0352 306.27344 C 1134.9479 292.92051 1121.3349 275.87392 1115.7715 259.61133 C 1111.9614 248.47397 1111.9614 231.70572 1115.7715 220.56836 C 1121.3349 204.30578 1134.9479 187.25919 1153.0352 173.90625 C 1164.0106 165.80368 1188.9513 152.63289 1203.3359 147.34375 C 1227.2081 138.56614 1250.414 132.85812 1276.666 129.30469 C 1297.9602 126.42235 1310.1698 125.61719 1332.666 125.61719 z " />
      <path
         style="display:inline;fill:#000000;stroke-width:0.499317"
         d="m 766.88467,272.51044 c -51.59763,-1.05405 -98.014,-4.38665 -134.2992,-9.64238 -38.96904,-5.6445 -60.78051,-12.40861 -64.80821,-20.09819 -6.26886,-11.96826 32.34418,-23.17422 102.68252,-29.79967 78.57809,-7.40158 180.50233,-7.40158 259.08042,0 111.4005,10.49325 137.1819,32.04181 56.2215,46.99095 -3.4463,0.63635 -11.70253,1.94446 -18.3472,2.90691 -36.69954,5.31575 -82.82215,8.6028 -135.42053,9.65111 -17.06362,0.34009 -48.23884,0.33589 -65.1093,-0.009 z"
         id="path6525" />
    </g>
  </g>
</svg>
