<?xml version="1.0" encoding="UTF-8" standalone="no"?>
<!-- Created with Inkscape (http://www.inkscape.org/) -->

<svg
   version="1.1"
   id="svg1075"
   width="2133.3333"
   height="506.66666"
   viewBox="0 0 2133.3333 506.66666"
   sodipodi:docname="tango-eye.svg"
   inkscape:version="1.2.2 (b0a8486541, 2022-12-01)"
   xmlns:inkscape="http://www.inkscape.org/namespaces/inkscape"
   xmlns:sodipodi="http://sodipodi.sourceforge.net/DTD/sodipodi-0.dtd"
   xmlns="http://www.w3.org/2000/svg"
   xmlns:svg="http://www.w3.org/2000/svg">
  <defs
     id="defs1079" />
  <sodipodi:namedview
     id="namedview1077"
     pagecolor="#ffffff"
     bordercolor="#000000"
     borderopacity="0.25"
     inkscape:showpageshadow="2"
     inkscape:pageopacity="0.0"
     inkscape:pagecheckerboard="0"
     inkscape:deskcolor="#d1d1d1"
     showgrid="false"
     inkscape:zoom="0.50000001"
     inkscape:cx="878.99998"
     inkscape:cy="360.99999"
     inkscape:window-width="2456"
     inkscape:window-height="1296"
     inkscape:window-x="528"
     inkscape:window-y="715"
     inkscape:window-maximized="0"
     inkscape:current-layer="g1081" />
  <g
     inkscape:groupmode="layer"
     inkscape:label="Image"
     id="g1081">
    <g
       id="g11755"
       style="display:inline"
       inkscape:label="ball_shading">
      <path
         style="display:inline;fill:#fefefe;stroke-width:1.33333;fill-opacity:1"
         d="m 1852.6666,459.20993 c -46.2372,-4.349 -80.3298,-16.60691 -115.9965,-41.7061 -14.3847,-10.12277 -39.3263,-35.32982 -50.3017,-50.83717 -18.0874,-25.55586 -31.7003,-58.17993 -37.2638,-89.30453 -3.8101,-21.31555 -3.8101,-53.40872 0,-74.72427 5.5635,-31.1246 19.1764,-63.74866 37.2638,-89.30453 10.9754,-15.507347 35.917,-40.714396 50.3017,-50.837175 23.8723,-16.799273 47.0779,-27.725225 73.3299,-34.526069 21.2941,-5.516454 33.5037,-7.054548 56,-7.054548 22.4962,0 34.7058,1.538094 56,7.054548 38.3876,9.944706 70.3808,28.420835 99.3298,57.363246 18.218,18.213818 30.3594,34.873838 41.2971,56.666668 16.0863,32.05121 23.0144,61.55241 23.0144,98 0,36.44758 -6.9281,65.94878 -23.0144,98 -10.9377,21.79282 -23.0791,38.45285 -41.2971,56.66666 -33.9352,33.92736 -74.0885,54.54428 -120.6632,61.95501 -12.6572,2.01395 -39.0025,3.43454 -48,2.58826 z"
         id="path11747" />
      <path
         style="display:inline;fill:#ffffff;stroke-width:1.33333;fill-opacity:1"
         d="m 1319.3333,459.20993 c -46.2371,-4.349 -80.3299,-16.60691 -115.9965,-41.7061 -14.3847,-10.12277 -39.3263,-35.32982 -50.3018,-50.83717 -18.0873,-25.55586 -31.7003,-58.17993 -37.2637,-89.30453 -3.8101,-21.31555 -3.8101,-53.40872 0,-74.72427 5.5634,-31.1246 19.1764,-63.74866 37.2637,-89.30453 10.9755,-15.507347 35.9171,-40.714396 50.3018,-50.837175 23.8722,-16.799273 47.0778,-27.725225 73.3298,-34.526069 21.2942,-5.516454 33.5038,-7.054548 56,-7.054548 22.4963,0 34.7059,1.538094 56,7.054548 38.3876,9.944706 70.3808,28.420835 99.3299,57.363246 18.218,18.213818 30.3593,34.873838 41.2971,56.666668 16.0862,32.05121 23.0144,61.55241 23.0144,98 0,36.44758 -6.9282,65.94878 -23.0144,98 -10.9378,21.79282 -23.0791,38.45285 -41.2971,56.66666 -33.9352,33.92736 -74.0885,54.54428 -120.6632,61.95501 -12.6572,2.01395 -39.0025,3.43454 -48,2.58826 z"
         id="path11749" />
      <path
         style="display:inline;fill:#ffffff;stroke-width:1.33333;fill-opacity:1"
         d="m 785.99999,459.20993 c -46.23716,-4.349 -80.32988,-16.60691 -115.99649,-41.7061 -14.38475,-10.12277 -39.32632,-35.32982 -50.30179,-50.83717 -11.43989,-16.16356 -23.70649,-40.59833 -29.77171,-59.30453 -13.98818,-43.14208 -13.98818,-91.58219 0,-134.72427 6.06522,-18.7062 18.33182,-43.14096 29.77171,-59.30453 10.97547,-15.507347 35.91704,-40.714396 50.30179,-50.837175 23.87221,-16.799273 47.07782,-27.725225 73.32982,-34.526069 21.29412,-5.516454 33.50372,-7.054548 56,-7.054548 22.49628,0 34.70588,1.538094 56,7.054548 38.38767,9.944706 70.38081,28.420835 99.32983,57.363246 18.21798,18.213818 30.35931,34.873838 41.29705,56.666668 16.0863,32.05121 23.0145,61.55241 23.0145,98 0,36.44758 -6.9282,65.94878 -23.0145,98 -10.93774,21.79282 -23.07907,38.45285 -41.29705,56.66666 -33.93511,33.92736 -74.08848,54.54428 -120.66316,61.95501 -12.65716,2.01395 -39.00256,3.43454 -48,2.58826 z"
         id="path11751"
         inkscape:label="path11751" />
      <path
         style="display:inline;fill:#ffffff;fill-opacity:1;stroke-width:1.33333"
         d="M 252.66666,459.20993 C 206.4295,454.86093 172.33678,442.60302 136.67017,417.50383 122.28542,407.38106 97.343849,382.17401 86.368392,366.66666 68.281006,341.1108 54.668084,308.48673 49.104617,277.36213 c -3.810116,-21.31555 -3.810116,-53.40872 0,-74.72427 5.563467,-31.1246 19.176389,-63.74866 37.263775,-89.30453 C 97.343849,97.825983 122.28542,72.618934 136.67017,62.496155 160.54238,45.696882 183.748,34.77093 210,27.970086 c 21.29412,-5.516454 33.50372,-7.054548 56,-7.054548 22.49628,0 34.70588,1.538094 55.99999,7.054548 38.38767,9.944706 70.38082,28.420835 99.32983,57.363246 18.21799,18.213818 30.35932,34.873838 41.29705,56.666668 16.08635,32.05121 23.01446,61.55241 23.01446,98 0,36.44758 -6.92811,65.94878 -23.01446,98 -10.93773,21.79282 -23.07906,38.45285 -41.29705,56.66666 -33.93511,33.92736 -74.08848,54.54428 -120.66316,61.95501 -12.65716,2.01395 -39.00256,3.43454 -48,2.58826 z"
         id="path11753" />
    </g>
  </g>
</svg>
