<?xml version="1.0" encoding="UTF-8" standalone="no"?>
<!-- Created with Inkscape (http://www.inkscape.org/) -->

<svg
   version="1.1"
   id="svg35394"
   width="1520"
   height="1440"
   viewBox="0 0 12160 11520"
   sodipodi:docname="chibi-eye.svg"
   inkscape:version="1.2.2 (b0a8486541, 2022-12-01)"
   xmlns:inkscape="http://www.inkscape.org/namespaces/inkscape"
   xmlns:sodipodi="http://sodipodi.sourceforge.net/DTD/sodipodi-0.dtd"
   xmlns="http://www.w3.org/2000/svg"
   xmlns:svg="http://www.w3.org/2000/svg">
  <defs
     id="defs35398" />
  <sodipodi:namedview
     id="namedview35396"
     pagecolor="#ffffff"
     bordercolor="#000000"
     borderopacity="0.25"
     inkscape:showpageshadow="2"
     inkscape:pageopacity="0.0"
     inkscape:pagecheckerboard="0"
     inkscape:deskcolor="#d1d1d1"
     showgrid="false"
     inkscape:zoom="0.089149306"
     inkscape:cx="4357.8578"
     inkscape:cy="5754.3914"
     inkscape:window-width="2560"
     inkscape:window-height="1357"
     inkscape:window-x="0"
     inkscape:window-y="0"
     inkscape:window-maximized="1"
     inkscape:current-layer="g35400" />
  <g
     inkscape:groupmode="layer"
     inkscape:label="Image"
     id="g35400">
    <path
       style="display:inline;fill:#000000;fill-opacity:0.501961;stroke-width:32"
       d="M 5236.0835,11471.553 C 4087.9968,11285.324 3039.7471,10750.637 2224.5548,9935.4451 1783.7557,9494.6461 1502.444,9102.0486 1216.0646,8528 973.85453,8042.489 839.92077,7665.3667 729.25043,7157.2595 632.94973,6715.1258 623.62602,5518.9478 713.05798,5079.8602 c 31.38189,-154.0772 66.56311,-304.9098 78.18045,-335.184 17.08311,-44.5181 3.81658,-41.4317 -69.37347,16.1398 C 524.5119,4916.0538 224,4781.8883 224,4538.5408 224,4236.2835 725.78566,3131.0142 1095.7004,2618.4704 1724.9633,1746.5809 2411.2525,1155.3596 3332.5322,691.49459 3937.375,386.95578 4460.7315,214.17793 5152,90.826214 c 322.5139,-57.550185 1533.4861,-57.550185 1856,0 691.2685,123.351716 1214.625,296.129566 1819.4678,600.668376 1188.2832,598.30131 2074.7362,1484.75471 2673.0372,2673.03761 240.853,478.3564 435.495,995.9216 435.495,1158.0086 0,57.2294 -34.31,124.6928 -93.539,183.9206 -116.456,116.4567 -273.367,125.3668 -403.609,22.9184 l -89.779,-70.6198 21.256,78.6198 c 110.273,407.8698 133.63,647.4266 132.468,1358.6202 -1.318,807.5709 -36.691,1056.8458 -239.129,1685.2595 -131.535,408.3165 -498.023,1131.297 -759.449,1498.1856 -276.827,388.5037 -836.2702,947.9469 -1224.7739,1224.7739 -581.0297,414.012 -1384.9801,766.241 -2105.7776,922.59 -410.2137,88.979 -1508.5142,114.342 -1937.584,44.744 z"
       id="path35730" />
    <path
       style="fill:#ffffff;stroke-width:32"
       d="M 5236.0835,11471.553 C 4087.9968,11285.324 3039.7471,10750.637 2224.5548,9935.4451 1783.7557,9494.6461 1502.444,9102.0486 1216.0646,8528 973.85453,8042.489 839.92077,7665.3667 729.25043,7157.2595 631.16826,6706.9469 623.50582,5516.4166 715.82941,5072 c 32.90617,-158.4 63.8511,-331.5264 68.76653,-384.7254 30.6263,-331.4653 484.65736,-1309.0621 839.18476,-1806.8902 277.029,-389.0048 867.5989,-979.5747 1256.6037,-1256.6037 C 3247.6112,1362.2608 3970.6006,995.80998 4378.7405,864.33142 5014.2253,659.61571 5254.3942,625.96531 6080,625.96531 c 825.6058,0 1065.7747,33.6504 1701.2595,238.36611 408.1399,131.47856 1131.1293,497.92938 1498.3562,759.44928 390.9475,278.4124 981.3373,869.501 1255.1183,1256.6037 347.737,491.6681 784.008,1397.1977 802.764,1666.2242 3.576,51.2954 18.152,93.2928 32.391,93.3277 14.238,0.032 18.491,12.0327 9.45,26.6611 -9.041,14.6285 14.88,169.4285 53.156,344 60.487,275.865 69.591,415.8148 69.567,1069.4026 -0.03,825.5942 -33.692,1065.8198 -238.394,1701.2595 -131.535,408.3165 -498.023,1131.297 -759.449,1498.1856 -276.827,388.5037 -836.2702,947.9469 -1224.7739,1224.7739 -581.0297,414.012 -1384.9801,766.241 -2105.7776,922.59 -410.2137,88.979 -1508.5142,114.342 -1937.584,44.744 z"
       id="path35521" />
  </g>
</svg>
