<?xml version="1.0" encoding="UTF-8" standalone="no"?>
<!-- Created with Inkscape (http://www.inkscape.org/) -->

<svg
   version="1.1"
   id="svg2"
   width="161.92"
   height="160.32001"
   viewBox="0 0 161.92 160.32001"
   sodipodi:docname="pupil.svg"
   inkscape:version="1.2.2 (b0a8486541, 2022-12-01)"
   xmlns:inkscape="http://www.inkscape.org/namespaces/inkscape"
   xmlns:sodipodi="http://sodipodi.sourceforge.net/DTD/sodipodi-0.dtd"
   xmlns="http://www.w3.org/2000/svg"
   xmlns:svg="http://www.w3.org/2000/svg">
  <defs
     id="defs6" />
  <sodipodi:namedview
     id="namedview4"
     pagecolor="#ffffff"
     bordercolor="#000000"
     borderopacity="0.25"
     inkscape:showpageshadow="2"
     inkscape:pageopacity="0.0"
     inkscape:pagecheckerboard="0"
     inkscape:deskcolor="#d1d1d1"
     showgrid="false"
     inkscape:zoom="6.4059378"
     inkscape:cx="67.281327"
     inkscape:cy="80.081951"
     inkscape:window-width="2560"
     inkscape:window-height="1357"
     inkscape:window-x="0"
     inkscape:window-y="0"
     inkscape:window-maximized="1"
     inkscape:current-layer="g8" />
  <g
     inkscape:groupmode="layer"
     inkscape:label="Image"
     id="g8"
     style="display:inline">
    <path
       style="display:inline;opacity:0.85;fill:#ffffff;fill-opacity:1;stroke:#993333;stroke-width:0.0811747;stroke-linecap:round;stroke-linejoin:round;stroke-dasharray:none;stroke-opacity:1"
       d="m 32.157665,75.157258 c -2.466896,-0.305369 -5.512329,-1.460104 -6.425554,-2.436376 -1.364714,-1.458929 -2.586772,-5.473006 -3.279476,-10.772049 -0.470745,-3.6011 -0.51017,-9.760659 -0.07528,-11.761022 0.872295,-4.01228 2.41214,-6.782199 7.383379,-13.281443 2.989434,-3.908292 5.003812,-6.136963 7.000033,-7.744709 2.357715,-1.898892 9.313986,-6.435791 11.01289,-7.182638 1.791334,-0.78748 3.446822,-0.834929 6.613698,-0.189561 2.094433,0.426818 3.544752,1.013234 5.281345,2.135436 0.795559,0.514098 1.938238,1.181455 2.539283,1.483016 2.096806,1.052024 3.655501,2.458448 4.446748,4.012341 0.322769,0.633869 0.353058,0.895076 0.334886,2.887945 -0.01989,2.181726 -0.190234,5.182378 -0.496572,8.747461 -0.562614,6.547566 -1.536404,11.249973 -3.814561,18.42041 -0.545567,1.717157 -1.138465,3.622767 -1.317551,4.23469 -1.039306,3.551213 -3.398748,5.977445 -7.886444,8.109691 -3.082317,1.464507 -6.955557,2.574418 -10.857779,3.111392 -2.130219,0.293133 -8.758035,0.435977 -10.459045,0.225416 z"
       id="path9685" />
    <path
       style="display:inline;opacity:0.85;fill:#ffffff;fill-opacity:1;stroke:#993333;stroke-width:0.0811747;stroke-linecap:round;stroke-linejoin:round;stroke-dasharray:none;stroke-opacity:1"
       d="m 124.54552,108.73319 c -1.94753,-0.35418 -3.71976,-1.09606 -4.91751,-2.05854 -3.05776,-2.45711 -5.04341,-4.29401 -6.04974,-5.59655 -0.85292,-1.103967 -3.69748,-5.897666 -4.37475,-7.372387 -0.28677,-0.624441 -0.60443,-1.541148 -0.7059,-2.037125 -0.16459,-0.80447 -0.15292,-0.955856 0.10821,-1.402961 0.16099,-0.275652 0.63582,-0.71282 1.05519,-0.971486 0.73845,-0.455479 0.81939,-0.469774 2.56814,-0.453609 2.9153,0.02695 6.7141,0.984939 9.53287,2.40402 3.60842,1.816621 8.29661,5.584417 9.71057,7.804177 1.09467,1.718511 1.4172,4.613441 0.68837,6.178651 -0.53502,1.14899 -2.09743,2.75728 -3.10088,3.19194 -0.9142,0.396 -3.19215,0.55438 -4.51457,0.31387 z"
       id="path9687" />
    <path
       style="display:inline;opacity:0.85;fill:#ffffff;fill-opacity:1;stroke:#993333;stroke-width:0.0811747;stroke-linecap:round;stroke-linejoin:round;stroke-dasharray:none;stroke-opacity:1"
       d="m 117.74572,121.75938 c -1.31713,-0.66514 -2.42497,-2.36074 -2.73802,-4.19065 -0.14443,-0.84424 -0.12635,-1.04303 0.15203,-1.67188 0.22649,-0.51161 0.47227,-0.7879 0.86796,-0.97566 2.03948,-0.9678 5.79069,1.13208 5.7618,3.22538 -0.011,0.8005 -0.91462,2.65546 -1.6308,3.34791 -0.73739,0.71294 -1.38496,0.78403 -2.41297,0.2649 z"
       id="path9689" />
    <path
       style="display:inline;fill:#aaa3b3;fill-opacity:1;stroke-width:0.32"
       d="m 79.52,151.02328 c -9.227683,-0.26823 -12.841757,-0.7524 -16.48,-2.20778 -1.672,-0.66884 -3.816134,-1.38074 -4.764739,-1.582 -0.948608,-0.20126 -2.172608,-0.56719 -2.72,-0.81317 -0.547395,-0.24599 -1.571261,-0.62142 -2.275261,-0.83428 -3.374138,-1.02024 -4.567635,-1.65545 -10.297571,-5.48065 -3.381907,-2.25769 -6.508291,-4.42901 -6.947527,-4.82515 -0.439232,-0.39613 -1.409158,-1.22424 -2.155388,-1.84024 -0.746231,-0.616 -1.654397,-1.47359 -2.018148,-1.90574 -0.987732,-1.17348 -3.828033,-3.84861 -4.089442,-3.85163 -0.125442,-0.002 -0.810249,-0.85992 -1.521794,-1.90771 -0.711544,-1.0478 -1.79691,-2.28889 -2.411923,-2.75798 -0.615014,-0.4691 -1.118207,-1.12381 -1.118207,-1.45492 0,-0.33111 -0.133542,-0.60202 -0.296761,-0.60202 -0.163219,0 -0.686926,-0.828 -1.163794,-1.84 -0.476868,-1.012 -1.275509,-2.4364 -1.774759,-3.16533 -0.499249,-0.72894 -1.220211,-2.16053 -1.602138,-3.18132 -0.765978,-2.04726 -2.331545,-4.69769 -2.610234,-4.419 -0.09774,0.0977 -0.561099,-1.09401 -1.029691,-2.64832 -0.468592,-1.55432 -1.056879,-3.44307 -1.307304,-4.19722 C 12.684893,100.75467 12.48,99.690547 12.48,99.144102 c 0,-0.546448 -0.201207,-1.153414 -0.447127,-1.348819 -0.566684,-0.450275 -1.700712,-5.441856 -2.1660612,-9.534225 -0.2355097,-2.071113 -0.4907136,-3.141053 -0.7492099,-3.141053 -0.858096,0 -0.6855891,-15.006781 0.1759539,-15.306666 C 9.4621002,69.75467 9.6,69.223169 9.6,68.632222 c 0,-0.590944 0.1624346,-1.174839 0.3609658,-1.297536 0.2394502,-0.147987 0.2949642,-0.85456 0.1649062,-2.098887 -0.107833,-1.031686 -0.07106,-1.875795 0.08171,-1.875795 0.152775,0 0.353086,-0.288 0.445136,-0.64 0.09205,-0.352 0.07284,-0.640211 -0.04268,-0.640471 -0.115523,-2.56e-4 -0.250342,-0.587411 -0.299596,-1.304787 -0.05718,-0.832787 0.02959,-1.230691 0.24,-1.100646 0.181254,0.112019 0.329554,0.555177 0.329554,0.98479 0,0.429613 0.127205,0.781114 0.282678,0.781114 0.443206,0 0.619575,-1.094851 0.437125,-2.713546 -0.147498,-1.308598 -0.08839,-1.504125 0.501337,-1.658342 0.618986,-0.161869 0.654008,-0.330557 0.472396,-2.275396 -0.176147,-1.886317 -0.140918,-2.079373 0.345399,-1.892755 0.651034,0.249827 1.161065,-0.857504 1.161065,-2.520794 0,-0.763706 0.146495,-1.099168 0.48,-1.099168 0.264,0 0.48,-0.196579 0.48,-0.436845 0,-0.240265 0.285588,-0.79991 0.63464,-1.243661 0.633657,-0.805564 0.633621,-0.808108 -0.02323,-1.643155 -0.546697,-0.695011 -0.572828,-0.836339 -0.15464,-0.836339 0.276774,0 0.503226,0.188477 0.503226,0.418838 0,0.230362 0.206609,0.698362 0.459132,1.04 0.437334,0.591674 0.482909,0.564192 0.96,-0.578838 0.427676,-1.024643 1.195873,-2.759252 1.736032,-3.92 0.0819,-0.176 -0.0905,-0.122368 -0.383125,0.11918 -0.457897,0.377981 -0.532039,0.366832 -0.532039,-0.08 0,-0.334182 0.272698,-0.51918 0.765309,-0.51918 0.549454,0 0.821942,-0.225642 0.966097,-0.8 0.110433,-0.44 0.342044,-0.800001 0.514691,-0.800001 0.172646,0 0.313903,-0.216 0.313903,-0.48 0,-0.264 0.144,-0.48 0.32,-0.48 0.176,0 0.32,-0.198505 0.32,-0.44112 0,-0.242617 0.864,-1.567961 1.92,-2.945213 1.056,-1.377251 1.92,-2.678749 1.92,-2.892214 0,-0.213466 0.18,-0.460752 0.4,-0.549523 0.32,-0.129124 0.32,-0.166455 0,-0.186666 -0.22,-0.01389 -0.4,-0.175577 -0.4,-0.359292 0,-0.183715 0.195737,-0.291715 0.434971,-0.24 0.43312,0.09363 4.685029,-4.07547 4.685029,-4.593783 0,-0.149704 0.160236,-0.272189 0.356081,-0.272189 0.195845,0 0.807845,-0.363527 1.359999,-0.807838 2.671632,-2.14982 6.614499,-4.926084 7.744154,-5.45284 C 40.553104,19.976239 41.984,19.194938 43.04,18.563098 51.297747,13.622218 71.197248,8.2919567 81.28,8.3201676 82.776,8.3243532 87.6,8.7449612 92,9.2548521 l 8,0.9270739 7.84,2.882918 c 4.312,1.585605 8.96672,3.525774 10.34382,4.311486 3.77649,2.154692 9.46379,6.360459 9.68302,7.160612 0.10504,0.383317 2.19246,2.590385 4.63872,4.904597 2.60303,2.462515 4.67157,4.695158 4.98738,5.383058 0.70424,1.533981 0.73035,1.558314 1.07956,1.006138 0.22758,-0.359866 0.29885,-0.271642 0.3026,0.374576 0.004,0.632762 0.20606,0.895799 0.8049,1.046096 0.63717,0.159923 0.8,0.401818 0.8,1.188499 0,0.586692 0.32481,1.373719 0.8,1.938455 0.58947,0.700538 0.8,1.323248 0.8,2.366195 0,0.778496 0.14556,1.415447 0.32348,1.415447 0.17791,0 0.71791,0.828 1.2,1.84 0.48208,1.012 0.95471,1.912 1.05028,2 0.0956,0.088 0.57973,1.024 1.07593,2.08 0.49619,1.056 1.0068,2.136 1.13469,2.4 0.37725,0.778759 1.19872,3.811415 1.77694,6.560001 0.2962,1.408 0.65815,3.064 0.80433,3.68 0.14619,0.616 0.48892,2.056 0.76162,3.2 0.27271,1.144 0.66441,2.872 0.87046,3.84 0.20604,0.968 0.71384,3.107764 1.12845,4.755034 0.4146,1.647268 0.75726,3.735268 0.76146,4.640001 0.004,0.904729 0.14182,2.220966 0.30583,2.924966 0.18804,0.807159 0.18522,1.319405 -0.008,1.386666 -0.16821,0.05867 -0.30583,0.382669 -0.30583,0.72 0,0.337334 -0.15575,0.613334 -0.3461,0.613334 -0.23533,0 -0.31214,1.280311 -0.24,4.000445 0.085,3.203418 0.0198,4.000359 -0.32721,4.000001 -0.3472,-3.2e-4 -0.38827,0.508278 -0.20669,2.559555 0.21441,2.422205 0.19216,2.56 -0.41339,2.56 -0.56779,0 -0.66557,0.288871 -0.86661,2.560004 -0.19653,2.22013 -0.30716,2.56 -0.83331,2.56 -0.49448,0 -0.60669,0.23675 -0.60669,1.28 0,0.86775 -0.14059,1.28 -0.43651,1.28 -0.27323,0 -0.50862,0.52617 -0.62932,1.40675 -0.25304,1.84615 -1.12,3.62444 -1.86155,3.81836 -0.41734,0.10913 -0.59262,0.45074 -0.59262,1.15497 0,0.5937 -0.19503,1.07484 -0.48,1.1842 -0.264,0.1013 -0.48,0.52878 -0.48,0.94995 0,0.42117 -0.28436,1.05012 -0.6319,1.39766 -0.34754,0.34755 -1.12824,1.60755 -1.73487,2.8 -0.63334,1.24495 -1.86001,2.9175 -2.88091,3.92811 -0.97786,0.968 -1.78117,2.00182 -1.78513,2.29739 -0.004,0.29556 -0.88052,1.44756 -1.94791,2.56 -1.06739,1.11243 -2.08261,2.27864 -2.25605,2.59157 -0.17344,0.31293 -0.43288,0.49632 -0.57652,0.40755 -0.14365,-0.0888 -0.51874,0.12318 -0.83354,0.47103 -0.31482,0.34785 -0.76606,0.63246 -1.00279,0.63246 -0.23672,0 -0.4304,0.27308 -0.4304,0.60685 0,0.63781 -1.12908,1.68858 -3.81794,3.55315 -0.88832,0.616 -1.61669,1.23454 -1.61859,1.37454 -0.006,0.45426 -1.56026,1.82546 -2.06893,1.82546 -0.272,0 -0.49454,0.11833 -0.49454,0.26296 0,0.14462 -0.70681,0.58239 -1.57068,0.97281 -0.86388,0.39043 -1.65136,0.92009 -1.74996,1.17704 -0.0986,0.25696 -0.54379,0.46719 -0.98932,0.46719 -0.44552,0 -0.81004,0.14193 -0.81004,0.31539 0,0.41695 -3.64038,2.24461 -4.47087,2.24461 -0.35702,0 -0.64913,0.12393 -0.64913,0.27541 0,0.43006 -3.68024,2.28459 -4.53368,2.28459 -0.42025,0 -0.99379,0.26827 -1.27453,0.59616 -0.5169,0.60369 -6.718763,2.28384 -8.430248,2.28384 -0.46599,0 -1.063257,0.216 -1.327257,0.48 -0.291786,0.29178 -1.075373,0.48 -1.998371,0.48 -0.835104,0 -2.30082,0.13286 -3.257143,0.29525 -2.640809,0.44841 -5.316384,0.52168 -11.978771,0.32802 z m 40.77158,-29.46649 c 0.86058,-0.92372 1.62842,-2.6016 1.62842,-3.55842 0,-0.98616 -1.25928,-2.36866 -2.70948,-2.97459 -3.23343,-1.35101 -5.14751,0.33766 -4.05171,3.57455 1.02394,3.02464 3.65713,4.54238 5.13277,2.95846 z m 9.35843,-13.29502 c 0.54102,-0.31997 1.43509,-1.20793 1.98683,-1.97325 0.86673,-1.20225 1.00253,-1.65921 0.99854,-3.36 -0.007,-2.993861 -1.28887,-4.985499 -5.19358,-8.069372 -4.00358,-3.161949 -7.34768,-4.835942 -11.21463,-5.61383 -4.41642,-0.888423 -5.92746,-0.820848 -7.11957,0.3184 -0.93798,0.896387 -0.95636,0.969744 -0.6214,2.48 0.18985,0.855958 0.95012,2.538291 1.68949,3.738515 0.73937,1.200227 1.59158,2.631632 1.8938,3.180903 1.13006,2.053834 2.48371,3.643394 4.42559,5.196874 1.10002,0.88 2.30264,1.90209 2.67248,2.27132 2.32281,2.31895 7.98476,3.30764 10.48245,1.83044 z M 40.64,75.216046 c 6.956106,-0.54591 13.997475,-3.056448 17.535933,-6.252282 1.866864,-1.686096 2.720768,-3.116259 3.387766,-5.674 0.242355,-0.92937 0.870144,-2.91376 1.395088,-4.40976 0.524941,-1.496 1.276205,-4.160001 1.669475,-5.920001 0.393268,-1.76 0.913828,-4.064 1.156794,-5.12 0.597402,-2.596458 1.584115,-16.014901 1.290432,-17.548728 -0.318435,-1.663093 -2.322918,-3.772697 -4.606531,-4.848109 -1.005927,-0.473716 -2.313955,-1.228515 -2.90673,-1.67733 -1.552352,-1.175349 -3.909997,-1.987149 -6.837024,-2.354167 -3.812953,-0.478104 -4.44815,-0.228739 -11.774637,4.622471 -5.034963,3.333886 -7.130537,5.289649 -10.454439,9.756953 -1.525974,2.0509 -2.862251,3.800909 -2.969503,3.888909 -0.107252,0.088 -0.797021,1.071025 -1.532821,2.184497 -4.1883,6.33808 -4.864063,10.669527 -3.398869,21.785764 0.473627,3.593338 1.820302,7.73202 2.951309,9.070132 0.842661,0.996966 3.815337,2.167763 6.21169,2.44649 3.215283,0.373981 4.642457,0.381881 8.882067,0.04916 z M 17.28,44.498889 c 0,-0.165613 0.142351,-0.389094 0.316335,-0.496621 0.181395,-0.112108 0.235042,0.01635 0.125763,0.301114 C 17.509365,44.857756 17.28,44.959187 17.28,44.498889 Z M 60.4,9.7080707 c 0.22,-0.088772 0.58,-0.088772 0.8,0 0.22,0.088772 0.04,0.1614035 -0.4,0.1614035 -0.44,0 -0.62,-0.072631 -0.4,-0.1614035 z m 3.54,-0.6466666 c 0.230998,-0.092439 0.506998,-0.08107 0.613334,0.025264 0.106333,0.1063334 -0.08267,0.1819651 -0.42,0.1680704 C 63.76055,9.2393849 63.684726,9.1635574 63.94,9.0614041 Z"
       id="path9545" />
    <path
       style="display:inline;fill:#cc3333;fill-opacity:1;stroke-width:0.32"
       d="m 79.52,151.02328 c -9.227683,-0.26823 -12.841757,-0.7524 -16.48,-2.20778 -1.672,-0.66884 -3.816134,-1.38074 -4.764739,-1.582 -0.948608,-0.20126 -2.172608,-0.56719 -2.72,-0.81317 -0.547395,-0.24599 -1.571261,-0.62142 -2.275261,-0.83428 -3.374138,-1.02024 -4.567635,-1.65545 -10.297571,-5.48065 -3.381907,-2.25769 -6.508291,-4.42901 -6.947527,-4.82515 -0.439232,-0.39613 -1.409158,-1.22424 -2.155388,-1.84024 -0.746231,-0.616 -1.654397,-1.47359 -2.018148,-1.90574 -0.987732,-1.17348 -3.828033,-3.84861 -4.089442,-3.85163 -0.125442,-0.002 -0.810249,-0.85992 -1.521794,-1.90771 -0.711544,-1.0478 -1.79691,-2.28889 -2.411923,-2.75798 -0.615014,-0.4691 -1.118207,-1.12381 -1.118207,-1.45492 0,-0.33111 -0.133542,-0.60202 -0.296761,-0.60202 -0.163219,0 -0.686926,-0.828 -1.163794,-1.84 -0.476868,-1.012 -1.275509,-2.4364 -1.774759,-3.16533 -0.499249,-0.72894 -1.220211,-2.16053 -1.602138,-3.18132 -0.765978,-2.04726 -2.331545,-4.69769 -2.610234,-4.419 -0.09774,0.0977 -0.561099,-1.09401 -1.029691,-2.64832 -0.468592,-1.55432 -1.056879,-3.44307 -1.307304,-4.19722 C 12.684893,100.75467 12.48,99.690547 12.48,99.144102 c 0,-0.546448 -0.201207,-1.153414 -0.447127,-1.348819 -0.566684,-0.450275 -1.700712,-5.441856 -2.1660612,-9.534225 -0.2355097,-2.071113 -0.4907136,-3.141053 -0.7492099,-3.141053 -0.858096,0 -0.6855891,-15.006781 0.1759539,-15.306666 C 9.4621002,69.75467 9.6,69.223169 9.6,68.632222 c 0,-0.590944 0.1624346,-1.174839 0.3609658,-1.297536 0.2394502,-0.147987 0.2949642,-0.85456 0.1649062,-2.098887 -0.107833,-1.031686 -0.07106,-1.875795 0.08171,-1.875795 0.152775,0 0.353086,-0.288 0.445136,-0.64 0.09205,-0.352 0.07284,-0.640211 -0.04268,-0.640471 -0.115523,-2.56e-4 -0.250342,-0.587411 -0.299596,-1.304787 -0.05718,-0.832787 0.02959,-1.230691 0.24,-1.100646 0.181254,0.112019 0.329554,0.555177 0.329554,0.98479 0,0.429613 0.127205,0.781114 0.282678,0.781114 0.443206,0 0.619575,-1.094851 0.437125,-2.713546 -0.147498,-1.308598 -0.08839,-1.504125 0.501337,-1.658342 0.618986,-0.161869 0.654008,-0.330557 0.472396,-2.275396 -0.176147,-1.886317 -0.140918,-2.079373 0.345399,-1.892755 0.651034,0.249827 1.161065,-0.857504 1.161065,-2.520794 0,-0.763706 0.146495,-1.099168 0.48,-1.099168 0.264,0 0.48,-0.196579 0.48,-0.436845 0,-0.240265 0.285588,-0.79991 0.63464,-1.243661 0.633657,-0.805564 0.633621,-0.808108 -0.02323,-1.643155 -0.546697,-0.695011 -0.572828,-0.836339 -0.15464,-0.836339 0.276774,0 0.503226,0.188477 0.503226,0.418838 0,0.230362 0.206609,0.698362 0.459132,1.04 0.437334,0.591674 0.482909,0.564192 0.96,-0.578838 0.427676,-1.024643 1.195873,-2.759252 1.736032,-3.92 0.0819,-0.176 -0.0905,-0.122368 -0.383125,0.11918 -0.457897,0.377981 -0.532039,0.366832 -0.532039,-0.08 0,-0.334182 0.272698,-0.51918 0.765309,-0.51918 0.549454,0 0.821942,-0.225642 0.966097,-0.8 0.110433,-0.44 0.342044,-0.800001 0.514691,-0.800001 0.172646,0 0.313903,-0.216 0.313903,-0.48 0,-0.264 0.144,-0.48 0.32,-0.48 0.176,0 0.32,-0.198505 0.32,-0.44112 0,-0.242617 0.864,-1.567961 1.92,-2.945213 1.056,-1.377251 1.92,-2.678749 1.92,-2.892214 0,-0.213466 0.18,-0.460752 0.4,-0.549523 0.32,-0.129124 0.32,-0.166455 0,-0.186666 -0.22,-0.01389 -0.4,-0.175577 -0.4,-0.359292 0,-0.183715 0.195737,-0.291715 0.434971,-0.24 0.43312,0.09363 4.685029,-4.07547 4.685029,-4.593783 0,-0.149704 0.160236,-0.272189 0.356081,-0.272189 0.195845,0 0.807845,-0.363527 1.359999,-0.807838 2.671632,-2.14982 6.614499,-4.926084 7.744154,-5.45284 C 40.553104,19.976239 41.984,19.194938 43.04,18.563098 51.297747,13.622218 71.197248,8.2919567 81.28,8.3201676 82.776,8.3243532 87.6,8.7449612 92,9.2548521 l 8,0.9270739 7.84,2.882918 c 4.312,1.585605 8.96672,3.525774 10.34382,4.311486 3.77649,2.154692 9.46379,6.360459 9.68302,7.160612 0.10504,0.383317 2.19246,2.590385 4.63872,4.904597 2.60303,2.462515 4.67157,4.695158 4.98738,5.383058 0.70424,1.533981 0.73035,1.558314 1.07956,1.006138 0.22758,-0.359866 0.29885,-0.271642 0.3026,0.374576 0.004,0.632762 0.20606,0.895799 0.8049,1.046096 0.63717,0.159923 0.8,0.401818 0.8,1.188499 0,0.586692 0.32481,1.373719 0.8,1.938455 0.58947,0.700538 0.8,1.323248 0.8,2.366195 0,0.778496 0.14556,1.415447 0.32348,1.415447 0.17791,0 0.71791,0.828 1.2,1.84 0.48208,1.012 0.95471,1.912 1.05028,2 0.0956,0.088 0.57973,1.024 1.07593,2.08 0.49619,1.056 1.0068,2.136 1.13469,2.4 0.37725,0.778759 1.19872,3.811415 1.77694,6.560001 0.2962,1.408 0.65815,3.064 0.80433,3.68 0.14619,0.616 0.48892,2.056 0.76162,3.2 0.27271,1.144 0.66441,2.872 0.87046,3.84 0.20604,0.968 0.71384,3.107764 1.12845,4.755034 0.4146,1.647268 0.75726,3.735268 0.76146,4.640001 0.004,0.904729 0.14182,2.220966 0.30583,2.924966 0.18804,0.807159 0.18522,1.319405 -0.008,1.386666 -0.16821,0.05867 -0.30583,0.382669 -0.30583,0.72 0,0.337334 -0.15575,0.613334 -0.3461,0.613334 -0.23533,0 -0.31214,1.280311 -0.24,4.000445 0.085,3.203418 0.0198,4.000359 -0.32721,4.000001 -0.3472,-3.2e-4 -0.38827,0.508278 -0.20669,2.559555 0.21441,2.422205 0.19216,2.56 -0.41339,2.56 -0.56779,0 -0.66557,0.288871 -0.86661,2.560004 -0.19653,2.22013 -0.30716,2.56 -0.83331,2.56 -0.49448,0 -0.60669,0.23675 -0.60669,1.28 0,0.86775 -0.14059,1.28 -0.43651,1.28 -0.27323,0 -0.50862,0.52617 -0.62932,1.40675 -0.25304,1.84615 -1.12,3.62444 -1.86155,3.81836 -0.41734,0.10913 -0.59262,0.45074 -0.59262,1.15497 0,0.5937 -0.19503,1.07484 -0.48,1.1842 -0.264,0.1013 -0.48,0.52878 -0.48,0.94995 0,0.42117 -0.28436,1.05012 -0.6319,1.39766 -0.34754,0.34755 -1.12824,1.60755 -1.73487,2.8 -0.63334,1.24495 -1.86001,2.9175 -2.88091,3.92811 -0.97786,0.968 -1.78117,2.00182 -1.78513,2.29739 -0.004,0.29556 -0.88052,1.44756 -1.94791,2.56 -1.06739,1.11243 -2.08261,2.27864 -2.25605,2.59157 -0.17344,0.31293 -0.43288,0.49632 -0.57652,0.40755 -0.14365,-0.0888 -0.51874,0.12318 -0.83354,0.47103 -0.31482,0.34785 -0.76606,0.63246 -1.00279,0.63246 -0.23672,0 -0.4304,0.27308 -0.4304,0.60685 0,0.63781 -1.12908,1.68858 -3.81794,3.55315 -0.88832,0.616 -1.61669,1.23454 -1.61859,1.37454 -0.006,0.45426 -1.56026,1.82546 -2.06893,1.82546 -0.272,0 -0.49454,0.11833 -0.49454,0.26296 0,0.14462 -0.70681,0.58239 -1.57068,0.97281 -0.86388,0.39043 -1.65136,0.92009 -1.74996,1.17704 -0.0986,0.25696 -0.54379,0.46719 -0.98932,0.46719 -0.44552,0 -0.81004,0.14193 -0.81004,0.31539 0,0.41695 -3.64038,2.24461 -4.47087,2.24461 -0.35702,0 -0.64913,0.12393 -0.64913,0.27541 0,0.43006 -3.68024,2.28459 -4.53368,2.28459 -0.42025,0 -0.99379,0.26827 -1.27453,0.59616 -0.5169,0.60369 -6.718763,2.28384 -8.430248,2.28384 -0.46599,0 -1.063257,0.216 -1.327257,0.48 -0.291786,0.29178 -1.075373,0.48 -1.998371,0.48 -0.835104,0 -2.30082,0.13286 -3.257143,0.29525 -2.640809,0.44841 -5.316384,0.52168 -11.978771,0.32802 z m 41.38118,-28.38327 c 1.86334,-1.60022 2.55059,-5.09823 1.33659,-6.80314 -0.89981,-1.26366 -3.06978,-2.23686 -4.9876,-2.23686 -1.91234,0 -2.83381,0.576 -3.33086,2.0821 -0.41794,1.26636 -0.2293,2.49177 0.73263,4.75913 0.52877,1.24637 0.9251,1.68056 1.9652,2.15297 1.65362,0.75106 3.44057,0.77016 4.28404,0.0458 z M 129.12,109.72546 c 1.65172,-0.4529 3.87141,-2.78179 4.35506,-4.56932 0.56656,-2.09394 0.17977,-4.70275 -1.00402,-6.771788 -0.77402,-1.352848 -1.83066,-2.440234 -4.22406,-4.346983 -5.45603,-4.346637 -9.55446,-5.988877 -15.60698,-6.253712 -2.62864,-0.115021 -3.17838,-0.0465 -4.06264,0.5064 -1.24516,0.778563 -1.56568,2.088902 -1.06089,4.337158 0.38751,1.725924 2.90035,6.348154 4.94733,9.100345 1.47831,1.9876 5.85142,5.88669 7.61641,6.79084 2.74379,1.40555 6.49107,1.90592 9.03979,1.20706 z M 40.580035,76.147051 c 3.841248,-0.272121 5.352301,-0.535219 8.270355,-1.44 1.963716,-0.608877 3.736781,-1.107046 3.940144,-1.107046 1.028432,0 4.158778,-1.971748 6.077328,-3.827997 1.718477,-1.662673 2.326215,-2.518871 2.961335,-4.172004 3.105363,-8.082871 5.153312,-16.970315 5.862182,-25.440001 0.597082,-7.134046 0.589229,-9.777255 -0.03349,-11.273526 C 67.041184,27.40468 64.524125,25.268645 61.872483,23.976853 60.786125,23.447615 59.72959,22.812544 59.524634,22.565585 59.014525,21.950942 54.646909,20.575242 52.400768,20.321728 50.35177,20.090466 47.848154,20.664754 45.827184,21.8296 45.174234,22.205948 43.848,22.946695 42.88,23.475703 c -3.281613,1.793389 -6.597894,4.328951 -9.143936,6.991268 -4.560389,4.768657 -9.364699,11.406177 -10.849523,14.989441 -0.470308,1.134973 -1.122324,2.639591 -1.448925,3.343591 -1.182097,2.548055 -1.149577,4.970205 0.208023,15.493572 0.498721,3.865808 1.440076,6.630884 2.943468,8.64594 1.151133,1.542915 1.549808,1.83096 3.410893,2.464403 3.008015,1.023818 6.067066,1.204522 12.580035,0.743133 z M 17.28,44.498889 c 0,-0.165613 0.142351,-0.389094 0.316335,-0.496621 0.181395,-0.112108 0.235042,0.01635 0.125763,0.301114 C 17.509365,44.857756 17.28,44.959187 17.28,44.498889 Z M 60.4,9.7080707 c 0.22,-0.088772 0.58,-0.088772 0.8,0 0.22,0.088772 0.04,0.1614035 -0.4,0.1614035 -0.44,0 -0.62,-0.072631 -0.4,-0.1614035 z m 3.54,-0.6466666 c 0.230998,-0.092439 0.506998,-0.08107 0.613334,0.025264 0.106333,0.1063334 -0.08267,0.1819651 -0.42,0.1680704 C 63.76055,9.2393849 63.684726,9.1635574 63.94,9.0614041 Z"
       id="path9336" />
    <path
       style="display:inline;fill:#993333;fill-opacity:1;stroke:#993333;stroke-width:0.52;stroke-dasharray:none;stroke-opacity:1"
       d="m 79.52,151.02328 c -9.227683,-0.26823 -12.841757,-0.7524 -16.48,-2.20778 -1.672,-0.66884 -3.816134,-1.38074 -4.764739,-1.582 -0.948608,-0.20126 -2.172608,-0.56719 -2.72,-0.81317 -0.547395,-0.24599 -1.571261,-0.62142 -2.275261,-0.83428 -3.374138,-1.02024 -4.567635,-1.65545 -10.297571,-5.48065 -3.381907,-2.25769 -6.508291,-4.42901 -6.947527,-4.82515 -0.439232,-0.39613 -1.409158,-1.22424 -2.155388,-1.84024 -0.746231,-0.616 -1.654397,-1.47359 -2.018148,-1.90574 -0.987732,-1.17348 -3.828033,-3.84861 -4.089442,-3.85163 -0.125442,-0.002 -0.810249,-0.85992 -1.521794,-1.90771 -0.711544,-1.0478 -1.79691,-2.28889 -2.411923,-2.75798 -0.615014,-0.4691 -1.118207,-1.12381 -1.118207,-1.45492 0,-0.33111 -0.133542,-0.60202 -0.296761,-0.60202 -0.163219,0 -0.686926,-0.828 -1.163794,-1.84 -0.476868,-1.012 -1.275509,-2.4364 -1.774759,-3.16533 -0.499249,-0.72894 -1.220211,-2.16053 -1.602138,-3.18132 -0.765978,-2.04726 -2.331545,-4.69769 -2.610234,-4.419 -0.09774,0.0977 -0.561099,-1.09401 -1.029691,-2.64832 -0.468592,-1.55432 -1.056879,-3.44307 -1.307304,-4.19722 C 12.684893,100.75467 12.48,99.690547 12.48,99.144102 c 0,-0.546448 -0.201207,-1.153414 -0.447127,-1.348819 -0.566684,-0.450275 -1.700712,-5.441856 -2.1660612,-9.534225 -0.2355097,-2.071113 -0.4907136,-3.141053 -0.7492099,-3.141053 -0.858096,0 -0.6855891,-15.006781 0.1759539,-15.306666 C 9.4621002,69.75467 9.6,69.223169 9.6,68.632222 c 0,-0.590944 0.1624346,-1.174839 0.3609658,-1.297536 0.2394502,-0.147987 0.2949642,-0.85456 0.1649062,-2.098887 -0.107833,-1.031686 -0.07106,-1.875795 0.08171,-1.875795 0.152775,0 0.353086,-0.288 0.445136,-0.64 0.09205,-0.352 0.07284,-0.640211 -0.04268,-0.640471 -0.115523,-2.56e-4 -0.250342,-0.587411 -0.299596,-1.304787 -0.05718,-0.832787 0.02959,-1.230691 0.24,-1.100646 0.181254,0.112019 0.329554,0.555177 0.329554,0.98479 0,0.429613 0.127205,0.781114 0.282678,0.781114 0.443206,0 0.619575,-1.094851 0.437125,-2.713546 -0.147498,-1.308598 -0.08839,-1.504125 0.501337,-1.658342 0.618986,-0.161869 0.654008,-0.330557 0.472396,-2.275396 -0.176147,-1.886317 -0.140918,-2.079373 0.345399,-1.892755 0.651034,0.249827 1.161065,-0.857504 1.161065,-2.520794 0,-0.763706 0.146495,-1.099168 0.48,-1.099168 0.264,0 0.48,-0.196579 0.48,-0.436845 0,-0.240265 0.285588,-0.79991 0.63464,-1.243661 0.633657,-0.805564 0.633621,-0.808108 -0.02323,-1.643155 -0.546697,-0.695011 -0.572828,-0.836339 -0.15464,-0.836339 0.276774,0 0.503226,0.188477 0.503226,0.418838 0,0.230362 0.206609,0.698362 0.459132,1.04 0.437334,0.591674 0.482909,0.564192 0.96,-0.578838 0.427676,-1.024643 1.195873,-2.759252 1.736032,-3.92 0.0819,-0.176 -0.0905,-0.122368 -0.383125,0.11918 -0.457897,0.377981 -0.532039,0.366832 -0.532039,-0.08 0,-0.334182 0.272698,-0.51918 0.765309,-0.51918 0.549454,0 0.821942,-0.225642 0.966097,-0.8 0.110433,-0.44 0.342044,-0.800001 0.514691,-0.800001 0.172646,0 0.313903,-0.216 0.313903,-0.48 0,-0.264 0.144,-0.48 0.32,-0.48 0.176,0 0.32,-0.198505 0.32,-0.44112 0,-0.242617 0.864,-1.567961 1.92,-2.945213 1.056,-1.377251 1.92,-2.678749 1.92,-2.892214 0,-0.213466 0.18,-0.460752 0.4,-0.549523 0.32,-0.129124 0.32,-0.166455 0,-0.186666 -0.22,-0.01389 -0.4,-0.175577 -0.4,-0.359292 0,-0.183715 0.195737,-0.291715 0.434971,-0.24 0.43312,0.09363 4.685029,-4.07547 4.685029,-4.593783 0,-0.149704 0.160236,-0.272189 0.356081,-0.272189 0.195845,0 0.807845,-0.363527 1.359999,-0.807838 2.671632,-2.14982 6.614499,-4.926084 7.744154,-5.45284 C 40.553104,19.976239 41.984,19.194938 43.04,18.563098 51.297747,13.622218 71.197248,8.2919567 81.28,8.3201676 82.776,8.3243532 87.6,8.7449612 92,9.2548521 l 8,0.9270739 7.84,2.882918 c 4.312,1.585605 8.96672,3.525774 10.34382,4.311486 3.77649,2.154692 9.46379,6.360459 9.68302,7.160612 0.10504,0.383317 2.19246,2.590385 4.63872,4.904597 2.60303,2.462515 4.67157,4.695158 4.98738,5.383058 0.70424,1.533981 0.73035,1.558314 1.07956,1.006138 0.22758,-0.359866 0.29885,-0.271642 0.3026,0.374576 0.004,0.632762 0.20606,0.895799 0.8049,1.046096 0.63717,0.159923 0.8,0.401818 0.8,1.188499 0,0.586692 0.32481,1.373719 0.8,1.938455 0.58947,0.700538 0.8,1.323248 0.8,2.366195 0,0.778496 0.14556,1.415447 0.32348,1.415447 0.17791,0 0.71791,0.828 1.2,1.84 0.48208,1.012 0.95471,1.912 1.05028,2 0.0956,0.088 0.57973,1.024 1.07593,2.08 0.49619,1.056 1.0068,2.136 1.13469,2.4 0.37725,0.778759 1.19872,3.811415 1.77694,6.560001 0.2962,1.408 0.65815,3.064 0.80433,3.68 0.14619,0.616 0.48892,2.056 0.76162,3.2 0.27271,1.144 0.66441,2.872 0.87046,3.84 0.20604,0.968 0.71384,3.107764 1.12845,4.755034 0.4146,1.647268 0.75726,3.735268 0.76146,4.640001 0.004,0.904729 0.14182,2.220966 0.30583,2.924966 0.18804,0.807159 0.18522,1.319405 -0.008,1.386666 -0.16821,0.05867 -0.30583,0.382669 -0.30583,0.72 0,0.337334 -0.15575,0.613334 -0.3461,0.613334 -0.23533,0 -0.31214,1.280311 -0.24,4.000445 0.085,3.203418 0.0198,4.000359 -0.32721,4.000001 -0.3472,-3.2e-4 -0.38827,0.508278 -0.20669,2.559555 0.21441,2.422205 0.19216,2.56 -0.41339,2.56 -0.56779,0 -0.66557,0.288871 -0.86661,2.560004 -0.19653,2.22013 -0.30716,2.56 -0.83331,2.56 -0.49448,0 -0.60669,0.23675 -0.60669,1.28 0,0.86775 -0.14059,1.28 -0.43651,1.28 -0.27323,0 -0.50862,0.52617 -0.62932,1.40675 -0.25304,1.84615 -1.12,3.62444 -1.86155,3.81836 -0.41734,0.10913 -0.59262,0.45074 -0.59262,1.15497 0,0.5937 -0.19503,1.07484 -0.48,1.1842 -0.264,0.1013 -0.48,0.52878 -0.48,0.94995 0,0.42117 -0.28436,1.05012 -0.6319,1.39766 -0.34754,0.34755 -1.12824,1.60755 -1.73487,2.8 -0.63334,1.24495 -1.86001,2.9175 -2.88091,3.92811 -0.97786,0.968 -1.78117,2.00182 -1.78513,2.29739 -0.004,0.29556 -0.88052,1.44756 -1.94791,2.56 -1.06739,1.11243 -2.08261,2.27864 -2.25605,2.59157 -0.17344,0.31293 -0.43288,0.49632 -0.57652,0.40755 -0.14365,-0.0888 -0.51874,0.12318 -0.83354,0.47103 -0.31482,0.34785 -0.76606,0.63246 -1.00279,0.63246 -0.23672,0 -0.4304,0.27308 -0.4304,0.60685 0,0.63781 -1.12908,1.68858 -3.81794,3.55315 -0.88832,0.616 -1.61669,1.23454 -1.61859,1.37454 -0.006,0.45426 -1.56026,1.82546 -2.06893,1.82546 -0.272,0 -0.49454,0.11833 -0.49454,0.26296 0,0.14462 -0.70681,0.58239 -1.57068,0.97281 -0.86388,0.39043 -1.65136,0.92009 -1.74996,1.17704 -0.0986,0.25696 -0.54379,0.46719 -0.98932,0.46719 -0.44552,0 -0.81004,0.14193 -0.81004,0.31539 0,0.41695 -3.64038,2.24461 -4.47087,2.24461 -0.35702,0 -0.64913,0.12393 -0.64913,0.27541 0,0.43006 -3.68024,2.28459 -4.53368,2.28459 -0.42025,0 -0.99379,0.26827 -1.27453,0.59616 -0.5169,0.60369 -6.718763,2.28384 -8.430248,2.28384 -0.46599,0 -1.063257,0.216 -1.327257,0.48 -0.291786,0.29178 -1.075373,0.48 -1.998371,0.48 -0.835104,0 -2.30082,0.13286 -3.257143,0.29525 -2.640809,0.44841 -5.316384,0.52168 -11.978771,0.32802 z m 7.424099,-9.71551 c 0.140746,-0.24873 0.687216,-0.50073 1.214381,-0.56 0.781843,-0.0879 0.988627,-0.28468 1.122058,-1.06776 0.114499,-0.67198 0.369414,-0.98943 0.849632,-1.05808 0.523699,-0.0749 0.723635,-0.37778 0.844854,-1.28 0.08734,-0.65006 0.38208,-1.82992 0.654979,-2.62192 0.305747,-0.88733 0.577411,-3.26277 0.707821,-6.18927 0.1164,-2.6121 0.327373,-4.6281 0.468832,-4.48 0.141456,0.1481 0.40991,1.13327 0.596566,2.18927 0.186656,1.056 0.553575,3 0.815373,4.32 0.261802,1.32 0.481719,2.9256 0.488704,3.568 0.0097,0.89105 0.269728,1.42503 1.096701,2.252 0.596198,0.5962 1.260854,1.02505 1.477008,0.953 0.216157,-0.0721 0.488634,0.0237 0.60551,0.21282 0.149757,0.24231 0.682106,0.22365 1.802989,-0.0632 1.456513,-0.37275 1.581823,-0.4793 1.487593,-1.26483 -0.10061,-0.83871 -0.0638,-0.85778 1.65383,-0.85778 2.31357,0 2.68145,-0.17375 3.41585,-1.61329 0.5364,-1.05143 0.59249,-1.62572 0.4181,-4.28053 -0.19597,-2.98344 -0.18291,-3.06618 0.48414,-3.06618 0.37706,0 0.85957,0.27864 1.07225,0.6192 0.27297,0.43709 0.62671,0.57299 1.20272,0.46209 0.69208,-0.13325 0.95314,0.0628 1.71894,1.2906 0.72483,1.16216 1.13511,1.49089 2.08,1.6666 0.64739,0.12038 1.36524,0.48497 1.59521,0.8102 0.58305,0.8245 0.88893,0.75122 2.20681,-0.52869 0.63428,-0.616 1.28248,-1.12 1.44047,-1.12 0.39369,0 1.21458,-2.03933 1.21458,-3.01739 0,-0.657 -0.22085,-0.85741 -1.25035,-1.13463 -2.25201,-0.6064 -4.23835,-2.21789 -5.29932,-4.29924 -0.83995,-1.64776 -0.9594,-2.2072 -0.92778,-4.34522 0.02,-1.34968 0.21015,-2.7788 0.42263,-3.17583 0.8456,-1.58003 4.00159,-2.05921 7.32557,-1.11227 2.71531,0.77354 4.52925,2.844 4.52925,5.16978 0,1.03657 1.0686,2.6348 1.76166,2.6348 0.23937,0 0.52662,-0.288 0.63834,-0.64 0.11172,-0.352 0.32598,-0.64 0.47614,-0.64 0.15015,0 0.36789,-0.432 0.48386,-0.96 0.16345,-0.74419 0.38498,-0.96 0.98543,-0.96 1.0316,0 1.02502,-0.9564 -0.0189,-2.73762 -0.90851,-1.55025 -2.95753,-2.84281 -6.42289,-4.05167 -1.22304,-0.42665 -2.82971,-1.15961 -3.57037,-1.62882 -1.37819,-0.87305 -5.93119,-4.65551 -6.11583,-5.08077 -0.0564,-0.12984 -1.42436,-0.87771 -3.04,-1.66194 -2.76566,-1.34246 -3.13699,-1.43646 -6.34745,-1.6068 -3.25345,-0.17262 -3.48108,-0.14211 -4.959998,0.66477 -0.852532,0.46513 -1.791735,1.05153 -2.087124,1.30311 -0.316598,0.26965 -0.808028,0.37142 -1.197136,0.24793 -0.363036,-0.11523 -0.841356,-0.0944 -1.062931,0.0463 -0.472944,0.30025 -0.96287,0.33254 -5.849725,0.38556 -3.561443,0.0386 -3.698742,0.0661 -4.036144,0.80659 -0.298953,0.65613 -0.655302,0.79925 -2.473139,0.99328 -1.168121,0.12467 -2.229651,0.39171 -2.358957,0.5934 -0.129305,0.2017 -0.237305,0.90673 -0.24,1.56673 -0.0046,1.13431 0.0504,1.2 1.005408,1.2 h 1.010304 l -0.253843,6 c -0.139616,3.3 -0.342253,7.872 -0.450307,10.16 l -0.196461,4.16 h -1.28 -1.28 l 0.006,-1.28 c 0.0033,-0.704 0.104525,-2.036 0.224922,-2.96 0.181254,-1.39106 0.134563,-1.68 -0.271488,-1.68 -0.413072,0 -0.455274,-0.32795 -0.267645,-2.08 0.211504,-1.97499 0.188557,-2.08 -0.454528,-2.08 -0.576826,0 -0.67728,0.18985 -0.67728,1.28 0,1.20889 -0.05333,1.28 -0.96,1.28 -0.924445,0 -0.96,-0.0533 -0.96,-1.44 0,-0.792 -0.144,-1.44 -0.32,-1.44 -0.176,0 -0.32,-0.504 -0.32,-1.12 0,-0.90667 -0.121904,-1.12 -0.64,-1.12 -0.910938,0 -0.938685,-2.22181 -0.03072,-2.45925 0.50841,-0.13295 0.646419,-0.57881 0.833562,-2.69292 0.135449,-1.53016 0.388476,-2.62751 0.638873,-2.77071 0.233687,-0.13365 0.515495,-1.18823 0.645824,-2.41678 0.215712,-2.03343 0.18681,-2.19127 -0.4308,-2.35279 -0.490368,-0.12823 -0.687264,-0.47576 -0.759382,-1.34033 l -0.09734,-1.16722 -2.461466,-0.0931 -2.461465,-0.0931 -0.09853,-1.18687 C 68.642109,98.105424 68.609162,98.077859 67.2,97.979805 c -0.792,-0.05511 -1.5768,-0.235111 -1.744,-0.400001 -0.484486,-0.477788 -1.510224,-0.347964 -1.94463,0.246122 -0.219552,0.300256 -0.77729,0.566119 -1.239415,0.590803 -0.462128,0.02467 -0.771453,-0.0239 -0.687389,-0.107955 0.08406,-0.08406 -0.05808,-0.453965 -0.315865,-0.822006 -0.634275,-0.905556 -0.589578,-1.566784 0.171299,-2.53408 0.764643,-0.972087 0.80088,-1.448519 0.161683,-2.125837 -0.263072,-0.278765 -0.851872,-0.974845 -1.308445,-1.546845 -0.456572,-0.572 -1.024636,-1.04 -1.262368,-1.04 -0.268483,0 -0.469862,-0.454621 -0.531552,-1.2 L 58.4,87.840005 l -2.437462,-0.09269 -2.43746,-0.09269 -0.201065,1.005318 -0.201063,1.005322 -2.239145,-0.224871 c -1.89353,-0.19016 -2.269485,-0.145801 -2.435712,0.287376 -0.157251,0.409789 -0.701744,0.512244 -2.72233,0.512244 -1.389168,0 -2.525763,0.127081 -2.525763,0.282403 0,0.155321 -1.071936,0.382854 -2.382083,0.505625 -1.426445,0.133668 -2.533367,0.405505 -2.759181,0.677594 -0.258282,0.311207 -1.064608,0.454378 -2.559034,0.454378 -1.20006,0 -2.270928,0.144 -2.379702,0.32 -0.108774,0.176 -1.340858,0.32 -2.737964,0.32 -2.472137,0 -2.574728,0.0312 -3.829261,1.164595 -0.708988,0.640528 -1.753403,1.412893 -2.320922,1.716368 -0.952179,0.509165 -1.039272,0.691338 -1.127938,2.359274 -0.07636,1.436461 0.01126,1.848698 0.426831,2.008169 0.418586,0.16063 0.437756,0.25464 0.09608,0.47123 -0.307121,0.19468 -0.227585,0.27194 0.283589,0.27547 0.408838,0.003 1.001422,0.3985 1.395916,0.93208 0.377023,0.50995 1.101334,1.01035 1.60958,1.112 0.76953,0.1539 0.924084,0.34356 0.924084,1.13393 0,1.22034 0.409379,1.45491 2.56,1.46689 2.192227,0.0122 2.56,0.24168 2.56,1.59732 0,0.79851 -0.166614,1.13243 -0.64,1.28268 -0.560524,0.1779 -0.64,0.48417 -0.64,2.46628 0,1.71746 0.125077,2.35462 0.51872,2.64246 0.363398,0.26572 0.568496,1.07497 0.68495,2.70257 0.125789,1.75804 0.291536,2.36184 0.68128,2.4818 0.283277,0.0872 1.106823,0.43492 1.8301,0.77271 0.723276,0.3378 1.623276,0.61418 2,0.61418 0.376723,0 0.68495,0.162 0.68495,0.36 0,0.48083 1.973165,0.0927 2.4,-0.47204 0.398518,-0.52732 1.335827,-1.01633 2.464909,-1.286 0.682275,-0.16296 1.032496,-0.0259 1.658573,0.64935 0.69536,0.74992 0.771392,1.05738 0.613843,2.48231 -0.0989,0.89451 -0.305258,1.76318 -0.458573,1.93038 -0.153312,0.1672 -0.278752,0.7792 -0.278752,1.36 0,0.72533 -0.150304,1.056 -0.48,1.056 -0.872029,0 -0.499075,0.66469 0.64,1.14062 0.887107,0.37066 1.122358,0.65006 1.131341,1.34367 0.01514,1.16961 0.662176,2.27386 1.608925,2.74587 0.425734,0.21225 0.828,0.6703 0.893916,1.01788 0.161261,0.85029 0.558132,1.053 1.75705,0.89745 0.554822,-0.072 1.440768,-0.16117 1.968768,-0.19819 0.737827,-0.0517 1.034058,-0.27814 1.28,-0.97835 0.176,-0.50107 0.428,-0.89707 0.56,-0.88 0.132,0.0171 0.604518,0.031 1.050042,0.031 0.90167,0 0.922345,0.0384 1.440326,2.67168 0.302794,1.53937 0.53305,1.96548 1.296874,2.4 0.713827,0.40608 0.92918,0.76025 0.930736,1.53073 l 0.0019,1.0024 2.41286,0.2261 c 1.478743,0.13857 2.562743,0.10273 2.8,-0.0926 0.212928,-0.17529 1.297271,-0.3837 2.409652,-0.46314 1.952684,-0.13946 2.653289,0.0969 2.988915,1.00819 0.05971,0.16214 1.044573,0.38558 2.188573,0.49654 l 2.08,0.20174 1.020598,-2.17083 c 0.561328,-1.19395 1.116941,-2.56683 1.234691,-3.05083 0.117751,-0.484 0.379325,-0.88 0.581274,-0.88 0.360339,0 1.803437,2.78897 1.803437,3.48537 0,0.74111 1.29318,1.63463 2.365763,1.63463 0.631379,0 1.157145,0.18602 1.256333,0.4445 0.09381,0.24447 0.826313,0.69492 1.627776,1.00101 0.801465,0.30608 1.379619,0.68205 1.284784,0.8355 -0.09484,0.15345 0.332915,0.27899 0.950556,0.27899 0.63352,0 1.234522,-0.19711 1.378887,-0.45223 z m -2.570765,-1.3611 c -0.577507,-0.5775 -0.127801,-0.91542 1.066666,-0.80151 1.621107,0.1546 1.801942,1.01485 0.213334,1.01485 -0.586668,0 -1.162668,-0.096 -1.28,-0.21334 z M 84.48,123.76056 c 0.153334,-4.98389 0.188061,-5.20456 0.833562,-5.29672 0.596041,-0.0851 0.694128,0.1031 0.852262,1.63527 0.253926,2.46031 -0.109008,8.33444 -0.532339,8.616 -0.194416,0.1293 -0.569485,0.23755 -0.833485,0.24055 -0.413683,0.005 -0.457894,-0.71304 -0.32,-5.1951 z m -31.04,3.93833 c 0,-0.51761 0.14529,-1.0309 0.322864,-1.14065 0.54055,-0.33408 1.551789,0.15478 1.775011,0.85809 0.239715,0.75527 -0.275817,1.21128 -1.377875,1.21878 -0.584566,0.004 -0.72,-0.17213 -0.72,-0.93622 z m 3.382858,-2.44174 c -0.785808,-0.7858 -0.487802,-1.52126 0.716192,-1.7675 1.051027,-0.21496 1.0548,-0.21124 0.958067,0.94461 -0.110653,1.32217 -0.82425,1.6729 -1.674259,0.82289 z M 45.12,118.72001 c 0,-0.176 0.144,-0.32 0.32,-0.32 0.176,0 0.32,0.144 0.32,0.32 0,0.176 -0.144,0.32 -0.32,0.32 -0.176,0 -0.32,-0.144 -0.32,-0.32 z m 16.018819,-1.56438 c -0.01414,-0.81505 0.595453,-2.07242 2.454439,-5.06256 2.12728,-3.42169 2.513616,-3.88774 2.761772,-3.33159 0.231789,0.51945 -0.189228,1.42049 -2.141241,4.58256 -1.336365,2.16478 -2.570698,4.15197 -2.742954,4.41597 -0.23815,0.36498 -0.317709,0.22016 -0.332016,-0.60438 z m -17.405485,-4.08896 c -0.435401,-0.4354 -0.180899,-0.99531 1.066666,-2.34666 0.704,-0.76257 1.28,-1.55997 1.28,-1.772 0,-0.21203 0.495894,-0.7253 1.10199,-1.1406 0.98346,-0.67388 1.591028,-1.60496 1.492618,-2.2874 -0.01904,-0.132 0.150134,-0.24 0.37593,-0.24 0.487955,0 1.624563,-0.85685 4.072278,-3.06996 1.345882,-1.21688 2.14655,-1.68492 3.159379,-1.84688 1.687197,-0.26979 1.957952,-0.10715 1.957232,1.17572 -3.2e-4,0.85253 -0.225011,1.16326 -1.36,1.88208 -0.747683,0.47353 -2.104473,1.48153 -3.015088,2.24 -0.910614,0.75847 -2.422614,2.00764 -3.36,2.77595 -0.937385,0.76829 -2.53752,2.17229 -3.555853,3.12 -1.709836,1.59123 -2.67871,2.04619 -3.215152,1.50975 z m 23.977255,-3.52078 c 0.118678,-0.49823 0.330659,-1.12188 0.471075,-1.38588 0.22081,-0.41516 0.283235,-0.4075 0.462122,0.0567 0.340476,0.88356 0.03526,2.00929 -0.576381,2.1259 -0.47888,0.0913 -0.53728,-0.0391 -0.356816,-0.79674 z M 40.64,106.08001 c 0,-0.30026 0.303338,-0.48 0.810042,-0.48 0.445526,0 0.891497,-0.21227 0.991052,-0.47171 0.09956,-0.25943 1.463037,-1.29592 3.029959,-2.3033 1.566921,-1.00739 2.848947,-1.93151 2.848947,-2.05361 0,-0.1221 0.324,-0.30578 0.72,-0.40818 0.396,-0.10239 1.286157,-0.694007 1.978128,-1.314689 C 52.593917,97.635072 53.44,97.56264 53.44,98.841184 c 0,0.740275 -0.204237,1.003193 -1.04,1.338806 -0.572,0.2297 -1.383635,0.75117 -1.803635,1.15883 -0.42,0.40765 -1.035565,0.74119 -1.36792,0.74119 -0.342179,0 -0.73001,0.33068 -0.894144,0.76238 -0.302298,0.79511 -2.008205,2.19541 -2.490775,2.04456 C 45.473437,104.77127 43.2,105.99748 43.2,106.31277 c 0,0.13598 -0.576,0.24724 -1.28,0.24724 -0.924445,0 -1.28,-0.13334 -1.28,-0.48 z M 58.637014,98.939139 C 58.419206,98.371542 59.11521,97.931171 60.24,97.924905 c 0.704762,-0.0039 0.88,0.140752 0.88,0.726528 0,0.626967 -0.165152,0.731431 -1.156355,0.731431 -0.690663,0 -1.224931,-0.178701 -1.326631,-0.443725 z m 62.264166,23.700871 c 1.86334,-1.60022 2.55059,-5.09823 1.33659,-6.80314 -0.89981,-1.26366 -3.06978,-2.23686 -4.9876,-2.23686 -1.91234,0 -2.83381,0.576 -3.33086,2.0821 -0.41794,1.26636 -0.2293,2.49177 0.73263,4.75913 0.52877,1.24637 0.9251,1.68056 1.9652,2.15297 1.65362,0.75106 3.44057,0.77016 4.28404,0.0458 z m -46.755346,-8.8 c -0.07627,-0.396 -0.138679,-0.072 -0.138679,0.72 0,0.792 0.06241,1.116 0.138679,0.72 0.07628,-0.396 0.07628,-1.044 0,-1.44 z M 129.12,109.72546 c 1.65172,-0.4529 3.87141,-2.78179 4.35506,-4.56932 0.56656,-2.09394 0.17977,-4.70275 -1.00402,-6.771788 -0.77402,-1.352848 -1.83066,-2.440234 -4.22406,-4.346983 -5.45603,-4.346637 -9.55446,-5.988877 -15.60698,-6.253712 -2.62864,-0.115021 -3.17838,-0.0465 -4.06264,0.5064 -1.24516,0.778563 -1.56568,2.088902 -1.06089,4.337158 0.38751,1.725924 2.90035,6.348154 4.94733,9.100345 1.47831,1.9876 5.85142,5.88669 7.61641,6.79084 2.74379,1.40555 6.49107,1.90592 9.03979,1.20706 z M 107.63572,95.840006 c -0.10131,-0.264 -0.24079,-0.48 -0.30996,-0.48 -0.0692,0 -0.12576,0.216 -0.12576,0.48 0,0.264 0.13948,0.48 0.30996,0.48 0.17047,0 0.22707,-0.216 0.12576,-0.48 z m 30.22299,-10.15473 c 0.82571,-0.884023 1.50129,-1.873271 1.50129,-2.198333 0,-0.325063 0.36,-0.838256 0.8,-1.140432 1.09454,-0.751687 1.26943,-1.062551 1.2751,-2.266506 0.004,-0.897306 -0.10486,-1.04 -0.7951,-1.04 -0.59079,0 -0.8,-0.169997 -0.8,-0.650042 0,-0.357526 0.216,-0.732931 0.48,-0.834237 0.65654,-0.251939 0.60562,-0.99703 -0.08,-1.170403 -0.38309,-0.09687 -0.23372,-0.217558 0.47282,-0.382025 0.9876,-0.229895 2.13503,-1.123293 1.4427,-1.123293 -0.17757,0 -0.42468,-0.684 -0.54913,-1.52 -0.25892,-1.739201 -0.63082,-2.320001 -1.48557,-2.320001 -0.39058,0 -0.60082,-0.227465 -0.60082,-0.650041 0,-0.357527 -0.216,-0.732931 -0.48,-0.834237 -0.264,-0.101309 -0.48,-0.42215 -0.48,-0.712983 0,-2.101977 -7.41767,-2.089142 -12.67547,0.02192 -1.87796,0.754029 -1.88426,0.761025 -1.80697,2.007562 0.0427,0.687994 0.22266,1.395997 0.4,1.573335 0.41564,0.415638 0.41724,1.698077 0.003,1.954438 -0.77982,0.481955 -0.17939,0.800487 1.52,0.806362 2.26436,0.0078 10.19022,0.835658 10.63547,1.110838 0.17849,0.110314 0.32453,0.677232 0.32453,1.259815 0,0.968435 -0.10288,1.079619 -1.2,1.296896 -0.66,0.130707 -4.44,0.329549 -8.4,0.441872 -6.45552,0.183101 -7.33235,0.2736 -8.48,0.875216 -1.45599,0.763258 -1.89525,1.729002 -0.78641,1.729002 0.80209,0 3.9001,1.005126 4.15865,1.349241 0.0947,0.12608 1.03073,0.322823 2.08,0.437207 1.04927,0.114381 2.38399,0.479222 2.96605,0.810758 0.58206,0.331536 1.3299,0.602794 1.66186,0.602794 0.33196,0 0.83029,0.324 1.1074,0.72 0.66436,0.949386 3.01779,1.712819 4.83465,1.568317 1.26934,-0.100954 1.64698,-0.321037 2.95651,-1.723047 z M 25.28,86.880005 c 0,-0.371372 0.416406,-0.479302 1.84,-0.476912 2.483306,0.0042 8.08,-0.706672 8.08,-1.026243 0,-0.141264 0.648,-0.256845 1.44,-0.256845 0.792,0 1.44,-0.148099 1.44,-0.329107 0,-0.222282 -2.384832,-0.258016 -7.347068,-0.110086 -5.796985,0.172812 -7.452333,0.13166 -7.846003,-0.195056 -1.064832,-0.883732 -2.383099,1.49008 -1.382929,2.490249 0.587516,0.587517 3.776,0.506455 3.776,-0.096 z M 40.580035,76.147051 C 45.137254,75.82421 47.386854,75.326606 53.76,73.231697 c 3.05169,-1.00312 6.470518,-4.124777 7.897155,-7.21072 0.584563,-1.264464 1.062845,-2.567664 1.062845,-2.896 0,-0.328336 0.13639,-0.733773 0.303088,-0.900973 0.374397,-0.37552 2.682326,-9.086413 3.556656,-13.424001 0.685184,-3.399216 1.562499,-12.538967 1.573597,-16.393524 0.004,-1.39038 -0.193696,-2.794935 -0.495456,-3.520002 C 67.041184,27.40468 64.524125,25.268645 61.872483,23.976853 60.786125,23.447615 59.72959,22.812544 59.524634,22.565585 59.014525,21.950942 54.646909,20.575242 52.400768,20.321728 50.35177,20.090466 47.848154,20.664754 45.827184,21.8296 45.174234,22.205948 43.848,22.946695 42.88,23.475703 c -3.281613,1.793389 -6.597894,4.328951 -9.143936,6.991268 -4.560389,4.768657 -9.364699,11.406177 -10.849523,14.989441 -0.470308,1.134973 -1.122324,2.639591 -1.448925,3.343591 -1.182097,2.548055 -1.149577,4.970205 0.208023,15.493572 0.498721,3.865808 1.440076,6.630884 2.943468,8.64594 1.151133,1.542915 1.549808,1.83096 3.410893,2.464403 3.008015,1.023818 6.067066,1.204522 12.580035,0.743133 z M 17.28,44.498889 c 0,-0.165613 0.142351,-0.389094 0.316335,-0.496621 0.181395,-0.112108 0.235042,0.01635 0.125763,0.301114 C 17.509365,44.857756 17.28,44.959187 17.28,44.498889 Z M 60.4,9.7080707 c 0.22,-0.088772 0.58,-0.088772 0.8,0 0.22,0.088772 0.04,0.1614035 -0.4,0.1614035 -0.44,0 -0.62,-0.072631 -0.4,-0.1614035 z m 3.54,-0.6466666 c 0.230998,-0.092439 0.506998,-0.08107 0.613334,0.025264 0.106333,0.1063334 -0.08267,0.1819651 -0.42,0.1680704 C 63.76055,9.2393849 63.684726,9.1635574 63.94,9.0614041 Z"
       id="path9058" />
    <path
       style="display:inline;fill:#663333;fill-opacity:1;stroke-width:0.32"
       d="m 79.52,151.02328 c -9.227683,-0.26823 -12.841757,-0.7524 -16.48,-2.20778 -1.672,-0.66884 -3.816134,-1.38074 -4.764739,-1.582 -0.948608,-0.20126 -2.172608,-0.56719 -2.72,-0.81317 -0.547395,-0.24599 -1.571261,-0.62142 -2.275261,-0.83428 -3.374138,-1.02024 -4.567635,-1.65545 -10.297571,-5.48065 -3.381907,-2.25769 -6.508291,-4.42901 -6.947527,-4.82515 -0.439232,-0.39613 -1.409158,-1.22424 -2.155388,-1.84024 -0.746231,-0.616 -1.654397,-1.47359 -2.018148,-1.90574 -0.987732,-1.17348 -3.828033,-3.84861 -4.089442,-3.85163 -0.125442,-0.002 -0.810249,-0.85992 -1.521794,-1.90771 -0.711544,-1.0478 -1.79691,-2.28889 -2.411923,-2.75798 -0.615014,-0.4691 -1.118207,-1.12381 -1.118207,-1.45492 0,-0.33111 -0.133542,-0.60202 -0.296761,-0.60202 -0.163219,0 -0.686926,-0.828 -1.163794,-1.84 -0.476868,-1.012 -1.275509,-2.4364 -1.774759,-3.16533 -0.499249,-0.72894 -1.220211,-2.16053 -1.602138,-3.18132 -0.765978,-2.04726 -2.331545,-4.69769 -2.610234,-4.419 -0.09774,0.0977 -0.561099,-1.09401 -1.029691,-2.64832 -0.468592,-1.55432 -1.056879,-3.44307 -1.307304,-4.19722 C 12.684893,100.75467 12.48,99.690547 12.48,99.144102 c 0,-0.546448 -0.201207,-1.153414 -0.447127,-1.348819 -0.566684,-0.450275 -1.700712,-5.441856 -2.1660612,-9.534225 -0.2355097,-2.071113 -0.4907136,-3.141053 -0.7492099,-3.141053 -0.858096,0 -0.6855891,-15.006781 0.1759539,-15.306666 C 9.4621002,69.75467 9.6,69.223169 9.6,68.632222 c 0,-0.590944 0.1624346,-1.174839 0.3609658,-1.297536 0.2394502,-0.147987 0.2949642,-0.85456 0.1649062,-2.098887 -0.107833,-1.031686 -0.07106,-1.875795 0.08171,-1.875795 0.152775,0 0.353086,-0.288 0.445136,-0.64 0.09205,-0.352 0.07284,-0.640211 -0.04268,-0.640471 -0.115523,-2.56e-4 -0.250342,-0.587411 -0.299596,-1.304787 -0.05718,-0.832787 0.02959,-1.230691 0.24,-1.100646 0.181254,0.112019 0.329554,0.555177 0.329554,0.98479 0,0.429613 0.127205,0.781114 0.282678,0.781114 0.443206,0 0.619575,-1.094851 0.437125,-2.713546 -0.147498,-1.308598 -0.08839,-1.504125 0.501337,-1.658342 0.618986,-0.161869 0.654008,-0.330557 0.472396,-2.275396 -0.176147,-1.886317 -0.140918,-2.079373 0.345399,-1.892755 0.651034,0.249827 1.161065,-0.857504 1.161065,-2.520794 0,-0.763706 0.146495,-1.099168 0.48,-1.099168 0.264,0 0.48,-0.196579 0.48,-0.436845 0,-0.240265 0.285588,-0.79991 0.63464,-1.243661 0.633657,-0.805564 0.633621,-0.808108 -0.02323,-1.643155 -0.546697,-0.695011 -0.572828,-0.836339 -0.15464,-0.836339 0.276774,0 0.503226,0.188477 0.503226,0.418838 0,0.230362 0.206609,0.698362 0.459132,1.04 0.437334,0.591674 0.482909,0.564192 0.96,-0.578838 0.427676,-1.024643 1.195873,-2.759252 1.736032,-3.92 0.0819,-0.176 -0.0905,-0.122368 -0.383125,0.11918 -0.457897,0.377981 -0.532039,0.366832 -0.532039,-0.08 0,-0.334182 0.272698,-0.51918 0.765309,-0.51918 0.549454,0 0.821942,-0.225642 0.966097,-0.8 0.110433,-0.44 0.342044,-0.800001 0.514691,-0.800001 0.172646,0 0.313903,-0.216 0.313903,-0.48 0,-0.264 0.144,-0.48 0.32,-0.48 0.176,0 0.32,-0.198505 0.32,-0.44112 0,-0.242617 0.864,-1.567961 1.92,-2.945213 1.056,-1.377251 1.92,-2.678749 1.92,-2.892214 0,-0.213466 0.18,-0.460752 0.4,-0.549523 0.32,-0.129124 0.32,-0.166455 0,-0.186666 -0.22,-0.01389 -0.4,-0.175577 -0.4,-0.359292 0,-0.183715 0.195737,-0.291715 0.434971,-0.24 0.43312,0.09363 4.685029,-4.07547 4.685029,-4.593783 0,-0.149704 0.160236,-0.272189 0.356081,-0.272189 0.195845,0 0.807845,-0.363527 1.359999,-0.807838 2.671632,-2.14982 6.614499,-4.926084 7.744154,-5.45284 C 40.553104,19.976239 41.984,19.194938 43.04,18.563098 51.297747,13.622218 71.197248,8.2919567 81.28,8.3201676 82.776,8.3243532 87.6,8.7449612 92,9.2548521 l 8,0.9270739 7.84,2.882918 c 4.312,1.585605 8.96672,3.525774 10.34382,4.311486 3.77649,2.154692 9.46379,6.360459 9.68302,7.160612 0.10504,0.383317 2.19246,2.590385 4.63872,4.904597 2.60303,2.462515 4.67157,4.695158 4.98738,5.383058 0.70424,1.533981 0.73035,1.558314 1.07956,1.006138 0.22758,-0.359866 0.29885,-0.271642 0.3026,0.374576 0.004,0.632762 0.20606,0.895799 0.8049,1.046096 0.63717,0.159923 0.8,0.401818 0.8,1.188499 0,0.586692 0.32481,1.373719 0.8,1.938455 0.58947,0.700538 0.8,1.323248 0.8,2.366195 0,0.778496 0.14556,1.415447 0.32348,1.415447 0.17791,0 0.71791,0.828 1.2,1.84 0.48208,1.012 0.95471,1.912 1.05028,2 0.0956,0.088 0.57973,1.024 1.07593,2.08 0.49619,1.056 1.0068,2.136 1.13469,2.4 0.37725,0.778759 1.19872,3.811415 1.77694,6.560001 0.2962,1.408 0.65815,3.064 0.80433,3.68 0.14619,0.616 0.48892,2.056 0.76162,3.2 0.27271,1.144 0.66441,2.872 0.87046,3.84 0.20604,0.968 0.71384,3.107764 1.12845,4.755034 0.4146,1.647268 0.75726,3.735268 0.76146,4.640001 0.004,0.904729 0.14182,2.220966 0.30583,2.924966 0.18804,0.807159 0.18522,1.319405 -0.008,1.386666 -0.16821,0.05867 -0.30583,0.382669 -0.30583,0.72 0,0.337334 -0.15575,0.613334 -0.3461,0.613334 -0.23533,0 -0.31214,1.280311 -0.24,4.000445 0.085,3.203418 0.0198,4.000359 -0.32721,4.000001 -0.3472,-3.2e-4 -0.38827,0.508278 -0.20669,2.559555 0.21441,2.422205 0.19216,2.56 -0.41339,2.56 -0.56779,0 -0.66557,0.288871 -0.86661,2.560004 -0.19653,2.22013 -0.30716,2.56 -0.83331,2.56 -0.49448,0 -0.60669,0.23675 -0.60669,1.28 0,0.86775 -0.14059,1.28 -0.43651,1.28 -0.27323,0 -0.50862,0.52617 -0.62932,1.40675 -0.25304,1.84615 -1.12,3.62444 -1.86155,3.81836 -0.41734,0.10913 -0.59262,0.45074 -0.59262,1.15497 0,0.5937 -0.19503,1.07484 -0.48,1.1842 -0.264,0.1013 -0.48,0.52878 -0.48,0.94995 0,0.42117 -0.28436,1.05012 -0.6319,1.39766 -0.34754,0.34755 -1.12824,1.60755 -1.73487,2.8 -0.63334,1.24495 -1.86001,2.9175 -2.88091,3.92811 -0.97786,0.968 -1.78117,2.00182 -1.78513,2.29739 -0.004,0.29556 -0.88052,1.44756 -1.94791,2.56 -1.06739,1.11243 -2.08261,2.27864 -2.25605,2.59157 -0.17344,0.31293 -0.43288,0.49632 -0.57652,0.40755 -0.14365,-0.0888 -0.51874,0.12318 -0.83354,0.47103 -0.31482,0.34785 -0.76606,0.63246 -1.00279,0.63246 -0.23672,0 -0.4304,0.27308 -0.4304,0.60685 0,0.63781 -1.12908,1.68858 -3.81794,3.55315 -0.88832,0.616 -1.61669,1.23454 -1.61859,1.37454 -0.006,0.45426 -1.56026,1.82546 -2.06893,1.82546 -0.272,0 -0.49454,0.11833 -0.49454,0.26296 0,0.14462 -0.70681,0.58239 -1.57068,0.97281 -0.86388,0.39043 -1.65136,0.92009 -1.74996,1.17704 -0.0986,0.25696 -0.54379,0.46719 -0.98932,0.46719 -0.44552,0 -0.81004,0.14193 -0.81004,0.31539 0,0.41695 -3.64038,2.24461 -4.47087,2.24461 -0.35702,0 -0.64913,0.12393 -0.64913,0.27541 0,0.43006 -3.68024,2.28459 -4.53368,2.28459 -0.42025,0 -0.99379,0.26827 -1.27453,0.59616 -0.5169,0.60369 -6.718763,2.28384 -8.430248,2.28384 -0.46599,0 -1.063257,0.216 -1.327257,0.48 -0.291786,0.29178 -1.075373,0.48 -1.998371,0.48 -0.835104,0 -2.30082,0.13286 -3.257143,0.29525 -2.640809,0.44841 -5.316384,0.52168 -11.978771,0.32802 z m 9.975626,-7.2104 c 0.533091,-0.10662 1.200307,-0.58094 1.550838,-1.10249 0.338368,-0.50345 0.675322,-0.85526 0.748787,-0.7818 0.07346,0.0735 0.556634,-0.22241 1.073712,-0.6575 0.517079,-0.4351 1.073091,-0.79108 1.235591,-0.79108 0.162496,0 0.295446,-0.36 0.295446,-0.8 0,-0.58667 0.170666,-0.8 0.64,-0.8 0.352,0 0.64,0.144 0.64,0.32 0,0.176 0.288,0.32 0.64,0.32 0.352,0 0.64,-0.144 0.64,-0.32 0,-0.176 0.684,-0.33096 1.52,-0.34435 2.32142,-0.0372 3.73938,-0.65492 3.86125,-1.68219 0.0949,-0.80027 0.20463,-0.8541 1.76,-0.86364 1.88771,-0.0116 2.44593,-0.33608 3.24792,-1.88808 0.44078,-0.85299 0.53477,-1.6086 0.42086,-3.38351 l -0.14666,-2.28526 1.62831,1.56243 c 1.34203,1.28772 1.78087,1.53281 2.49594,1.39399 0.47898,-0.093 1.05234,0.008 1.28,0.22523 0.74541,0.7116 2.14061,1.50538 2.64594,1.50538 0.27284,0 1.1628,-0.648 1.9777,-1.44 0.81489,-0.792 1.58831,-1.44 1.71872,-1.44 0.45926,0 1.27002,-2.19153 1.27002,-3.43293 v -1.2562 l 1.61815,0.33148 c 1.88265,0.38565 2.42653,0.15665 3.1651,-1.33265 0.3082,-0.62147 0.82287,-1.07564 1.3559,-1.19654 0.64156,-0.1455 0.91432,-0.45298 1.07696,-1.21401 0.29987,-1.40322 0.70755,-1.81915 1.78307,-1.81915 0.50645,0 0.92082,-0.144 0.92082,-0.32 0,-0.176 0.3446,-0.32 0.76576,-0.32 0.42117,0 0.84865,-0.216 0.94996,-0.48 0.10131,-0.264 0.45962,-0.48 0.79626,-0.48 0.72973,0 2.28802,-1.93111 2.28802,-2.83543 0,-0.35097 0.36,-0.9213 0.8,-1.2674 0.44,-0.34611 0.8,-0.86056 0.8,-1.14323 0,-0.28267 0.12691,-0.51394 0.28201,-0.51394 0.15511,0 0.44518,-0.648 0.64461,-1.44 0.27734,-1.10145 0.51198,-1.44 0.99799,-1.44 0.34946,0 0.63539,-0.144 0.63539,-0.32 0,-0.176 0.216,-0.32 0.48,-0.32 0.3717,0 0.48,-0.42034 0.48,-1.863 0,-1.02464 0.23078,-2.54029 0.51284,-3.36809 0.50916,-1.4943 0.48352,-2.59126 -0.12083,-5.168914 -0.69419,-2.960909 -1.09175,-4.021898 -1.84043,-4.911645 -0.43537,-0.517408 -0.79158,-1.248915 -0.79158,-1.625571 0,-0.636759 0.1123,-0.66993 1.6,-0.472579 1.352,0.17935 1.6,0.131459 1.6,-0.30898 0,-0.305251 0.26122,-0.521225 0.63042,-0.521225 0.34673,0 0.94981,-0.432 1.34018,-0.96 0.39037,-0.528 0.89593,-0.96 1.12348,-0.96 0.22755,0 0.50796,-0.375469 0.62314,-0.834378 0.29858,-1.189619 -0.1293,-6.318503 -0.72916,-8.740349 -0.4479,-1.808359 -0.45226,-2.096164 -0.0363,-2.400289 0.31664,-0.231539 0.3902,-0.556643 0.22292,-0.985273 -0.4903,-1.256333 -0.34442,-1.439712 1.14536,-1.439712 1.38176,0 1.44,-0.03824 1.44,-0.945501 0,-0.825363 -0.14086,-0.971923 -1.1086,-1.153472 -0.60973,-0.114387 -1.23695,-0.372912 -1.39381,-0.574503 -0.41792,-0.537056 -1.01759,-3.193785 -1.01759,-4.508227 0,-0.901466 -0.12539,-1.138298 -0.60268,-1.138298 -0.614,0 -0.98474,-0.806473 -0.99295,-2.16 -0.003,-0.411539 -0.20192,-0.72 -0.46548,-0.72 -0.76669,0 -0.93147,-0.670477 -0.21109,-0.858861 0.69117,-0.180742 0.96063,-1.48511 0.38083,-1.843446 -0.16026,-0.09904 -0.39492,-1.439543 -0.52148,-2.978887 -0.12655,-1.539344 -0.39143,-2.904602 -0.58863,-3.033907 -0.19718,-0.129306 -0.9243,-0.237306 -1.6158,-0.24 -1.77669,-0.0069 -3.38272,-0.647482 -3.38272,-1.349184 0,-0.316644 -0.144,-0.575716 -0.32,-0.575716 -0.176,0 -0.32,-0.423501 -0.32,-0.941113 0,-0.517613 0.144,-1.030112 0.32,-1.138887 0.50053,-0.309347 0.37491,-1.44 -0.16,-1.44 -0.27696,0 -0.49068,-0.30456 -0.50526,-0.72 -0.0139,-0.396 -0.0979,-0.54 -0.18667,-0.32 -0.23145,0.573584 -1.60347,0.49415 -1.83383,-0.106173 -0.10684,-0.278393 -0.19424,-0.795875 -0.19424,-1.149958 0,-0.374666 -0.26754,-0.713747 -0.64,-0.811149 -0.352,-0.09205 -0.64,-0.29457 -0.64,-0.450042 0,-0.155472 -0.84233,-0.282678 -1.87185,-0.282678 -1.54912,0 -2.11462,0.164509 -3.28,0.954176 -1.4939,1.012285 -2.84815,1.26103 -2.84815,0.523146 0,-0.243472 -0.288,-0.517991 -0.64,-0.610042 -0.976,-0.255232 -0.78365,-1.384263 0.50344,-2.954983 0.91408,-1.115517 1.25106,-1.928656 1.68,-4.053856 0.29949,-1.483885 0.48915,-3.612775 0.42925,-4.818442 l -0.1073,-2.16 h -2.2127 c -1.36013,0 -2.21269,-0.132102 -2.21269,-0.342858 0,-0.836962 -0.99065,-1.334039 -2.25556,-1.131772 -0.77269,0.12356 -1.26444,0.07627 -1.26444,-0.121588 0,-0.17808 -0.216,-0.323782 -0.48,-0.323782 -0.32,0 -0.48,-0.32 -0.48,-0.96 0,-0.838096 -0.11378,-0.96 -0.896,-0.96 -0.4928,0 -1.0688,0.1728 -1.28,0.384 -0.29867,0.298666 -0.384,0.192 -0.384,-0.48 0,-0.4752 -0.18,-0.867394 -0.4,-0.871542 -0.22,-0.0041 -0.72799,-0.688148 -1.12888,-1.52 -1.30289,-2.703566 -1.71163,-3.303701 -2.43826,-3.579964 -0.39333,-0.149545 -1.24561,-0.63188 -1.89395,-1.071857 -1.03378,-0.701545 -1.41501,-0.778539 -3.09886,-0.625853 -1.32472,0.120121 -1.92005,0.0611 -1.92005,-0.19034 0,-0.445865 -1.80555,-0.48852 -2.07714,-0.04907 -0.11976,0.193781 -1.285862,0.237935 -3.024492,0.114524 -3.71296,-0.263554 -5.321712,0.192712 -6.580643,1.86637 -0.510378,0.678511 -1.078656,1.183947 -1.262842,1.123191 -0.184185,-0.06076 -0.377462,-1.070987 -0.429504,-2.244961 l -0.09462,-2.134497 H 87.22456 c -1.410678,0 -2.14721,-0.145814 -2.42456,-0.48 -0.219101,-0.264 -0.848733,-0.480887 -1.399181,-0.481971 -0.550451,-0.0011 -1.38712,-0.203513 -1.859264,-0.44984 -0.472144,-0.246328 -1.300144,-0.544882 -1.84,-0.663455 C 79.161699,17.326163 78.72,17.024591 78.72,16.774575 c 0,-0.310336 -0.406147,-0.467266 -1.28,-0.494574 -0.704,-0.022 -1.676,-0.058 -2.16,-0.08 -0.628384,-0.02856 -0.97032,0.165868 -1.195882,0.68 -0.173734,0.396 -0.482326,0.72 -0.685763,0.72 -0.203437,0 -0.444489,0.194426 -0.53568,0.432059 -0.0947,0.24679 -0.888041,0.517598 -1.850121,0.631542 -1.758461,0.208264 -2.199463,0.550048 -2.207655,1.710974 -0.0036,0.502584 -0.258461,0.750266 -0.922227,0.896053 -0.830682,0.182448 -0.936032,0.358646 -1.11536,1.865426 -0.175981,1.478678 -0.098,1.806466 0.700362,2.943947 1.712028,2.439238 1.752243,2.728129 1.481264,10.640704 -0.137111,4.003613 -0.220135,7.783297 -0.1845,8.399297 0.03564,0.616 -0.229782,1.725043 -0.589824,2.464541 C 67.814576,48.324045 67.52,49.218051 67.52,49.571229 c 0,0.353177 -0.575283,2.844131 -1.278406,5.535456 -0.703127,2.691325 -1.279127,5.289319 -1.28,5.773319 -9.6e-4,0.484 -0.122679,0.88 -0.270672,0.88 -0.147994,0 -0.448925,0.803635 -0.668736,1.785853 -0.656439,2.93328 -1.85305,4.839174 -4.405786,7.01729 -2.988288,2.549747 -5.123914,3.647178 -9.878205,5.076099 -4.197824,1.261674 -9.124185,1.786263 -16.866182,1.796013 -3.650635,0.0046 -3.835102,-0.02906 -5.922809,-1.080403 -2.098904,-1.056992 -3.464065,-2.532282 -4.84407,-5.234852 -0.57588,-1.127788 -1.813554,-0.926873 -3.271501,0.531072 l -1.251074,1.251076 0.08872,4.748925 0.08872,4.748928 0.879889,0.101245 c 0.761126,0.08758 0.835193,0.184762 0.548741,0.72 -0.182131,0.340317 -0.614081,0.618755 -0.959889,0.618755 -0.415408,0 -0.628741,0.217152 -0.628741,0.64 0,0.469335 0.213333,0.64 0.8,0.64 0.69062,0 0.8,0.143408 0.8,1.048884 0,1.272441 0.827659,2.068096 2.298068,2.209206 l 1.061932,0.101911 0.09179,3.333827 c 0.06297,2.287059 -0.02562,3.406394 -0.282151,3.564938 -0.284499,0.17583 -0.275785,1.11176 0.03643,3.912986 l 0.410375,3.681873 1.231777,0.19697 1.231776,0.19697 v 2.05733 c 0,1.16856 0.15423,2.15266 0.357009,2.27798 0.196354,0.12135 1.096426,0.214 2.000159,0.20588 l 1.64315,-0.0148 -0.112381,1.413 c -0.06181,0.77714 -0.241881,1.413 -0.400159,1.413 -0.158278,0 -0.287778,0.504 -0.287778,1.12 0,0.616 -0.144,1.12 -0.32,1.12 -0.388648,0 -0.416528,1.59224 -0.03833,2.18894 0.149529,0.23591 0.615324,0.60013 1.0351,0.80936 0.419776,0.20924 0.951087,0.77221 1.18069,1.25106 0.229604,0.47885 0.610197,0.87064 0.845764,0.87064 0.522313,0 0.816775,0.70163 0.816775,1.94617 0,0.82095 0.114224,0.93383 0.944944,0.93383 1.071994,0 2.575056,0.59986 2.575056,1.02769 0,0.15673 0.48449,0.4874 1.07664,0.73481 1.195197,0.49939 3.002579,0.19256 3.848464,-0.65332 0.793219,-0.79322 2.181984,-1.19673 2.483446,-0.72158 0.377866,0.59557 0.335424,4.7324 -0.04855,4.7324 -0.531741,0 -0.38423,2.46688 0.16,2.67572 0.264,0.10131 0.48,0.46493 0.48,0.80806 0,0.94111 0.339645,1.63622 0.799491,1.63622 0.226061,0 0.641488,0.576 0.923171,1.28 0.449949,1.12453 0.638791,1.28059 1.554746,1.2849 1.257421,0.006 1.537203,0.19066 2.173286,1.4351 0.536855,1.05031 1.909306,1.52635 1.909306,0.66225 0,-0.37121 0.328403,-0.50225 1.258746,-0.50225 1.135296,0 1.268675,-0.0863 1.36,-0.88 0.135395,-1.1767 0.688112,-0.9979 0.959964,0.31055 0.361447,1.73964 1.792586,4.00282 2.67056,4.22318 0.650484,0.16326 0.79073,0.39495 0.79073,1.30627 0,0.92657 0.13632,1.14202 0.833238,1.31694 1.182109,0.29668 5.971181,-0.0483 6.795677,-0.4896 0.568618,-0.30432 0.691085,-0.2828 0.691085,0.1214 0,0.3465 0.324464,0.49126 1.101114,0.49126 0.605612,0 1.190112,0.144 1.298886,0.32 0.108774,0.176 0.765274,0.32 1.458886,0.32 0.907658,0 1.261114,0.13453 1.261114,0.48 0,0.264 0.06377,0.48 0.141709,0.48 0.43408,0 2.390099,-1.38497 2.552045,-1.80699 0.159792,-0.41642 0.561881,-0.46024 2.467219,-0.2689 1.665395,0.16725 2.341622,0.12294 2.519648,-0.16512 0.345843,-0.55958 2.251203,0.11172 3.208102,1.1303 0.40856,0.43489 0.938256,0.79071 1.177101,0.79071 0.238845,0 0.517149,0.216 0.618454,0.48 0.138624,0.36124 0.720032,0.48 2.349959,0.48 1.191168,0 2.586793,-0.0842 3.101389,-0.18713 z M 85.00992,125.20001 c -0.314957,-4.75617 -0.273789,-5.84 0.221818,-5.84 0.318665,0 0.485843,0.8171 0.638342,3.12 0.314957,4.75616 0.273789,5.84 -0.221818,5.84 -0.318665,0 -0.485843,-0.81711 -0.638342,-3.12 z m -6.923046,1.92 c 0.0038,-0.484 0.217404,-4.48 0.47472,-8.88 0.257312,-4.4 0.47022,-8.252 0.473123,-8.56 0.0065,-0.68592 0.528278,-0.72272 1.168589,-0.0824 0.423456,0.42345 0.420118,1.46462 -0.02944,9.18519 -0.35282,6.05917 -0.626692,8.7836 -0.900448,8.9575 -0.760756,0.48327 -1.193392,0.2571 -1.186538,-0.62028 z m 39.970906,-3.42845 c -2.11258,-0.47902 -3.00663,-1.19795 -3.99046,-3.20882 -0.63405,-1.29596 -0.86709,-2.2536 -0.85574,-3.51656 0.0217,-2.41686 0.28843,-3.03705 1.52898,-3.55539 1.41363,-0.59065 2.4545,-0.56331 4.75329,0.12485 3.61517,1.08223 4.63485,3.60035 3.07597,7.59614 -0.63127,1.61809 -0.94007,2.00967 -1.90173,2.41155 -0.90647,0.37882 -1.45582,0.41001 -2.61031,0.14823 z m 2.8434,-1.05155 c 1.86334,-1.60022 2.55059,-5.09823 1.33659,-6.80314 -0.89981,-1.26366 -3.06978,-2.23686 -4.9876,-2.23686 -1.91234,0 -2.83381,0.576 -3.33086,2.0821 -0.41794,1.26636 -0.2293,2.49177 0.73263,4.75913 0.52877,1.24637 0.9251,1.68056 1.9652,2.15297 1.65362,0.75106 3.44057,0.77016 4.28404,0.0458 z M 74.24,118.90564 c 0,-0.2499 0.648,-4.42953 1.44,-9.28807 0.792,-4.85854 1.44,-8.90208 1.44,-8.98563 0,-0.0836 0.216,-0.15193 0.48,-0.15193 0.264,0 0.48,0.21236 0.48,0.47193 0,0.25955 -0.648,4.44709 -1.44,9.30563 -0.792,4.85854 -1.44,8.89417 -1.44,8.96807 0,0.0739 -0.216,0.13437 -0.48,0.13437 -0.264,0 -0.48,-0.20447 -0.48,-0.45437 z m -30.08,-6.58702 c 0,-0.21492 1.958173,-2.45867 4.351491,-4.9861 3.439597,-3.63233 4.57392,-4.63706 5.412899,-4.79445 0.583776,-0.10952 1.386708,-0.54539 1.784292,-0.96859 0.783196,-0.83368 1.571318,-1.01506 1.571318,-0.36164 0,0.34953 -3.5416,3.82244 -9.76711,9.57767 -1.623693,1.50105 -3.35289,2.29172 -3.35289,1.53311 z m 79.59142,-1.59432 c -0.84072,-0.15053 -2.46338,-0.75308 -3.60591,-1.33899 -2.26029,-1.15913 -7.14231,-5.06138 -7.93847,-6.3453 -0.27284,-0.44 -0.90265,-1.26713 -1.39957,-1.83806 -0.49693,-0.57093 -1.65125,-2.450113 -2.56516,-4.17596 -1.87949,-3.549255 -2.38329,-5.941984 -1.69209,-8.036356 0.65415,-1.982086 3.15208,-2.740797 7.44031,-2.259891 4.94502,0.55456 10.49251,2.948317 14.97533,6.461892 2.80752,2.200493 3.04711,2.48527 4.36241,5.185146 2.03583,4.178909 1.89669,6.721459 -0.53591,9.792879 -0.5372,0.67826 -1.43924,1.51804 -2.00454,1.86617 -1.21596,0.74883 -4.76174,1.09576 -7.0364,0.68847 z m 5.36858,-0.99884 c 1.65172,-0.4529 3.87141,-2.78179 4.35506,-4.56932 0.56656,-2.09394 0.17977,-4.70275 -1.00402,-6.771788 -0.77402,-1.352848 -1.83066,-2.440234 -4.22406,-4.346983 -5.45603,-4.346637 -9.55446,-5.988877 -15.60698,-6.253712 -2.62864,-0.115021 -3.17838,-0.0465 -4.06264,0.5064 -1.24516,0.778563 -1.56568,2.088902 -1.06089,4.337158 0.38751,1.725924 2.90035,6.348154 4.94733,9.100345 1.47831,1.9876 5.85142,5.88669 7.61641,6.79084 2.74379,1.40555 6.49107,1.90592 9.03979,1.20706 z M 42.56,105.1531 c 0,-0.45418 9.189024,-6.593094 9.868867,-6.593094 0.204122,0 0.371133,0.201111 0.371133,0.446909 0,0.454182 -9.189024,6.593095 -9.868867,6.593095 -0.204122,0 -0.371133,-0.20111 -0.371133,-0.44691 z m 50.08,-7.163967 c -0.352,-0.0759 -0.784,-0.248007 -0.96,-0.382465 -0.176,-0.134457 -0.608,-0.168064 -0.96,-0.07468 -0.352,0.09338 -3.196,0.227981 -6.32,0.299104 -4.7916,0.109088 -5.68,0.0572 -5.68,-0.331731 0,-0.319616 -0.301926,-0.435351 -0.984275,-0.377287 -0.606474,0.05161 -1.049514,-0.08625 -1.154237,-0.359155 -0.09704,-0.252877 -0.62113,-0.442912 -1.221488,-0.442912 -0.639494,0 -1.123702,-0.188083 -1.235722,-0.48 -0.121577,-0.316829 -0.622726,-0.48 -1.474236,-0.48 -1.071693,0 -1.290042,-0.107075 -1.290042,-0.632624 0,-0.347943 -0.336358,-0.853011 -0.747462,-1.122378 -0.411104,-0.269366 -1.203104,-1.124227 -1.76,-1.899689 C 68.06177,90.604188 67.84,89.968191 67.84,88.801538 c 0,-1.102941 -0.273344,-1.968483 -1.044595,-3.307689 -0.574525,-0.997613 -1.402525,-2.605844 -1.84,-3.573844 -0.437472,-0.968 -0.903405,-1.808 -1.035405,-1.866666 -0.132,-0.05867 -0.24,-0.742668 -0.24,-1.52 0,-1.2 0.09661,-1.413334 0.64,-1.413334 0.48528,0 0.639568,-0.212739 0.638214,-0.88 -0.0026,-1.236925 -0.608739,-3.28 -0.973254,-3.28 -0.167728,0 -0.30496,-0.2245 -0.30496,-0.498887 0,-0.274387 -0.142861,-0.410592 -0.317466,-0.302678 -0.174604,0.10791 -0.547424,0.06751 -0.828483,-0.08978 -0.461737,-0.258404 -0.455997,-0.340999 0.05953,-0.856522 0.547392,-0.547392 0.580099,-0.54623 0.80599,0.02867 0.136362,0.347027 0.244915,-0.377174 0.257939,-1.720797 L 63.68,67.200004 h 1.095424 c 0.999334,0 1.223901,-0.193251 2.56,-2.203034 C 68.140941,63.7853 68.8,62.6333 68.8,62.43697 c 0,-0.196333 0.190899,-0.356966 0.424221,-0.356966 0.233318,0 0.759017,-0.356378 1.168214,-0.791946 0.409197,-0.435571 1.406298,-1.026803 2.215779,-1.313849 0.809482,-0.287047 1.759786,-0.643396 2.111786,-0.791885 1.211962,-0.511264 5.445046,-1.540452 7.91159,-1.92354 1.884442,-0.292681 3.375869,-0.298022 6.278154,-0.0225 4.181987,0.397034 5.705757,0.888429 7.443302,2.400372 0.634173,0.55183 1.678173,1.405469 2.32,1.896973 0.641824,0.491504 1.166954,1.134918 1.166954,1.429814 0,0.294893 0.36079,0.846189 0.80176,1.225101 0.44097,0.378912 1.31525,1.800323 1.94286,3.158685 1.03798,2.246586 1.1411,2.727421 1.1411,5.321258 0,2.636243 0.0482,2.851501 0.6387,2.851501 0.50548,0 0.59372,0.14175 0.42302,0.679568 -0.31979,1.007578 -0.41577,1.605712 -0.44296,2.760432 -0.0165,0.700231 -0.1813,1.04 -0.50448,1.04 -0.31424,0 -0.48,0.314538 -0.48,0.910835 0,0.50096 -0.24501,1.400961 -0.54447,2.000001 -0.29945,0.59904 -0.60476,1.917164 -0.67846,2.929165 -0.0833,1.144246 -0.27931,1.84 -0.51831,1.84 -0.52033,0 -2.573934,2.410288 -3.459454,4.060317 -0.39562,0.737174 -1.403306,2.071581 -2.239306,2.96535 -0.836,0.893767 -1.52,1.816308 -1.52,2.050087 0,0.654477 -1.045814,1.387363 -1.76,1.233373 z m 38.08,-20.241445 c -1.056,-0.131021 -6.276,-0.25385 -11.6,-0.272954 -8.40845,-0.03018 -9.68,-0.09826 -9.68,-0.5184 0,-0.424854 1.54684,-0.473497 12.72,-0.4 l 12.72,0.08367 0.10226,0.72 c 0.0917,0.645337 -0.0245,0.71512 -1.12,0.672953 -0.67224,-0.02589 -2.08626,-0.154246 -3.14226,-0.285269 z M 40.580035,76.147051 C 45.137254,75.82421 47.386854,75.326606 53.76,73.231697 c 3.05169,-1.00312 6.470518,-4.124777 7.897155,-7.21072 0.584563,-1.264464 1.062845,-2.567664 1.062845,-2.896 0,-0.328336 0.13639,-0.733773 0.303088,-0.900973 0.372765,-0.373885 2.67721,-9.065517 3.559155,-13.424001 0.688253,-3.401264 1.565533,-12.54314 1.573168,-16.393524 0.0029,-1.385875 -0.196742,-2.797285 -0.497526,-3.520002 C 67.041184,27.40468 64.524125,25.268645 61.872483,23.976853 60.786125,23.447615 59.72959,22.812544 59.524634,22.565585 59.014525,21.950942 54.646909,20.575242 52.400768,20.321728 50.35177,20.090466 47.848154,20.664754 45.827184,21.8296 45.174234,22.205948 43.848,22.946695 42.88,23.475703 c -3.281613,1.793389 -6.597894,4.328951 -9.143936,6.991268 -4.560389,4.768657 -9.364699,11.406177 -10.849523,14.989441 -0.470308,1.134973 -1.122324,2.639591 -1.448925,3.343591 -1.182097,2.548055 -1.149577,4.970205 0.208023,15.493572 0.498721,3.865808 1.440076,6.630884 2.943468,8.64594 1.151133,1.542915 1.549808,1.83096 3.410893,2.464403 3.008015,1.023818 6.067066,1.204522 12.580035,0.743133 z M 17.28,44.498889 c 0,-0.165613 0.142351,-0.389094 0.316335,-0.496621 0.181395,-0.112108 0.235042,0.01635 0.125763,0.301114 C 17.509365,44.857756 17.28,44.959187 17.28,44.498889 Z M 60.4,9.7080707 c 0.22,-0.088772 0.58,-0.088772 0.8,0 0.22,0.088772 0.04,0.1614035 -0.4,0.1614035 -0.44,0 -0.62,-0.072631 -0.4,-0.1614035 z m 3.54,-0.6466666 c 0.230998,-0.092439 0.506998,-0.08107 0.613334,0.025264 0.106333,0.1063334 -0.08267,0.1819651 -0.42,0.1680704 C 63.76055,9.2393849 63.684726,9.1635574 63.94,9.0614041 Z"
       id="path293" />
  </g>
</svg>
