<?xml version="1.0" encoding="UTF-8" standalone="no"?>
<!-- Created with Inkscape (http://www.inkscape.org/) -->

<svg
   version="1.1"
   id="svg2"
   width="413.33334"
   height="546.66669"
   viewBox="0 0 413.33334 546.66669"
   sodipodi:docname="Default-eye.svg"
   inkscape:version="1.2.2 (b0a8486541, 2022-12-01)"
   xmlns:inkscape="http://www.inkscape.org/namespaces/inkscape"
   xmlns:sodipodi="http://sodipodi.sourceforge.net/DTD/sodipodi-0.dtd"
   xmlns:xlink="http://www.w3.org/1999/xlink"
   xmlns="http://www.w3.org/2000/svg"
   xmlns:svg="http://www.w3.org/2000/svg">
  <defs
     id="defs6">
    <linearGradient
       inkscape:collect="always"
       id="linearGradient1039">
      <stop
         style="stop-color:#ffffff;stop-opacity:1;"
         offset="0.23491955"
         id="stop1035" />
      <stop
         style="stop-color:#717171;stop-opacity:1;"
         offset="0.8919962"
         id="stop1037" />
    </linearGradient>
    <radialGradient
       inkscape:collect="always"
       xlink:href="#linearGradient1039"
       id="radialGradient1041"
       cx="207.0426"
       cy="273.74207"
       fx="207.0426"
       fy="273.74207"
       r="163.02182"
       gradientTransform="matrix(1.1930565,0,0,1.5689549,-39.400906,-165.90409)"
       gradientUnits="userSpaceOnUse" />
  </defs>
  <sodipodi:namedview
     id="namedview4"
     pagecolor="#ffffff"
     bordercolor="#000000"
     borderopacity="0.25"
     inkscape:showpageshadow="2"
     inkscape:pageopacity="0.0"
     inkscape:pagecheckerboard="0"
     inkscape:deskcolor="#d1d1d1"
     showgrid="false"
     inkscape:zoom="1.3284122"
     inkscape:cx="-137.38206"
     inkscape:cy="132.11261"
     inkscape:window-width="2560"
     inkscape:window-height="1316"
     inkscape:window-x="0"
     inkscape:window-y="0"
     inkscape:window-maximized="1"
     inkscape:current-layer="svg2" />
  <path
     style="display:inline;opacity:0.85;fill:url(#radialGradient1041);fill-opacity:1;stroke:#993333;stroke-width:0.325941;stroke-linecap:round;stroke-linejoin:round"
     d="m 205.32983,518.81264 c -0.28431,-0.42512 -3.53731,-0.66013 -9.13634,-0.66013 -7.12722,0 -8.76247,-0.16297 -9.07013,-0.90379 -0.27567,-0.66378 -1.40962,-0.90381 -4.26981,-0.90381 -2.14193,0 -4.07578,-0.27113 -4.29744,-0.6025 -0.22165,-0.33139 -1.58038,-0.60255 -3.01944,-0.60255 -1.45624,0 -3.05011,-0.40075 -3.59451,-0.90379 -0.53795,-0.49709 -2.13087,-0.9038 -3.53983,-0.9038 -1.40896,0 -2.56173,-0.2711 -2.56173,-0.60251 0,-0.33139 -0.99564,-0.60254 -2.21252,-0.60254 -1.36517,0 -2.35624,-0.34615 -2.58786,-0.90379 -0.20642,-0.49708 -1.1008,-0.90378 -1.98752,-0.90378 -0.88668,0 -1.79352,-0.27114 -2.01517,-0.60252 -0.22165,-0.33141 -1.26599,-0.60253 -2.32077,-0.60253 -1.26992,0 -1.91774,-0.30531 -1.91774,-0.90379 0,-0.56235 -0.61585,-0.90379 -1.63018,-0.90379 -0.89661,0 -1.63019,-0.27115 -1.63019,-0.60253 0,-0.33139 -0.70221,-0.60254 -1.56044,-0.60254 -0.85823,0 -1.72932,-0.40671 -1.93579,-0.90376 -0.20642,-0.49711 -0.9714,-0.90382 -1.69993,-0.90382 -0.72854,0 -1.32466,-0.27113 -1.32466,-0.60255 0,-0.33135 -0.70218,-0.60249 -1.5604,-0.60249 -0.85825,0 -1.72934,-0.40671 -1.93576,-0.9038 -0.20644,-0.49709 -0.97144,-0.90379 -1.69997,-0.90379 -0.72855,0 -1.32463,-0.27117 -1.32463,-0.60251 0,-0.3314 -0.73358,-0.60254 -1.6302,-0.60254 -1.01435,0 -1.63017,-0.34143 -1.63017,-0.90381 0,-0.49709 -0.44017,-0.90377 -0.97813,-0.90377 -0.53797,0 -0.97813,-0.27113 -0.97813,-0.60253 0,-0.33138 -0.55547,-0.60253 -1.23438,-0.60253 -0.67889,0 -1.40329,-0.4067 -1.60972,-0.90377 -0.20645,-0.4971 -0.97142,-0.9038 -1.69995,-0.9038 -0.72854,0 -1.32464,-0.27114 -1.32464,-0.60256 0,-0.33138 -0.44016,-0.6025 -0.97813,-0.6025 -0.53795,0 -0.9781,-0.40671 -0.9781,-0.90379 0,-0.49708 -0.44015,-0.90378 -0.97812,-0.90378 -0.53795,0 -0.97813,-0.27117 -0.97813,-0.60253 0,-0.33141 -0.45414,-0.60253 -1.00924,-0.60253 -0.55508,0 -1.68914,-0.67785 -2.52008,-1.50632 -0.83093,-0.82847 -1.81254,-1.50632 -2.18135,-1.50632 -0.36884,0 -0.83946,-0.4067 -1.0459,-0.90378 -0.20645,-0.49709 -0.8247,-0.9038 -1.37391,-0.9038 -0.54921,0 -0.9986,-0.27111 -0.9986,-0.60252 0,-0.3314 -0.44013,-0.60253 -0.97813,-0.60253 -0.53794,0 -0.97811,-0.29049 -0.97811,-0.64558 0,-0.83417 -1.65893,-2.36707 -2.56173,-2.36707 -0.38422,0 -0.69865,-0.40669 -0.69865,-0.90379 0,-0.49706 -0.30624,-0.90377 -0.68054,-0.90377 -0.37429,0 -1.47168,-0.67787 -2.43862,-1.50633 -0.96695,-0.82845 -2.07831,-1.50632 -2.46969,-1.50632 -0.39132,0 -1.10415,-0.67782 -1.584011,-1.5063 -0.479832,-0.82849 -1.116492,-1.50632 -1.414771,-1.50632 -0.531682,0 -7.7143,-6.54964 -7.7143,-7.03444 0,-0.33292 -1.152872,-1.61427 -4.075497,-4.52972 -1.344897,-1.3416 -2.445308,-2.54214 -2.445308,-2.66789 0,-0.12574 -1.173725,-1.31315 -2.608306,-2.63872 -1.434569,-1.32555 -2.608306,-2.72164 -2.608306,-3.10239 0,-0.38078 -0.953657,-1.55165 -2.119248,-2.60196 -1.165591,-1.05033 -2.497481,-2.56895 -2.959759,-3.37475 -0.462273,-0.80582 -1.709371,-2.38306 -2.771329,-3.50498 -1.061957,-1.1219 -1.930829,-2.40982 -1.930829,-2.86202 0,-0.45218 -0.247229,-0.82213 -0.549398,-0.82213 -0.302165,0 -1.10248,-0.94896 -1.778479,-2.10884 -0.675996,-1.15986 -1.455792,-2.10885 -1.732878,-2.10885 -0.277085,0 -0.503792,-0.40671 -0.503792,-0.90377 0,-0.4971 -0.287843,-0.9038 -0.639656,-0.9038 -0.35181,0 -0.823772,-0.67786 -1.048805,-1.5063 -0.225034,-0.8285 -0.64955,-1.50635 -0.943362,-1.50635 -0.293817,0 -1.052066,-1.08453 -1.684999,-2.41011 -0.632929,-1.32553 -1.387747,-2.41006 -1.677372,-2.41006 -0.289621,0 -0.526586,-0.5091 -0.526586,-1.13131 0,-0.6222 -0.44015,-1.46882 -0.978117,-1.88136 -0.537963,-0.41255 -0.978116,-1.12359 -0.978116,-1.58008 0,-0.45654 -0.293434,-0.83002 -0.652076,-0.83002 -0.358644,0 -0.65208,-0.40669 -0.65208,-0.90377 0,-0.49711 -0.26162,-0.90382 -0.581385,-0.90382 -0.319764,0 -0.765509,-0.67784 -0.990543,-1.50631 -0.225034,-0.82845 -0.696996,-1.50631 -1.048806,-1.50631 -0.35181,0 -0.639653,-0.64884 -0.639653,-1.44184 0,-0.79304 -0.440154,-1.59792 -0.978119,-1.78868 -0.537964,-0.19075 -0.978116,-0.89761 -0.978116,-1.57082 0,-0.67313 -0.293437,-1.22392 -0.652079,-1.22392 -0.358643,0 -0.652077,-0.64887 -0.652077,-1.44187 0,-0.79301 -0.440152,-1.59792 -0.978118,-1.78868 -0.537961,-0.19074 -0.978114,-0.89759 -0.978114,-1.57077 0,-0.67318 -0.293438,-1.22396 -0.65208,-1.22396 -0.358643,0 -0.652077,-0.67786 -0.652077,-1.50631 0,-0.93728 -0.369512,-1.50633 -0.978118,-1.50633 -0.683128,0 -0.978117,-0.63599 -0.978117,-2.10883 0,-1.15987 -0.293433,-2.10887 -0.652079,-2.10887 -0.358642,0 -0.652077,-0.68633 -0.652077,-1.5252 0,-0.83888 -0.440152,-1.68131 -0.978115,-1.87208 -0.537965,-0.19076 -0.978119,-0.99565 -0.978119,-1.78865 0,-0.79302 -0.293434,-1.44186 -0.652077,-1.44186 -0.358643,0 -0.652077,-0.94896 -0.652077,-2.10883 0,-1.47284 -0.294987,-2.10884 -0.978116,-2.10884 -0.608608,0 -0.978118,-0.56905 -0.978118,-1.50634 0,-0.82846 -0.293434,-1.5063 -0.652077,-1.5063 -0.358643,0 -0.65208,-0.95749 -0.65208,-2.12777 0,-1.33549 -0.364189,-2.25691 -0.978115,-2.47455 -0.60351,-0.21399 -0.978119,-1.12979 -0.978119,-2.39121 0,-1.12443 -0.293435,-2.04439 -0.652078,-2.04439 -0.358642,0 -0.652076,-0.95749 -0.652076,-2.12774 0,-1.33553 -0.36419,-2.25688 -0.978119,-2.47457 -0.603508,-0.214 -0.978114,-1.12981 -0.978114,-2.39121 0,-1.12441 -0.293437,-2.04437 -0.652081,-2.04437 -0.35864,0 -0.652076,-1.05553 -0.652076,-2.34564 0,-1.52918 -0.340454,-2.46635 -0.978117,-2.69248 -0.670314,-0.23767 -0.978118,-1.20602 -0.978118,-3.07709 0,-1.50165 -0.293432,-2.73028 -0.652076,-2.73028 -0.358643,0 -0.652079,-1.22861 -0.652079,-2.73027 0,-1.87109 -0.307802,-2.83942 -0.978116,-3.07706 -0.685031,-0.24295 -0.978119,-1.23029 -0.978119,-3.29502 0,-1.62151 -0.293433,-2.94819 -0.652075,-2.94819 -0.358644,0 -0.652079,-1.35568 -0.652079,-3.01263 0,-2.27622 -0.239097,-3.0126 -0.978115,-3.0126 -0.75968,0 -0.978117,-0.79944 -0.978117,-3.57962 0,-1.9688 -0.293435,-3.74721 -0.652082,-3.952 -0.358641,-0.20481 -0.652077,-2.25434 -0.652077,-4.55452 0,-3.31576 -0.202625,-4.18212 -0.978116,-4.18212 -0.792186,0 -0.978114,-0.9668 -0.978114,-5.08593 0,-2.79724 -0.293438,-5.25347 -0.652082,-5.45828 -0.367027,-0.20962 -0.652078,-3.10934 -0.652078,-6.63345 0,-4.86984 -0.212069,-6.37067 -0.954441,-6.75456 -0.78136,-0.40406 -1.014912,-3.11379 -1.287881,-14.94247 -0.183392,-7.94692 -0.333439,-16.07575 -0.333439,-18.06411 0,-1.98833 0.150047,-10.11718 0.333439,-18.06411 0.272969,-11.82866 0.506521,-14.5384 1.287881,-14.94246 0.742372,-0.38389 0.954441,-1.88472 0.954441,-6.75456 0,-3.5241 0.285051,-6.42385 0.652078,-6.63343 0.358644,-0.20481 0.652082,-2.66104 0.652082,-5.45829 0,-4.11915 0.185928,-5.08594 0.978114,-5.08594 0.775491,0 0.978116,-0.86636 0.978116,-4.18212 0,-2.30017 0.293436,-4.34972 0.652077,-4.55453 0.358647,-0.20479 0.652082,-1.98318 0.652082,-3.95199 0,-2.78017 0.218437,-3.5796 0.978117,-3.5796 0.739018,0 0.978115,-0.73637 0.978115,-3.01261 0,-1.65697 0.293435,-3.01266 0.652079,-3.01266 0.358642,0 0.652075,-1.32667 0.652075,-2.94817 0,-2.06473 0.293088,-3.05208 0.978119,-3.29499 0.670314,-0.23767 0.978116,-1.20598 0.978116,-3.07707 0,-1.50167 0.293436,-2.73029 0.652079,-2.73029 0.358644,0 0.652076,-1.22862 0.652076,-2.73028 0,-1.87107 0.307804,-2.83943 0.978118,-3.0771 0.637663,-0.22612 0.978117,-1.16328 0.978117,-2.69248 0,-1.29008 0.293436,-2.34564 0.652076,-2.34564 0.358644,0 0.652081,-0.91996 0.652081,-2.04437 0,-1.2614 0.374606,-2.17718 0.978114,-2.3912 0.613929,-0.21767 0.978119,-1.13904 0.978119,-2.47455 0,-1.17029 0.293434,-2.12778 0.652076,-2.12778 0.358643,0 0.652078,-0.91995 0.652078,-2.04435 0,-1.26143 0.374609,-2.17721 0.978119,-2.39122 0.613926,-0.21765 0.978115,-1.13907 0.978115,-2.47456 0,-1.17027 0.293437,-2.12775 0.65208,-2.12775 0.358643,0 0.652077,-0.67784 0.652077,-1.50632 0,-0.93729 0.36951,-1.50633 0.978118,-1.50633 0.683129,0 0.978116,-0.63601 0.978116,-2.10883 0,-1.15989 0.293434,-2.10883 0.652077,-2.10883 0.358643,0 0.652077,-0.64886 0.652077,-1.44188 0,-0.79301 0.440154,-1.59789 0.978119,-1.78865 0.537963,-0.19078 0.978115,-1.03319 0.978115,-1.8721 0,-0.83883 0.293435,-1.52518 0.652077,-1.52518 0.358646,0 0.652079,-0.94901 0.652079,-2.10885 0,-1.47285 0.294989,-2.10884 0.978117,-2.10884 0.608606,0 0.978118,-0.56906 0.978118,-1.50634 0,-0.82845 0.293434,-1.5063 0.652077,-1.5063 0.358642,0 0.65208,-0.55078 0.65208,-1.22399 0,-0.67314 0.440153,-1.38 0.978114,-1.57073 0.537966,-0.19077 0.978118,-0.99569 0.978118,-1.78868 0,-0.79302 0.293434,-1.44187 0.652077,-1.44187 0.358642,0 0.652079,-0.5508 0.652079,-1.22395 0,-0.67319 0.440152,-1.38006 0.978116,-1.57082 0.537965,-0.19075 0.978119,-0.99564 0.978119,-1.78868 0,-0.79299 0.287843,-1.44182 0.639653,-1.44182 0.35181,0 0.823772,-0.67786 1.048806,-1.50632 0.225034,-0.82846 0.670779,-1.50631 0.990543,-1.50631 0.319765,0 0.581385,-0.40671 0.581385,-0.90381 0,-0.49709 0.293436,-0.90379 0.65208,-0.90379 0.358642,0 0.652076,-0.37348 0.652076,-0.83 0,-0.45653 0.440153,-1.16757 0.978116,-1.58009 0.537967,-0.41254 0.978117,-1.25915 0.978117,-1.88136 0,-0.62221 0.287847,-1.1313 0.639657,-1.1313 0.351808,0 0.82377,-0.677832 1.048804,-1.506288 0.225035,-0.828484 0.670776,-1.506316 0.990542,-1.506316 0.319765,0 0.581388,-0.406719 0.581388,-0.903802 0,-0.497073 0.261623,-0.903782 0.581387,-0.903782 0.319763,0 0.765507,-0.677862 0.990541,-1.506339 0.225033,-0.828458 0.696995,-1.506304 1.048805,-1.506304 0.351813,0 0.639656,-0.406707 0.639656,-0.903798 0,-0.497063 0.226707,-0.903775 0.503792,-0.903775 0.277086,0 1.056882,-0.949003 1.732878,-2.108848 0.675999,-1.159873 1.476314,-2.108857 1.778479,-2.108857 0.302169,0 0.549398,-0.369948 0.549398,-0.822121 0,-0.452195 0.868872,-1.740098 1.930829,-2.862021 1.061958,-1.121931 2.309056,-2.699141 2.771329,-3.504963 0.462278,-0.805793 1.794168,-2.324445 2.959759,-3.374748 1.165591,-1.050324 2.119248,-2.210701 2.119248,-2.578677 0,-0.367946 1.173737,-1.742793 2.608306,-3.055151 1.434581,-1.312392 2.608306,-2.510292 2.608306,-2.662006 0,-0.151722 1.100411,-1.373534 2.445308,-2.715141 3.444234,-3.435771 4.075497,-4.196421 4.075497,-4.910916 0,-0.345377 0.440145,-0.627956 0.978104,-0.627956 0.537971,0 0.978107,-0.216519 0.978107,-0.481153 0,-0.636986 5.118315,-5.544118 5.782729,-5.544118 0.284719,0 0.910299,-0.677844 1.390131,-1.506319 0.479861,-0.828473 1.192691,-1.506317 1.584011,-1.506317 0.39138,0 1.50274,-0.677841 2.46969,-1.506315 0.96694,-0.828475 2.06433,-1.506318 2.43862,-1.506318 0.3743,0 0.68054,-0.406707 0.68054,-0.903791 0,-0.497086 0.31443,-0.90379 0.69865,-0.90379 0.9028,0 2.56173,-1.532886 2.56173,-2.367071 0,-0.355059 0.44017,-0.645561 0.97811,-0.645561 0.538,0 0.97813,-0.271141 0.97813,-0.60253 0,-0.331389 0.37978,-0.602526 0.84395,-0.602526 0.46419,0 2.10266,-1.084549 3.64111,-2.410107 1.53844,-1.325563 3.21272,-2.410107 3.72062,-2.410107 0.50785,0 0.9234,-0.271139 0.9234,-0.602529 0,-0.33139 0.44018,-0.602526 0.97813,-0.602526 0.53797,0 0.97812,-0.406706 0.97812,-0.903791 0,-0.497084 0.44015,-0.903791 0.9781,-0.903791 0.53797,0 0.97813,-0.271135 0.97813,-0.602526 0,-0.331391 0.5961,-0.602528 1.32464,-0.602528 0.72853,0 1.4935,-0.406704 1.69995,-0.903789 0.20643,-0.497083 0.93083,-0.903789 1.60972,-0.903789 0.67891,0 1.23438,-0.271137 1.23438,-0.602528 0,-0.331389 0.44016,-0.602527 0.97813,-0.602527 0.53796,0 0.97813,-0.406707 0.97813,-0.90379 0,-0.562359 0.61582,-0.903791 1.63017,-0.903791 0.89662,0 1.6302,-0.271138 1.6302,-0.602527 0,-0.33139 0.73358,-0.602527 1.63019,-0.602527 1.01436,0 1.63021,-0.341431 1.63021,-0.903789 0,-0.562361 0.61586,-0.903792 1.63019,-0.903792 0.89662,0 1.63017,-0.271137 1.63017,-0.602526 0,-0.331389 0.59612,-0.602526 1.32466,-0.602526 0.72853,0 1.49351,-0.406709 1.69993,-0.903793 0.20647,-0.497083 1.07756,-0.903789 1.93579,-0.903789 0.85823,0 1.56044,-0.271136 1.56044,-0.602527 0,-0.331388 0.73358,-0.602527 1.63019,-0.602527 1.01433,0 1.63018,-0.341429 1.63018,-0.90379 0,-0.598499 0.64782,-0.903791 1.91774,-0.903791 1.05478,0 2.09912,-0.271137 2.32077,-0.602526 0.22165,-0.331391 1.12849,-0.602527 2.01517,-0.602527 0.88672,0 1.7811,-0.406707 1.98752,-0.903792 0.23162,-0.557645 1.22269,-0.90379 2.58786,-0.90379 1.21688,0 2.21252,-0.271136 2.21252,-0.602523 0,-0.331391 1.15277,-0.60253 2.56173,-0.60253 1.40896,0 3.00188,-0.406706 3.53983,-0.903789 0.5444,-0.503039 2.13827,-0.903792 3.59451,-0.903792 1.43906,0 2.79779,-0.271136 3.01944,-0.602527 0.22166,-0.33139 2.15551,-0.602525 4.29744,-0.602525 2.86019,0 3.99414,-0.240022 4.26981,-0.9037916 0.30766,-0.7408416 1.94291,-0.9037899 9.07013,-0.9037899 5.59903,0 8.85203,-0.2350412 9.13634,-0.6601402 0.27824,-0.4159936 1.31741,-0.5031585 2.80981,-0.2356776 1.30256,0.233452 6.3274,0.5460201 11.16628,0.6945998 6.75992,0.2075621 8.91998,0.471527 9.32453,1.1394704 0.36672,0.6055151 1.70397,0.8693291 4.40656,0.8693291 2.152,0 3.88005,0.268346 3.88005,0.602525 0,0.331391 1.43581,0.602527 3.19063,0.602527 2.23457,0 3.30309,0.270814 3.56595,0.903792 0.24778,0.596555 1.26897,0.903789 3.00414,0.903789 1.44582,0 2.62877,0.271139 2.62877,0.60253 0,0.331387 1.17374,0.602523 2.60833,0.602523 1.88377,0 2.60829,0.251054 2.60829,0.90379 0,0.556533 0.6116,0.903792 1.59173,0.903792 0.87543,0 1.77305,0.271136 1.99471,0.602527 0.22165,0.331389 1.23457,0.602526 2.251,0.602526 1.04112,0 2.01183,0.394613 2.22331,0.903791 0.20646,0.497086 0.9541,0.90379 1.66146,0.90379 0.70737,0 1.46749,0.271139 1.68916,0.602527 0.22167,0.331391 0.98178,0.602527 1.68914,0.602527 0.70738,0 1.45505,0.406706 1.66148,0.903789 0.20646,0.497084 1.07753,0.903793 1.93576,0.903793 0.85825,0 1.56044,0.271137 1.56044,0.602526 0,0.331389 0.55549,0.602526 1.23438,0.602526 0.67894,0 1.40331,0.406705 1.60975,0.903792 0.20643,0.497085 0.97141,0.903789 1.69995,0.903789 0.72854,0 1.32464,0.271137 1.32464,0.602527 0,0.331389 0.57173,0.602527 1.27053,0.602527 0.6988,0 2.06212,0.677842 3.02956,1.506319 0.96747,0.828474 2.30306,1.506317 2.96795,1.506317 0.66492,0 1.20898,0.406706 1.20898,0.903789 0,0.49934 0.57829,0.903789 1.29225,0.903789 0.71076,0 2.34987,0.948982 3.64242,2.108845 1.29258,1.159867 2.9118,2.108846 3.59831,2.108846 0.6865,0 1.24816,0.406704 1.24816,0.903789 0,0.497084 0.26263,0.90379 0.58363,0.90379 0.32098,0 1.27468,0.673157 2.11927,1.495907 0.84459,0.822751 1.90784,1.500592 2.3628,1.506317 0.45498,0.0057 2.57693,1.637232 4.71547,3.625573 2.13854,1.98834 4.0528,3.615161 4.2539,3.615161 0.98478,0 12.14929,10.115542 15.30152,13.863869 1.25142,1.488089 3.96571,4.291484 6.0317,6.229765 2.06601,1.938271 3.75638,3.843764 3.75638,4.234413 0,0.39066 0.51352,1.12462 1.14115,1.631056 0.62763,0.506412 1.65106,1.583447 2.27434,2.393373 0.62323,0.809927 2.0189,2.624937 3.10145,4.033351 1.08254,1.408395 2.25984,2.56073 2.61623,2.56073 0.35639,0 0.64799,0.677842 0.64799,1.506324 0,0.93725 0.36951,1.506305 0.97812,1.506305 0.53797,0 0.97814,0.406691 0.97814,0.903794 0,0.497091 0.29344,0.903814 0.65204,0.903814 0.35865,0 0.65211,0.419643 0.65211,0.932552 0,0.512917 0.73359,1.560759 1.63017,2.328544 0.89664,0.767818 1.63023,1.975001 1.63023,2.68261 0,0.741974 0.41406,1.286607 0.97809,1.286607 0.53796,0 0.9781,0.406709 0.9781,0.903782 0,0.497083 0.29347,0.903802 0.65212,0.903802 0.35863,0 0.65207,0.550774 0.65207,1.223968 0,0.673155 0.44014,1.380006 0.9781,1.570767 0.53798,0.190732 0.97812,0.682859 0.97812,1.093559 0,1.11471 1.71755,4.08313 3.23115,5.58433 0.73336,0.72735 1.33338,1.87605 1.33338,2.55269 0,0.69188 0.42804,1.23027 0.97814,1.23027 0.60861,0 0.9781,0.56904 0.9781,1.50631 0,0.82846 0.29344,1.50631 0.65208,1.50631 0.35866,0 0.65208,0.67786 0.65208,1.50631 0,0.93728 0.36954,1.50634 0.97812,1.50634 0.6086,0 0.97813,0.56906 0.97813,1.50632 0,0.82847 0.29344,1.5063 0.65207,1.5063 0.35863,0 0.6521,0.67786 0.6521,1.50632 0,0.93728 0.36949,1.50633 0.9781,1.50633 0.6086,0 0.9781,0.56904 0.9781,1.5063 0,0.82849 0.29344,1.50634 0.65207,1.50634 0.35868,0 0.65208,0.78019 0.65208,1.73382 0,0.95357 0.44018,2.07132 0.97812,2.48387 0.538,0.41255 0.97814,1.39469 0.97814,2.1826 0,0.78792 0.29344,1.43254 0.65205,1.43254 0.35866,0 0.65208,0.67785 0.65208,1.50632 0,0.93727 0.36954,1.50635 0.97814,1.50635 0.68311,0 0.97813,0.63595 0.97813,2.10883 0,1.15985 0.29341,2.10883 0.65206,2.10883 0.35865,0 0.6521,0.67784 0.6521,1.50633 0,0.93725 0.36951,1.50632 0.97808,1.50632 0.70642,0 0.97812,0.66947 0.97812,2.41009 0,1.32557 0.29342,2.41012 0.65209,2.41012 0.35865,0 0.65206,0.94895 0.65206,2.10885 0,1.47283 0.295,2.10882 0.97811,2.10882 0.70643,0 0.97815,0.66947 0.97815,2.41012 0,1.32554 0.29342,2.41009 0.65208,2.41009 0.35865,0 0.6521,0.94899 0.6521,2.10886 0,1.47284 0.29495,2.10883 0.97808,2.10883 0.70399,0 0.97811,0.66554 0.97811,2.37456 0,1.30602 0.29345,2.54211 0.65207,2.74693 0.35865,0.20482 0.65208,1.44945 0.65208,2.76584 0,1.5717 0.33585,2.51252 0.97812,2.74027 0.66126,0.23447 0.97812,1.19278 0.97812,2.95817 0,1.43625 0.29346,2.77893 0.6521,2.98372 0.35862,0.20482 0.65206,1.58502 0.65206,3.06709 0,1.83952 0.31043,2.80483 0.97811,3.04157 0.68503,0.24289 0.97814,1.23019 0.97814,3.29501 0,1.62146 0.29342,2.94813 0.65207,2.94813 0.36264,0 0.6521,1.61308 0.6521,3.63408 0,2.67447 0.25826,3.72564 0.97811,3.98089 0.73851,0.26187 0.97808,1.36413 0.97808,4.50004 0,2.36714 0.28042,4.15323 0.65209,4.15323 0.38375,0 0.65208,2.11515 0.65208,5.14039 0,4.01342 0.21446,5.21643 0.97813,5.48722 0.78661,0.27889 0.97812,1.63188 0.97812,6.91016 0,3.6098 0.26978,6.56331 0.59954,6.56331 0.52443,0 1.40226,20.55688 1.40226,32.83771 0,12.28082 -0.87783,32.83772 -1.40226,32.83772 -0.32976,0 -0.59954,2.95352 -0.59954,6.56333 0,5.27826 -0.19151,6.63123 -0.97812,6.91015 -0.76367,0.27079 -0.97813,1.47379 -0.97813,5.48721 0,3.02525 -0.26833,5.14039 -0.65208,5.14039 -0.37289,0 -0.65209,1.81387 -0.65209,4.23659 0,3.21004 -0.23699,4.32065 -0.97808,4.58344 -0.71635,0.25397 -0.97811,1.29716 -0.97811,3.89752 0,1.96541 -0.29115,3.55071 -0.6521,3.55071 -0.35865,0 -0.65207,1.32664 -0.65207,2.94812 0,2.06478 -0.29311,3.0521 -0.97814,3.29501 -0.66768,0.23676 -0.97811,1.20205 -0.97811,3.04156 0,1.48205 -0.29344,2.86228 -0.65206,3.06709 -0.35864,0.2048 -0.6521,1.54749 -0.6521,2.98373 0,1.76538 -0.31686,2.72369 -0.97812,2.95815 -0.64227,0.22774 -0.97812,1.16859 -0.97812,2.74029 0,1.31638 -0.29343,2.561 -0.65208,2.76582 -0.35862,0.20484 -0.65207,1.44093 -0.65207,2.74693 0,1.70905 -0.27412,2.37456 -0.97811,2.37456 -0.68313,0 -0.97808,0.63599 -0.97808,2.10885 0,1.15986 -0.29345,2.10884 -0.6521,2.10884 -0.35866,0 -0.65208,1.08456 -0.65208,2.4101 0,1.74067 -0.27172,2.4101 -0.97815,2.4101 -0.68311,0 -0.97811,0.636 -0.97811,2.10886 0,1.15986 -0.29341,2.10885 -0.65206,2.10885 -0.35867,0 -0.65209,1.08455 -0.65209,2.41011 0,1.74062 -0.2717,2.4101 -0.97812,2.4101 -0.60857,0 -0.97808,0.56905 -0.97808,1.5063 0,0.82849 -0.29345,1.50634 -0.6521,1.50634 -0.35865,0 -0.65206,0.94895 -0.65206,2.10884 0,1.47284 -0.29502,2.10883 -0.97813,2.10883 -0.6086,0 -0.97814,0.56904 -0.97814,1.50635 0,0.82844 -0.29342,1.5063 -0.65208,1.5063 -0.35861,0 -0.65205,0.78441 -0.65205,1.74311 0,0.99361 -0.42058,1.89223 -0.97814,2.08993 -0.57177,0.20276 -0.97812,1.10561 -0.97812,2.17331 0,1.00457 -0.2934,1.82649 -0.65208,1.82649 -0.35863,0 -0.65207,0.67784 -0.65207,1.50633 0,0.93727 -0.3695,1.50631 -0.9781,1.50631 -0.60861,0 -0.9781,0.56905 -0.9781,1.50633 0,0.82845 -0.29347,1.50631 -0.6521,1.50631 -0.35863,0 -0.65207,0.67785 -0.65207,1.50631 0,0.93725 -0.36953,1.50633 -0.97813,1.50633 -0.60858,0 -0.97812,0.56904 -0.97812,1.50631 0,0.82847 -0.29342,1.50632 -0.65208,1.50632 -0.35864,0 -0.65208,0.67783 -0.65208,1.50632 0,0.93726 -0.36949,1.50631 -0.9781,1.50631 -0.60863,0 -0.97814,0.56906 -0.97814,1.50631 0,0.82847 -0.29342,1.50631 -0.65204,1.50631 -0.35865,0 -0.65209,0.40671 -0.65209,0.90382 0,0.49708 -0.27195,0.90377 -0.60432,0.90377 -0.67631,0 -2.65608,3.38924 -2.65608,4.54706 0,0.41072 -0.44014,0.90283 -0.97812,1.09357 -0.53796,0.19077 -0.9781,0.89761 -0.9781,1.57078 0,0.67319 -0.29344,1.22397 -0.65207,1.22397 -0.35865,0 -0.65212,0.4067 -0.65212,0.90379 0,0.49707 -0.44014,0.90377 -0.9781,0.90377 -0.56403,0 -0.97809,0.54465 -0.97809,1.28663 0,0.7076 -0.73359,1.91477 -1.63023,2.68259 -0.89658,0.76779 -1.63017,1.81564 -1.63017,2.32856 0,0.5129 -0.29346,0.93255 -0.65211,0.93255 -0.3586,0 -0.65204,0.40673 -0.65204,0.9038 0,0.4971 -0.44017,0.90378 -0.97814,0.90378 -0.60861,0 -0.97812,0.56906 -0.97812,1.50634 0,0.82846 -0.2916,1.5063 -0.64799,1.5063 -0.35639,0 -1.53369,1.15234 -2.61623,2.56074 -1.08255,1.40841 -2.47822,3.22341 -3.10145,4.03335 -0.62328,0.80993 -1.64671,1.88696 -2.27434,2.39337 -0.62763,0.50644 -1.14115,1.2404 -1.14115,1.63107 0,0.39065 -1.69037,2.29613 -3.75638,4.23442 -2.06599,1.93827 -4.77392,4.74426 -6.01758,6.2355 -3.03879,3.64368 -14.32748,13.8581 -15.31564,13.8581 -0.2011,0 -2.11536,1.62685 -4.2539,3.61517 -2.13854,1.98836 -4.1415,3.61517 -4.45102,3.61517 -0.30953,0 -1.41536,0.67752 -2.45738,1.5056 -1.04208,0.82805 -2.11474,1.50588 -2.38371,1.50629 -0.26898,4.1e-4 -0.48906,0.40747 -0.48906,0.90452 0,0.4971 -0.56166,0.90381 -1.24816,0.90381 -0.68651,0 -2.30573,0.94898 -3.59831,2.10884 -1.29255,1.15983 -2.93166,2.10885 -3.64242,2.10885 -0.71396,0 -1.29225,0.40447 -1.29225,0.9038 0,0.49707 -0.54406,0.90377 -1.20898,0.90377 -0.66489,0 -2.00048,0.67785 -2.96795,1.50633 -0.96744,0.82846 -2.33076,1.50631 -3.02956,1.50631 -0.6988,0 -1.27053,0.27114 -1.27053,0.60254 0,0.33134 -0.5961,0.60251 -1.32464,0.60251 -0.72854,0 -1.49352,0.4067 -1.69995,0.90379 -0.20644,0.49709 -0.93081,0.9038 -1.60975,0.9038 -0.67889,0 -1.23438,0.27114 -1.23438,0.60249 0,0.33142 -0.70219,0.60255 -1.56044,0.60255 -0.85823,0 -1.7293,0.40671 -1.93576,0.90382 -0.20643,0.49705 -0.9541,0.90376 -1.66148,0.90376 -0.70736,0 -1.46747,0.27115 -1.68914,0.60254 -0.22167,0.33138 -0.98179,0.60253 -1.68916,0.60253 -0.70736,0 -1.455,0.40669 -1.66146,0.90379 -0.21148,0.50915 -1.18219,0.90379 -2.22331,0.90379 -1.01643,0 -2.02935,0.27112 -2.251,0.60253 -0.22166,0.33138 -1.11928,0.60252 -1.99471,0.60252 -0.98013,0 -1.59173,0.34725 -1.59173,0.90378 0,0.65273 -0.72452,0.90379 -2.60829,0.90379 -1.43459,0 -2.60833,0.27115 -2.60833,0.60254 0,0.33141 -1.18295,0.60251 -2.62877,0.60251 -1.73517,0 -2.75636,0.30724 -3.00414,0.9038 -0.26286,0.63297 -1.33138,0.90379 -3.56595,0.90379 -1.75482,0 -3.19063,0.27116 -3.19063,0.60255 0,0.33417 -1.72805,0.6025 -3.88005,0.6025 -2.70259,0 -4.03984,0.26382 -4.40656,0.86935 -0.40455,0.66793 -2.56461,0.93188 -9.32453,1.13944 -4.83888,0.14858 -9.86372,0.46118 -11.16628,0.69462 -1.4924,0.2675 -2.53157,0.18033 -2.80981,-0.23568 z"
     id="path456" />
  <path
     style="display:inline;fill:#000000;stroke-width:1.33333"
     d="M 186.50928,545.33354 C 147.19246,539.06832 113.42001,521.30574 83.015245,490.90098 41.949105,449.83483 14.725791,390.84475 4.4538817,320.66668 c -3.2623732,-22.28865 -3.2623732,-72.37802 0,-94.66667 C 21.478691,109.68588 86.836153,23.80157 173.62214,3.7010066 c 17.64497,-4.08676511 49.77742,-4.08676511 67.4224,0 69.09545,16.0032464 126.95752,75.8073994 154.80211,159.9978834 12.12009,36.64615 16.70805,66.75125 16.70805,109.63445 0,33.66551 -1.64116,49.65237 -8.05997,78.51384 -21.85,98.24609 -85.98451,173.46422 -162.77771,190.90866 -13.38351,3.04021 -43.48531,4.44569 -55.20774,2.5777 z m 48.82406,-49.01469 c 35.64046,-9.91044 65.40362,-33.20111 89.00853,-69.65217 19.4769,-30.07649 32.71876,-66.56925 39.20644,-108.04753 3.34502,-21.38599 3.34502,-69.18562 0,-90.57161 -14.5698,-93.15049 -63.56264,-160.478057 -129.66092,-178.184283 -12.88496,-3.451587 -41.55648,-3.451587 -54.44144,0 -36.07863,9.664644 -66.63908,33.360659 -90.454487,70.136753 -19.476891,30.07649 -32.718757,66.56925 -39.206434,108.04753 -3.345012,21.38599 -3.345012,69.18562 0,90.57161 15.057528,96.26873 66.903511,164.9116 135.548311,179.4628 11.978,2.53908 37.80318,1.62843 50,-1.7631 z"
     id="path293" />
</svg>
