<?xml version="1.0" encoding="UTF-8" standalone="no"?>
<!-- Created with Inkscape (http://www.inkscape.org/) -->

<svg
   version="1.1"
   id="svg2"
   width="413.33334"
   height="546.66669"
   viewBox="0 0 413.33334 546.66669"
   sodipodi:docname="Bloodshot-eye-outer.svg"
   inkscape:version="1.2.2 (b0a8486541, 2022-12-01)"
   xmlns:inkscape="http://www.inkscape.org/namespaces/inkscape"
   xmlns:sodipodi="http://sodipodi.sourceforge.net/DTD/sodipodi-0.dtd"
   xmlns="http://www.w3.org/2000/svg"
   xmlns:svg="http://www.w3.org/2000/svg">
  <defs
     id="defs6" />
  <sodipodi:namedview
     id="namedview4"
     pagecolor="#ffffff"
     bordercolor="#000000"
     borderopacity="0.25"
     inkscape:showpageshadow="2"
     inkscape:pageopacity="0.0"
     inkscape:pagecheckerboard="0"
     inkscape:deskcolor="#d1d1d1"
     showgrid="false"
     inkscape:zoom="1.3284122"
     inkscape:cx="-186.31265"
     inkscape:cy="132.86539"
     inkscape:window-width="2560"
     inkscape:window-height="1324"
     inkscape:window-x="0"
     inkscape:window-y="0"
     inkscape:window-maximized="1"
     inkscape:current-layer="svg2" />
  <path
     style="display:inline;fill:#000000;stroke-width:1.33333"
     d="M 186.50928,545.33354 C 147.19246,539.06832 113.42001,521.30574 83.015245,490.90098 41.949105,449.83483 14.725791,390.84475 4.4538817,320.66668 c -3.2623732,-22.28865 -3.2623732,-72.37802 0,-94.66667 C 21.478691,109.68588 86.836153,23.80157 173.62214,3.7010066 c 17.64497,-4.08676511 49.77742,-4.08676511 67.4224,0 69.09545,16.0032464 126.95752,75.8073994 154.80211,159.9978834 12.12009,36.64615 16.70805,66.75125 16.70805,109.63445 0,33.66551 -1.64116,49.65237 -8.05997,78.51384 -21.85,98.24609 -85.98451,173.46422 -162.77771,190.90866 -13.38351,3.04021 -43.48531,4.44569 -55.20774,2.5777 z m 48.82406,-49.01469 c 35.64046,-9.91044 65.40362,-33.20111 89.00853,-69.65217 19.4769,-30.07649 32.71876,-66.56925 39.20644,-108.04753 3.34502,-21.38599 3.34502,-69.18562 0,-90.57161 -14.5698,-93.15049 -63.56264,-160.478057 -129.66092,-178.184283 -12.88496,-3.451587 -41.55648,-3.451587 -54.44144,0 -36.07863,9.664644 -66.63908,33.360659 -90.454487,70.136753 -19.476891,30.07649 -32.718757,66.56925 -39.206434,108.04753 -3.345012,21.38599 -3.345012,69.18562 0,90.57161 15.057528,96.26873 66.903511,164.9116 135.548311,179.4628 11.978,2.53908 37.80318,1.62843 50,-1.7631 z"
     id="path293" />
</svg>
