<?xml version="1.0" encoding="UTF-8" standalone="no"?>
<!-- Created with Inkscape (http://www.inkscape.org/) -->

<svg
   version="1.1"
   id="svg2069"
   width="7933.333"
   height="447.99997"
   viewBox="0 0 4533.3331 255.99998"
   sodipodi:docname="pupil.svg"
   inkscape:version="1.2.2 (b0a8486541, 2022-12-01)"
   xmlns:inkscape="http://www.inkscape.org/namespaces/inkscape"
   xmlns:sodipodi="http://sodipodi.sourceforge.net/DTD/sodipodi-0.dtd"
   xmlns="http://www.w3.org/2000/svg"
   xmlns:svg="http://www.w3.org/2000/svg">
  <defs
     id="defs2073" />
  <sodipodi:namedview
     id="namedview2071"
     pagecolor="#ffffff"
     bordercolor="#000000"
     borderopacity="0.25"
     inkscape:showpageshadow="2"
     inkscape:pageopacity="0.0"
     inkscape:pagecheckerboard="0"
     inkscape:deskcolor="#d1d1d1"
     showgrid="false"
     inkscape:zoom="1.215"
     inkscape:cx="344.85597"
     inkscape:cy="-53.909465"
     inkscape:window-width="1955"
     inkscape:window-height="1440"
     inkscape:window-x="543"
     inkscape:window-y="61"
     inkscape:window-maximized="0"
     inkscape:current-layer="g2075" />
  <g
     inkscape:groupmode="layer"
     inkscape:label="Image"
     id="g2075">
    <g
       id="g5919"
       style="display:inline;opacity:1;fill:#000000;fill-opacity:1;stroke:#fcf722;stroke-width:28;stroke-linecap:round;stroke-linejoin:round;stroke-dasharray:none;stroke-opacity:1">
      <path
         style="fill:#000000;fill-opacity:1;stroke:#fcf705;stroke-width:28;stroke-linecap:round;stroke-linejoin:round;stroke-dasharray:none;stroke-opacity:1"
         d="m 2953.8713,86.42034 c -8.8335,-2.360773 -15.5593,-15.52824 -12.7393,-24.940575 3.2604,-10.882156 10.0722,-14.765786 26.5386,-15.130368 31.1848,-0.690464 59.486,0.526716 63.2616,2.720762 13.3139,7.736793 13.4907,27.1426 0.326,35.768432 -3.603,2.360792 -69.4368,3.706401 -77.3869,1.581749 z"
         id="path5819" />
      <path
         style="fill:#000000;fill-opacity:1;stroke:#fcf722;stroke-width:28;stroke-linecap:round;stroke-linejoin:round;stroke-dasharray:none;stroke-opacity:1"
         d="m 626.36076,88.087388 c -2.0016,-0.646493 -4.57919,-2.115369 -5.72799,-3.264169 -1.54461,-1.544604 -3.59237,-1.88263 -7.86079,-1.297579 -16.99376,2.329255 -29.81563,-14.493889 -22.61373,-29.670743 5.468,-11.522965 20.94077,-16.646522 30.01376,-9.938572 5.00033,3.696912 23.4048,3.381774 33.17589,-0.568069 11.50328,-4.650052 23.50374,1.367396 26.50616,13.291121 C 683.64104,71.678796 674.08928,84 658.6433,84 c -2.9933,0 -7.30986,0.965719 -9.59236,2.146041 -4.89417,2.530875 -17.52033,3.611155 -22.69018,1.941347 z"
         id="path5821" />
      <path
         style="fill:#000000;fill-opacity:1;stroke:#fcf722;stroke-width:28;stroke-linecap:round;stroke-linejoin:round;stroke-dasharray:none;stroke-opacity:1"
         d="m 411.33335,87.42696 c -22.89174,-10.651709 -14.40324,-39.149512 12.26336,-41.170859 6.01151,-0.455677 13.21151,-1.8266 16,-3.046496 6.25027,-2.734338 21.77153,-2.6162 27.23153,0.207271 2.57631,1.332267 9.0253,2.09162 20.0479,2.360599 18.63913,0.454838 25.27017,4.729726 27.18947,17.528449 2.9049,19.371284 -12.41811,29.026673 -35.11254,22.125241 -10.57659,-3.216368 -34.05943,-2.939385 -42.05253,0.496015 -7.08776,3.046292 -20.5468,3.835804 -25.56719,1.49978 z"
         id="path5823" />
      <path
         style="fill:#000000;fill-opacity:1;stroke:#fcf722;stroke-width:28;stroke-linecap:round;stroke-linejoin:round;stroke-dasharray:none;stroke-opacity:1"
         d="m 3362.0001,88.403633 c -3.5116,-1.285365 -7.7244,-1.687717 -12.3333,-1.177914 -3.85,0.425854 -10.15,1.127725 -14,1.559712 -15.7187,1.763694 -27.2093,-15.334 -19.9148,-29.632423 2.5864,-5.069655 11.2817,-12.486341 14.6391,-12.486341 0.8694,0 4.8573,-2.967212 8.862,-6.593803 11.3144,-10.246484 25.3956,-10.037079 33.4304,0.497157 1.8221,2.38885 6.2514,6.348695 9.8432,8.799656 26.5705,18.131619 9.7508,50.11658 -20.5266,39.033956 z"
         id="path5825" />
      <path
         style="fill:#000000;fill-opacity:1;stroke:#fcf722;stroke-width:28;stroke-linecap:round;stroke-linejoin:round;stroke-dasharray:none;stroke-opacity:1"
         d="m 3180.5887,87.539504 c -8.5827,-4.908711 -10.939,-5.078 -18.3573,-1.318876 -19.6886,9.976955 -38.1808,-8.735899 -28.0084,-28.342563 3.2474,-6.259053 8.2334,-9.401477 17.794,-11.214612 3.922,-0.743801 8.12,-2.24736 9.3287,-3.341242 5.8623,-5.305258 33.319,0.574109 42.4484,9.089557 19.1139,17.82856 -0.7849,47.950852 -23.2054,35.127736 z"
         id="path5827" />
      <path
         style="fill:#000000;fill-opacity:1;stroke:#fbf732;stroke-width:28;stroke-linecap:round;stroke-linejoin:round;stroke-dasharray:none;stroke-opacity:1"
         d="m 2618.6668,87.390455 c -11.7198,-6.184696 -12.3578,-6.348468 -20.6667,-5.305704 -16.5604,2.078296 -22.4604,1.567272 -27.6533,-2.395144 -16.6768,-12.725124 -6.7544,-38.356274 14.8486,-38.356274 2.9044,0 6.1164,0.835482 7.1375,1.856624 5.3897,5.389743 15.9104,9.0492 23.5127,8.17849 8.8074,-1.008775 20.0977,-1.190808 32.1545,-0.518432 7.6845,0.428549 9.2761,0.06936 14.0451,-3.169767 15.816,-10.742408 34.3714,-4.053796 36.3033,13.086107 1.7875,15.85827 -9.9915,24.21068 -31.0151,21.992752 -8.9693,-0.946232 -11.5153,-0.75095 -16,1.22719 -17.4981,7.718276 -23.3382,8.326878 -32.6666,3.404158 z"
         id="path5829" />
      <path
         style="fill:#000000;fill-opacity:1;stroke:#faf88a;stroke-width:28;stroke-linecap:round;stroke-linejoin:round;stroke-dasharray:none;stroke-opacity:1"
         d="m 2250.4366,84.333333 c -8.0323,-7.666666 -8.0323,-7.666666 -24.4623,-8.333333 -18.2226,-0.739409 -21.4736,-2.22252 -25.4794,-11.623841 -9.9995,-23.467752 22.3121,-39.664632 35.9693,-18.030351 4.476,7.090376 12.7832,10.835411 18.6443,8.405061 6.671,-2.766226 12.4553,-3.183638 20.9523,-1.511972 10.8686,2.138274 17.3196,0.11316 23.4426,-7.359302 14.3566,-17.520168 37.83,-10.345342 37.83,11.562964 0,12.999378 -7.9082,18.557441 -26.4044,18.557441 -17.4744,0 -18.6389,0.373339 -28.6732,9.193097 -11.7888,10.361955 -20.3035,10.131887 -31.8192,-0.859764 z"
         id="path5831" />
      <path
         style="fill:#000000;fill-opacity:1;stroke:#fcf705;stroke-width:28;stroke-linecap:round;stroke-linejoin:round;stroke-dasharray:none;stroke-opacity:1"
         d="m 2802.0001,92.022376 c -2.2,-0.570896 -6.2484,-2.016836 -8.9963,-3.2132 -3.3784,-1.470807 -6.7056,-1.901891 -10.2744,-1.3312 -28.0942,4.492453 -44.4174,-22.448132 -22.7141,-37.488548 6.2432,-4.326548 21.2912,-5.096476 29.7616,-1.522759 7.9724,3.363578 25.484,2.794723 41.7663,-1.356757 15.4118,-3.92956 20.7758,-3.579907 27.1322,1.768631 17.6963,14.890426 6.4032,37.076809 -20.2824,39.846717 -4.6161,0.479147 -11.3518,1.711979 -14.9682,2.739625 -7.0791,2.011607 -15.0244,2.21835 -21.4247,0.557491 z"
         id="path5833" />
      <path
         style="fill:#000000;fill-opacity:1;stroke:#faf88a;stroke-width:28;stroke-linecap:round;stroke-linejoin:round;stroke-dasharray:none;stroke-opacity:1"
         d="m 2069.3334,86.976752 c -9.2033,-7.024796 -18.7576,-10.973559 -26.5708,-10.981736 -18.2209,-0.01907 -25.4917,-25.171943 -10.4303,-36.082464 10.2656,-7.436292 18.2334,-5.493369 31.0011,7.559551 5.3333,5.452445 5.3333,5.452445 22.5543,6.252142 19.1844,0.89087 20.1121,0.638819 25.3225,-6.879737 12.5821,-18.156161 38.2101,-8.989051 36.446,13.036768 -0.976,12.186983 -7.9103,17.452057 -22.9848,17.452057 -12.7093,0 -14.8832,0.879102 -24.3299,9.838955 -9.2893,8.810685 -19.2914,8.747612 -31.0081,-0.195536 z"
         id="path5835" />
      <path
         style="fill:#000000;fill-opacity:1;stroke:#fcf722;stroke-width:28;stroke-linecap:round;stroke-linejoin:round;stroke-dasharray:none;stroke-opacity:1"
         d="m 304.66668,91.483245 c -2.2,-1.05231 -6.67836,-4.698062 -9.95192,-8.10167 -7.82987,-8.140919 -29.85162,-8.107091 -38.96843,0.05987 -17.58348,15.75149 -39.67266,9.451176 -40.86531,-11.655672 -0.81497,-14.423033 10.80713,-24.186656 26.31463,-22.106665 5.92596,0.794837 10.07533,-1.388423 16.99595,-8.942691 8.11385,-8.85675 20.09418,-7.234529 30.85214,4.177602 8.40304,8.914008 8.40304,8.914008 13.16026,7.193776 25.77828,-9.321544 46.11447,18.90559 26.68425,37.038384 -4.27314,3.987802 -18.00127,5.312394 -24.22157,2.337077 z"
         id="path5837" />
      <path
         style="fill:#000000;fill-opacity:1;stroke:#f9c914;stroke-width:28;stroke-linecap:round;stroke-linejoin:round;stroke-dasharray:none;stroke-opacity:1"
         d="m 3510.7097,92.258379 c -12.1064,-6.621404 -14.1941,-19.912738 -5.2656,-33.522459 3.1022,-4.728577 6.7924,-12.437664 8.2006,-17.131304 4.4145,-14.71486 13.8442,-21.609317 25.8517,-18.901212 6.4097,1.445651 13.5719,8.527309 14.6987,14.533585 0.9133,4.86824 5.814,15.033119 9.016,18.700414 7.277,8.334758 8.2162,20.772072 2.196,29.08265 -5.008,6.91344 -6.7536,7.423696 -26.0736,7.621519 -8.8,0.09011 -17.8,0.609749 -20,1.154765 -2.8751,0.712247 -5.3004,0.279714 -8.6238,-1.537958 z"
         id="path5839" />
      <path
         style="fill:#000000;fill-opacity:1;stroke:#f9c914;stroke-width:28;stroke-linecap:round;stroke-linejoin:round;stroke-dasharray:none;stroke-opacity:1"
         d="m 4401.3599,93 c -18.226,-9.311805 -13.2097,-33.962577 8.0776,-39.694684 2.7691,-0.745624 6.5371,-3.141112 8.3732,-5.323304 3.2907,-3.910673 3.8248,-5.121165 5.4099,-12.258071 4.1986,-18.905085 33.3997,-17.22044 39.4524,2.276059 2.2413,7.220068 5.3742,10.334056 15.3256,15.233068 16.5574,8.151193 21.7366,21.309963 13.2228,33.59534 -7.7235,11.145016 -19.7694,11.536845 -32.8146,1.067392 C 4445.8088,77.785276 4439.19,77.558955 4428.431,86.870821 4417.3086,96.497127 4411.0004,97.925373 4401.3599,93 Z"
         id="path5841" />
      <path
         style="fill:#000000;fill-opacity:1;stroke:#f9c914;stroke-width:28;stroke-linecap:round;stroke-linejoin:round;stroke-dasharray:none;stroke-opacity:1"
         d="m 3693.1901,94 c -10.2608,-7.083189 -11.1685,-16.548176 -3.0818,-32.136152 5.416,-10.440013 6.0102,-12.426412 5.2448,-17.530873 -2.7966,-18.648855 17.497,-31.464461 32.7253,-20.666308 6.5817,4.66705 6.8799,5.384076 7.9015,19 0.6745,8.988996 1.7298,13.085414 5.102,19.803498 6.4445,12.838915 6.0854,20.933196 -1.283,28.92706 -5.5346,6.004312 -5.5346,6.004312 -24.1401,5.636876 C 3699.6025,96.717013 3696.5239,96.301272 3693.1901,94 Z"
         id="path5843" />
      <path
         style="fill:#000000;fill-opacity:1;stroke:#faf88a;stroke-width:28;stroke-linecap:round;stroke-linejoin:round;stroke-dasharray:none;stroke-opacity:1"
         d="m 2431.1441,90.015741 c -11.4575,-10.220998 -17.9544,-12.077102 -29.8248,-8.520629 -10.7059,3.207536 -25.3685,-5.961675 -27.4732,-17.180095 -4.5419,-24.210485 26.8255,-34.588714 40.3264,-13.342402 5.3608,8.436273 12.3873,11.083464 20.0971,7.571321 5.5965,-2.549528 7.6348,-2.752451 19.3237,-1.923753 17.5757,1.246058 19.8765,0.582437 25.9983,-7.498599 15.119,-19.958107 43.0752,-13.919053 43.0752,9.30508 0,13.051376 -9.8242,19.698176 -28.4894,19.275217 -15.1426,-0.343138 -19.5573,1.446518 -32.6181,13.222932 -10.7585,9.700577 -18.7912,9.460487 -30.4152,-0.909072 z"
         id="path5845" />
      <path
         style="fill:#000000;fill-opacity:1;stroke:#fcf722;stroke-width:28;stroke-linecap:round;stroke-linejoin:round;stroke-dasharray:none;stroke-opacity:1"
         d="m 809.12895,95.225148 c -4.14959,-1.268955 -7.46148,-3.470377 -10,-6.647029 -4.65329,-5.82301 -9.38945,-10.562476 -16.23099,-16.242312 -11.62596,-9.651863 -9.70641,-28.835131 3.55314,-35.508579 4.83662,-2.434247 16.91278,-0.928595 23.06916,2.876256 6.09333,3.765888 8.30913,3.715037 16.37241,-0.375731 13.20295,-6.698294 25.72471,-1.823897 30.05565,11.699892 3.45576,10.790898 -1.47158,20.91807 -13.12197,26.969626 -3.38781,1.759728 -8.14667,5.633961 -10.57524,8.609408 -7.26784,8.90446 -13.99156,11.410633 -23.12216,8.618469 z"
         id="path5847" />
      <path
         style="fill:#000000;fill-opacity:1;stroke:#fcf722;stroke-width:28;stroke-linecap:round;stroke-linejoin:round;stroke-dasharray:none;stroke-opacity:1"
         d="M 53.333335,96.093536 C 36.12866,92.653341 28.88627,73.528216 39.996415,60.87446 43.861767,56.472067 47.652784,54.8319 61.247637,51.680215 67.91051,50.135565 68.736356,49.515903 71.483319,44 81.129918,24.62962 98.699966,24.553748 113.37479,43.8191 c 3.54775,4.657536 6.17669,6.615288 10.66667,7.943385 24.15197,7.143944 32.00383,25.222724 16.76544,38.602199 -11.96415,10.504666 -22.60024,8.356244 -34.36491,-6.94148 -8.709493,-11.325052 -12.319065,-12.761497 -21.108654,-8.400281 -3.864308,1.91739 -6.797414,4.574181 -8.24025,7.46397 -2.266831,4.540128 -14.738418,14.975395 -17.560298,14.693108 -0.843033,-0.08433 -3.632786,-0.573241 -6.199453,-1.086465 z"
         id="path5849" />
      <path
         style="fill:#000000;fill-opacity:1;stroke:#faf88a;stroke-width:28;stroke-linecap:round;stroke-linejoin:round;stroke-dasharray:none;stroke-opacity:1"
         d="m 1894.5306,96.989239 c -2.4919,-1.65592 -5.8541,-5.629527 -7.4719,-8.83024 -5.2684,-10.423306 -13.7346,-16.348475 -25.523,-17.862468 -17.9599,-2.306588 -22.4878,-25.472723 -7.0674,-36.159031 11.7998,-8.177236 25.1874,-2.339617 31.1224,13.570907 3.4982,9.377313 6.2648,11.404441 16.4506,12.05302 13.5389,0.862092 14.6258,0.256273 20.3258,-11.328107 6.0258,-12.246619 9.754,-15.357987 19.2443,-16.059929 23.0653,-1.706006 29.9165,30.124148 8.2305,38.237925 -14.9305,5.586249 -20.202,9.340472 -26.2436,18.690288 -6.8312,10.571625 -19.6332,13.957406 -29.0677,7.687635 z"
         id="path5851" />
      <path
         style="fill:#000000;fill-opacity:1;stroke:#f9c914;stroke-width:28;stroke-linecap:round;stroke-linejoin:round;stroke-dasharray:none;stroke-opacity:1"
         d="m 4220.6668,100.01665 c -15.1822,-9.991649 -11.4748,-28.786157 7.4551,-37.792246 11.4839,-5.463539 12.5225,-7.163089 12.6737,-20.735736 0.1804,-16.205847 3.2583,-21.546761 14.3076,-24.828063 14.8404,-4.407154 27.5636,5.94678 27.5636,22.430939 0,11.656695 3.8742,18.414031 12.8638,22.437479 11.0904,4.963658 16.5857,14.803129 13.8798,24.852009 -4.2201,15.672208 -17.8532,20.438958 -32.7436,11.448664 -12.7294,-7.685587 -19.2958,-7.217276 -32.8725,2.344414 -4.9693,3.49979 -17.702,3.4131 -23.1275,-0.15746 z"
         id="path5853" />
      <path
         style="fill:#000000;fill-opacity:1;stroke:#f9c914;stroke-width:28;stroke-linecap:round;stroke-linejoin:round;stroke-dasharray:none;stroke-opacity:1"
         d="m 3869.6816,98.765541 c -11.7252,-8.493657 -12.2564,-20.125357 -1.5296,-33.491221 8.2647,-10.298019 9.6213,-13.638109 8.5241,-20.986208 C 3874.7123,31.137039 3883.9956,20 3896.9215,20 c 13.7973,0 20.412,7.475089 20.412,23.067063 0,8.66405 0,8.66405 7.937,17.422285 21.0447,23.221935 7.5478,45.647712 -23.8276,39.590692 -4.1842,-0.807783 -7.4189,-0.597865 -11.1676,0.72473 -8.4392,2.97751 -14.4964,2.37772 -20.5937,-2.039229 z"
         id="path5855" />
      <path
         style="fill:#000000;fill-opacity:1;stroke:#fcf884;stroke-width:28;stroke-linecap:round;stroke-linejoin:round;stroke-dasharray:none;stroke-opacity:1"
         d="m 1718.6694,101.26453 c -5.8209,-1.326674 -12.5244,-8.960359 -15.4064,-17.544361 -2.4189,-7.20496 -7.2879,-10.898098 -16.3092,-12.370872 C 1662.4249,67.344844 1667.4465,32 1692.5443,32 c 8.2108,0 15.3106,6.719016 18.6832,17.681179 2.7067,8.797417 5.8971,11.652154 13.0223,11.652154 5.6001,0 6.0423,-0.540293 10.2593,-12.538609 7.2811,-20.71594 28.8244,-23.30116 38.724,-4.646896 5.8522,11.027541 -0.7812,24.061828 -14.0514,27.611105 -9.3479,2.500171 -13.457,5.978751 -14.5242,12.295683 -1.9824,11.733467 -14.2812,19.878074 -25.9881,17.209914 z"
         id="path5857" />
      <path
         style="fill:#000000;fill-opacity:1;stroke:#faf88a;stroke-width:28;stroke-linecap:round;stroke-linejoin:round;stroke-dasharray:none;stroke-opacity:1"
         d="m 1528.0545,99.174512 c -5.1751,-4.354535 -7.4558,-8.771616 -8.6027,-16.661145 -1.1661,-8.021823 -2.6996,-9.920108 -12.0935,-14.97055 -15.2184,-8.181958 -18.9977,-21.429156 -9.0882,-31.856089 9.3498,-9.838157 20.3349,-10.355379 29.5104,-1.38948 7.8409,7.661785 17.0246,7.762259 24.8862,0.272263 12.0587,-11.488724 26.9016,-10.376636 34.4702,2.582636 6.3202,10.821661 1.591,22.075641 -12.8136,30.492665 -8.7312,5.101805 -14.3232,11.283575 -14.3232,15.833647 0,15.493664 -20.3206,25.477891 -31.9456,15.696053 z"
         id="path5859" />
      <path
         style="fill:#000000;fill-opacity:1;stroke:#fcf722;stroke-width:28;stroke-linecap:round;stroke-linejoin:round;stroke-dasharray:none;stroke-opacity:1"
         d="m 981.99548,98.483808 c -6.24878,-5.486503 -7.27456,-7.624461 -7.9631,-16.596953 -0.44921,-5.853963 -1.62109,-9.03052 -5.30448,-14.378623 -9.01992,-13.096529 -5.64945,-27.123952 7.89476,-32.856895 6.52194,-2.760584 33.75224,-2.736029 39.66244,0.03576 12.2403,5.740456 14.7145,22.118366 5.0993,33.75415 -4.2719,5.169553 -5.2786,7.576082 -6.084,14.543336 -2.0525,17.756357 -20.79831,26.480177 -33.30492,15.499221 z"
         id="path5861" />
      <path
         style="fill:#000000;fill-opacity:1;stroke:#f9c914;stroke-width:28;stroke-linecap:round;stroke-linejoin:round;stroke-dasharray:none;stroke-opacity:1"
         d="m 4052.9119,103.40158 c -16.2506,-5.795667 -17.7716,-22.512217 -3.4316,-37.713404 9.8109,-10.400091 12.2202,-16.126097 10.3284,-24.546311 -3.3144,-14.751162 5.6601,-26.475198 20.2664,-26.475198 15.8437,0 22.0069,9.98705 19.3365,31.333333 -1.0008,8 -1.0008,8 7.7335,17.643781 10.1853,11.245958 12.5245,17.013711 10.2803,25.348274 -3.5932,13.344395 -12.1172,17.250185 -31.0302,14.218435 -9.4619,-1.51675 -12.1501,-1.49147 -18.5875,0.17482 -8.9278,2.31094 -8.4632,2.31043 -14.8958,0.0163 z"
         id="path5863" />
      <path
         style="fill:#000000;fill-opacity:1;stroke:#faf88a;stroke-width:28;stroke-linecap:round;stroke-linejoin:round;stroke-dasharray:none;stroke-opacity:1"
         d="m 1169.8726,106.70127 c -10.662,-4.31073 -13.5521,-13.325494 -10.495,-32.73497 0.7378,-4.683751 0.2371,-6.270979 -3.9328,-12.467319 -11.4398,-16.999596 -0.7013,-34.485709 21.5368,-35.069393 20.255,-0.531635 32.4249,19.700197 21.3236,35.449324 -3.316,4.7044 -3.5749,5.873597 -2.6563,12 2.5087,16.731119 1.4796,22.001567 -5.5365,28.353668 -6.6339,6.006 -12.9748,7.406 -20.2398,4.46869 z"
         id="path5865" />
      <path
         style="fill:#000000;fill-opacity:1;stroke:#faf88a;stroke-width:28;stroke-linecap:round;stroke-linejoin:round;stroke-dasharray:none;stroke-opacity:1"
         d="m 1343.1048,107.30992 c -6.5234,-6.80819 -7.7485,-14.663725 -3.7714,-24.182244 3.9804,-9.52642 2.4881,-13.827201 -9.5017,-27.385443 -6.6301,-7.497253 -8.0298,-14.447073 -4.4142,-21.915938 4.8624,-10.04453 15.3536,-15.096651 24.0904,-11.600914 3.3992,1.360126 6.8704,1.761296 10.1609,1.174316 22.5142,-4.016226 32.3142,1.759604 32.3263,19.052126 0,7.077145 -0.053,7.176944 -9.995,17.183565 -10.9954,11.066827 -11.0334,11.179505 -7.3334,21.697945 6.5675,18.670077 -0.7906,31.999997 -17.6641,31.999997 -7.8952,0 -8.2904,-0.17126 -13.8978,-6.02341 z"
         id="path5867" />
      <path
         style="fill:#000000;fill-opacity:1;stroke:#faf88a;stroke-width:28;stroke-linecap:round;stroke-linejoin:round;stroke-dasharray:none;stroke-opacity:1"
         d="m 621.2967,211.13427 c -1.81317,-1.2095 -5.42841,-4.21578 -8.03385,-6.68063 -3.89535,-3.68515 -6.62019,-4.83885 -15.33333,-6.49215 -21.94039,-4.16314 -26.53214,-7.80105 -26.57151,-21.05176 -0.0653,-22.00346 21.62271,-28.17573 37.45809,-10.66028 6.81607,7.53923 6.81607,7.53923 23.86747,7.9737 17.0514,0.43445 17.0514,0.43445 24.85791,-7.44506 8.54754,-8.62746 13.987,-10.62618 22.2888,-8.19002 25.45776,7.47057 16.03415,43.49977 -10.27712,39.29242 -6.86591,-1.0979 -13.90602,1.29819 -18.53074,6.30692 -7.94894,8.60902 -22.2305,11.94659 -29.72572,6.94686 z"
         id="path5869" />
      <path
         style="fill:#000000;fill-opacity:1;stroke:#fcf722;stroke-width:28;stroke-linecap:round;stroke-linejoin:round;stroke-dasharray:none;stroke-opacity:1"
         d="m 1500.6667,212.86264 c -12.7782,-5.92901 -16.2338,-23.87324 -6.4764,-33.63061 5.4464,-5.44643 10.7826,-6.99898 19.724,-5.73867 4.5055,0.63507 9.5567,0.27824 15.1799,-1.07236 5.2132,-1.25212 10.2985,-1.66249 13.3333,-1.07597 2.6983,0.52148 10.9059,1.07157 18.2392,1.22242 15.8104,0.32524 20.6995,2.32299 24.6536,10.07358 8.5083,16.67773 -2.3245,33.38406 -20.3949,31.45261 -4.5423,-0.48551 -12.7587,-0.73399 -18.2587,-0.55219 -5.5,0.1818 -12.25,0.2148 -15,0.0733 -2.75,-0.14147 -6.95,-0.34808 -9.3333,-0.45914 -2.3833,-0.11106 -7.3333,0.19518 -11,0.68052 -4.5513,0.60244 -7.9359,0.29355 -10.6667,-0.97353 z"
         id="path5871" />
      <path
         style="fill:#000000;fill-opacity:1;stroke:#fcf705;stroke-width:28;stroke-linecap:round;stroke-linejoin:round;stroke-dasharray:none;stroke-opacity:1"
         d="m 1163.3334,209.83543 c -9.9675,-5.02354 -14.283,-5.3414 -26.9851,-1.98762 -22.2672,5.8793 -36.9048,-25.28478 -17.811,-37.92046 9.0849,-6.0121 24.4339,-4.98552 28.7015,1.91962 1.9382,3.13608 13.5361,4.34078 22.2761,2.31386 6.1573,-1.42799 10.1268,-1.65056 13.8868,-0.77866 10.5399,2.44406 18.6173,1.57318 27.5585,-2.97128 14.707,-7.47498 26.7023,-4.9436 32.7065,6.90214 10.1322,19.98977 -6.3915,35.0758 -31.9916,29.20808 -6.4066,-1.46844 -16.1491,1.10889 -24.3051,6.42976 -4.8108,3.13852 -13.9879,1.94905 -24.0366,-3.11544 z"
         id="path5873" />
      <path
         style="fill:#000000;fill-opacity:1;stroke:#faf88a;stroke-width:28;stroke-linecap:round;stroke-linejoin:round;stroke-dasharray:none;stroke-opacity:1"
         d="m 808.00003,213.71533 c -1.83333,-0.3235 -6.79888,-3.9884 -11.03456,-8.14421 -7.70121,-7.55604 -7.70121,-7.55604 -24.44832,-8.24393 -16.74711,-0.6879 -16.74711,-0.6879 -21.10758,-5.44599 -12.24169,-13.35799 -2.67745,-32.70844 15.58738,-31.53653 7.42252,0.47625 7.90897,0.74878 15.46401,8.66392 9.04783,9.47906 12.14904,10.6004 22.96746,8.30457 4.45104,-0.94457 11.2376,-1.34228 15.46316,-0.90616 11.47594,1.18443 20.42656,-0.91769 24.57546,-5.77172 15.17752,-17.757 37.17906,-12.52108 37.19467,8.85157 0.009,13.3263 -6.84813,17.84648 -27.07607,17.84648 -15.0809,0 -18.23549,1.20462 -28.33873,10.82148 -3.71485,3.53602 -11.19753,6.78672 -14.57141,6.33028 -0.73818,-0.0999 -2.84214,-0.44626 -4.67547,-0.76976 z"
         id="path5875" />
      <path
         style="fill:#000000;fill-opacity:1;stroke:#fcf705;stroke-width:28;stroke-linecap:round;stroke-linejoin:round;stroke-dasharray:none;stroke-opacity:1"
         d="m 1348,213.32487 c -5.5,-1.43788 -14.2,-2.62754 -19.3333,-2.6437 -26.521,-0.0835 -38.5555,-21.33065 -21.1625,-37.36289 6.582,-6.06711 17.6244,-6.71996 29.529,-1.74587 4.7154,1.97018 34.6846,1.58344 38.041,-0.49089 8.8248,-5.45405 29.4687,-3.99051 34.9089,2.47488 13.2564,15.75423 3.7551,34.06003 -19.1142,36.82683 -6.8555,0.8294 -13.1815,2.10306 -14.0579,2.83036 -3.3316,2.76501 -18.4371,2.82334 -28.811,0.11133 z"
         id="path5877" />
      <path
         style="fill:#000000;fill-opacity:1;stroke:#fcf722;stroke-width:28;stroke-linecap:round;stroke-linejoin:round;stroke-dasharray:none;stroke-opacity:1"
         d="m 3386.6668,216.4748 c -1.1,-0.43531 -5.4715,-4.38516 -9.7144,-8.77747 -7.0819,-7.3313 -8.0656,-7.91486 -12,-7.11832 -2.3571,0.47723 -9.5105,1.29218 -15.8965,1.811 -11.4464,0.92996 -11.6955,1.02627 -17.5742,6.79683 -15.9258,15.63276 -42.4604,0.62561 -35.6074,-20.13863 3.1137,-9.43477 9.5054,-13.61462 22.0977,-14.45077 10.8141,-0.71807 11.3491,-0.91303 17.1319,-6.24348 11.9769,-11.03987 23.6064,-10.66471 34.9062,1.12605 6.903,7.20287 11.157,8.9647 16.1511,6.68922 18.0073,-8.20472 37.8996,15.94584 26.1247,31.71712 -5.5478,7.43058 -17.998,11.60438 -25.6191,8.58845 z"
         id="path5879" />
      <path
         style="fill:#000000;fill-opacity:1;stroke:#fcf722;stroke-width:28;stroke-linecap:round;stroke-linejoin:round;stroke-dasharray:none;stroke-opacity:1"
         d="m 3490.0001,216.14661 c -24.7509,-11.42332 -12.1477,-41.26329 17.5386,-41.52518 2.8205,-0.0249 7.5281,-1.20452 10.4614,-2.62143 6.8191,-3.29383 19.4255,-3.54139 24.1078,-0.47343 2.4666,1.6162 7.6286,2.36622 19.6198,2.85068 23.1019,0.93338 34.0242,9.57335 31.0543,24.56523 -2.8992,14.63552 -13.2171,19.95917 -31.9703,16.49552 -13.4194,-2.47856 -14.3862,-2.53071 -33.4782,-1.80584 -9.164,0.34793 -14.6678,1.21424 -17.6004,2.77037 -5.5244,2.93126 -13.0384,2.8338 -19.733,-0.25592 z"
         id="path5881" />
      <path
         style="fill:#000000;fill-opacity:1;stroke:#fcf722;stroke-width:28;stroke-linecap:round;stroke-linejoin:round;stroke-dasharray:none;stroke-opacity:1"
         d="m 1727.3334,214.66667 c -5.8667,-4.27988 -10.6701,-4.98279 -14.7108,-2.15266 -8.5313,5.9756 -23.8387,4.87091 -28.7864,-2.07745 -9.7043,-13.62837 -1.3123,-35.76989 13.5573,-35.76989 3.0711,0 6.3383,-1.12068 8.713,-2.98855 5.5788,-4.38829 21.3728,-5.10223 26.7596,-1.20961 2.0904,1.51053 7.2609,4.02002 11.4901,5.57664 13.5412,4.98394 18.6685,19.5186 11.7027,33.17302 -4.923,9.64958 -19.2435,12.36584 -28.7255,5.4485 z"
         id="path5883" />
      <path
         style="fill:#000000;fill-opacity:1;stroke:#fcf722;stroke-width:28;stroke-linecap:round;stroke-linejoin:round;stroke-dasharray:none;stroke-opacity:1"
         d="m 3704.3012,217.32835 c -3.0876,-1.88252 -6.7173,-2.66168 -12.3995,-2.66168 -16.4916,0 -26.3225,-11.8715 -22.4772,-27.14264 3.3144,-13.1625 23.5767,-20.04674 32.5608,-11.06268 2.9108,2.91088 22.2274,2.20501 28.3572,-1.03626 16.5656,-8.75929 34.6742,5.99079 29.6008,24.11092 -2.5533,9.11966 -9.6585,14.03831 -21.7585,15.06268 -5.2349,0.44318 -11.5601,1.83978 -14.0561,3.10355 -6.0662,3.07137 -14.4355,2.91356 -19.8275,-0.37389 z"
         id="path5885" />
      <path
         style="fill:#000000;fill-opacity:1;stroke:#fbf732;stroke-width:28;stroke-linecap:round;stroke-linejoin:round;stroke-dasharray:none;stroke-opacity:1"
         d="m 979.06753,213.89865 c -9.91629,-9.45233 -12.44392,-10.38578 -25.60709,-9.45685 -21.66906,1.52921 -32.21897,-5.41033 -32.09035,-21.10847 0.15781,-19.2637 28.50892,-27.04284 38.66544,-10.60924 5.97868,9.67371 12.09852,12.1755 22.94719,9.38082 7.37002,-1.89856 11.87325,-2.22546 20.91448,-1.51816 14.1964,1.11056 16.5492,0.26793 25.4086,-9.09955 20.4942,-21.66959 51.0627,-5.70377 38.5537,20.13643 -4.3367,8.95844 -9.5657,11.00596 -27.3846,10.72302 -16.4709,-0.26152 -16.9132,-0.10146 -28.6485,10.36984 -11.6629,10.40655 -22.66516,10.80359 -32.75887,1.18216 z"
         id="path5887" />
      <path
         style="fill:#000000;fill-opacity:1;stroke:#fcf722;stroke-width:28;stroke-linecap:round;stroke-linejoin:round;stroke-dasharray:none;stroke-opacity:1"
         d="m 3125.36,218.99793 c -18.9511,-9.5214 -12.4634,-37.3076 9.2856,-39.76821 8.8581,-1.00219 15.0688,-4.79512 16.804,-10.26249 5.0172,-15.80744 25.9849,-18.90564 36.1533,-5.34203 7.6732,10.23524 13.1788,14.65595 19.4179,15.59155 25.988,3.89713 25.6536,39.31628 -0.3948,41.8192 -9.5484,0.91748 -21.2925,-6.07934 -21.2925,-12.68543 0,-2.17541 -8.6552,-9.34277 -12.3222,-10.20391 -5.9576,-1.3991 -12.0797,2.17882 -18.9048,11.04852 -9.3651,12.17044 -18.1031,15.15022 -28.7465,9.8028 z"
         id="path5889" />
      <path
         style="fill:#000000;fill-opacity:1;stroke:#faf88a;stroke-width:28;stroke-linecap:round;stroke-linejoin:round;stroke-dasharray:none;stroke-opacity:1"
         d="m 444.51702,220.48488 c -3.64648,-0.80561 -8.74723,-6.27383 -12.8896,-13.81821 -4.02604,-7.33251 -9.6029,-11.34486 -18.38686,-13.22867 -14.9454,-3.20523 -21.24819,-9.87289 -21.23556,-22.46499 0.0148,-14.75628 18.45567,-24.38245 30.59956,-15.97301 4.36268,3.02107 5.14024,4.16464 11.10574,16.33333 3.94257,8.04224 7.24338,9.95454 17.22698,9.98035 12.18948,0.0315 14.7673,-2.01992 19.8573,-15.80248 6.72758,-18.21675 35.08309,-14.99871 38.64736,4.38605 1.98499,10.79562 -5.89769,21.7456 -17.3777,24.1397 -7.12025,1.48489 -15.57364,7.43188 -19.94494,14.03136 -7.74322,11.6901 -15.36719,15.11966 -27.60228,12.41657 z"
         id="path5891" />
      <path
         style="fill:#000000;fill-opacity:1;stroke:#f9c914;stroke-width:28;stroke-linecap:round;stroke-linejoin:round;stroke-dasharray:none;stroke-opacity:1"
         d="m 2951.3334,221.90747 c -19.8089,-10.28134 -17.1364,-31.57606 5.0256,-40.04463 9.3788,-3.58385 14.1795,-9.219 14.2784,-16.76053 0.084,-6.4179 11.6286,-14.43564 20.7851,-14.43564 9.3508,0 20.5776,10.07769 20.5776,18.47156 0,3.41542 6.2857,8.80777 14.1577,12.14549 14.6718,6.22088 20.6763,18.22627 15.0268,30.04464 -7.0348,14.71619 -25.1478,16.50367 -36.1534,3.56776 -8.2748,-9.72629 -18.3659,-9.32392 -29.8915,1.19193 -8.0755,7.36792 -16.7413,9.48631 -23.8063,5.81942 z"
         id="path5893" />
      <path
         style="fill:#000000;fill-opacity:1;stroke:#fcf722;stroke-width:28;stroke-linecap:round;stroke-linejoin:round;stroke-dasharray:none;stroke-opacity:1"
         d="m 1912.0001,222.48855 c -3.6648,-1.4759 -20.8791,-1.82543 -28.0943,-0.57044 -26.3909,4.59034 -31.9937,-31.62503 -6.6099,-42.72555 1.8539,-0.81075 6.1456,-3.59941 9.5371,-6.19703 13.9184,-10.66046 20.5761,-10.29788 33.3347,1.81544 3.3921,3.22063 8.7921,7.67823 12,9.90576 22.1042,15.3493 4.7698,47.81479 -20.1676,37.77182 z"
         id="path5895" />
      <path
         style="fill:#000000;fill-opacity:1;stroke:#fcf884;stroke-width:28;stroke-linecap:round;stroke-linejoin:round;stroke-dasharray:none;stroke-opacity:1"
         d="m 265.33334,223.7776 c -6.71458,-1.8924 -12.81677,-8.31671 -14.59045,-15.36064 -2.09039,-8.30165 -5.93567,-11.64888 -15.55663,-13.54169 -21.19075,-4.16903 -24.82923,-29.098 -5.63754,-38.62562 11.27341,-5.59662 23.15817,0.57635 27.64982,14.36142 5.49339,16.85948 18.61776,17.30098 24.10531,0.8109 8.59953,-25.84164 41.6292,-21.01528 39.64251,5.79264 -0.64837,8.74892 -8.35764,17.45206 -15.45908,17.45206 -5.61324,0 -11.5707,5.55593 -14.08976,13.14013 -2.30587,6.94231 -8.53126,13.86704 -14.48431,16.11143 -4.35368,1.6414 -5.2976,1.62993 -11.57987,-0.14063 z"
         id="path5897" />
      <path
         style="fill:#000000;fill-opacity:1;stroke:#fcf722;stroke-width:28;stroke-linecap:round;stroke-linejoin:round;stroke-dasharray:none;stroke-opacity:1"
         d="m 3892.0295,225.35005 c -3.0398,-0.74592 -6.5844,-3.3563 -10.2895,-7.57749 -6.0441,-6.88616 -12.2117,-13.1468 -17.9709,-18.24193 -1.9606,-1.7344 -4.2394,-5.6597 -5.0642,-8.72287 -5.4473,-20.22973 18.6272,-35.52865 34.512,-21.93179 5.697,4.8763 5.697,4.8763 13.9067,0.66615 25.5729,-13.11425 44.9109,14.66008 23.7593,34.12421 -3.3869,3.11667 -7.4618,5.66667 -9.0553,5.66667 -1.8751,0 -3.8303,1.58107 -5.5412,4.48092 -5.5465,9.4006 -14.8768,13.83791 -24.2569,11.53613 z"
         id="path5899" />
      <path
         style="fill:#000000;fill-opacity:1;stroke:#f9c914;stroke-width:28;stroke-linecap:round;stroke-linejoin:round;stroke-dasharray:none;stroke-opacity:1"
         d="m 2058.405,226.99575 c -13.1404,-6.21086 -15.614,-23.45034 -5.0857,-35.44378 2.0697,-2.35773 4.9505,-8.40681 6.5302,-13.71178 4.5023,-15.12044 10.3971,-20.51156 22.4176,-20.5022 10.1667,0.008 19.0663,7.36392 19.0663,15.7593 0,4.09224 4.9755,14.22174 9.8532,20.05996 9.5487,11.4291 7.048,25.24699 -5.8532,32.34247 -2.3011,1.26552 -8.2884,1.83807 -19.3333,1.84873 -8.8,0.008 -17.5,0.45674 -19.3334,0.99608 -2.1841,0.64254 -5.0325,0.17751 -8.2617,-1.34878 z"
         id="path5901" />
      <path
         style="fill:#000000;fill-opacity:1;stroke:#f9c914;stroke-width:28;stroke-linecap:round;stroke-linejoin:round;stroke-dasharray:none;stroke-opacity:1"
         d="m 2240.5389,226.98375 c -8.5151,-5.77791 -10.2471,-21.01026 -3.3895,-29.80968 5.4359,-6.97512 7.1907,-12.10632 6.406,-18.73175 -1.8468,-15.59332 8.7148,-26.47735 24.0191,-24.75233 9.7761,1.1019 16.4256,9.27076 16.4256,20.17874 0,7.32271 3.0211,19.39772 5.9848,23.92103 5.9327,9.0544 3.3164,25.15612 -4.9045,30.18503 -6.7718,4.14236 -38.0003,3.44753 -44.5415,-0.99104 z"
         id="path5903" />
      <path
         style="fill:#000000;fill-opacity:1;stroke:#faf88a;stroke-width:28;stroke-linecap:round;stroke-linejoin:round;stroke-dasharray:none;stroke-opacity:1"
         d="m 82.206922,228.7724 c -8.747062,-3.20509 -15.540253,-12.92739 -15.540253,-22.24095 0,-3.59624 -6.112269,-10.01866 -11.661702,-12.25346 -16.615666,-6.69126 -18.599294,-27.71886 -3.495428,-37.05355 7.59259,-4.69248 12.829831,-3.99465 24.492996,3.26355 13.537104,8.42438 14.663947,8.31606 29.350135,-2.82132 17.43705,-13.22352 39.23995,5.68665 29.67727,25.73981 -1.6716,3.50537 -4.75463,6.26188 -11.2399,10.04948 -9.66825,5.64656 -14.43977,10.60623 -14.48599,15.05719 -0.13887,13.37518 -15.184653,24.62421 -27.097128,20.25925 z"
         id="path5905" />
      <path
         style="fill:#000000;fill-opacity:1;stroke:#f9c914;stroke-width:28;stroke-linecap:round;stroke-linejoin:round;stroke-dasharray:none;stroke-opacity:1"
         d="m 2771.3189,230.14667 c -17.2615,-7.52382 -14.2412,-35.75332 4.3143,-40.32375 10.2264,-2.51888 13.6968,-8.27975 13.709,-22.75671 0.028,-33.06028 38.3866,-32.46236 41.2999,0.64378 1.174,13.3427 2.2872,15.15768 13.2089,21.53626 10.484,6.123 13.4824,10.78863 13.4824,20.97907 0,17.84757 -17.6593,25.50921 -34.0978,14.79361 -9.4208,-6.14094 -17.2778,-6.00277 -27.2355,0.47895 -8.5572,5.57012 -18.34,7.41273 -24.6812,4.64879 z"
         id="path5907" />
      <path
         style="fill:#000000;fill-opacity:1;stroke:#fcf722;stroke-width:28;stroke-linecap:round;stroke-linejoin:round;stroke-dasharray:none;stroke-opacity:1"
         d="m 4069.5911,232.50863 c -7.018,-3.5788 -12.2576,-12.32243 -12.2576,-20.45475 0,-5.92019 -0.6903,-7.67221 -5.3402,-13.55479 -8.5412,-10.80536 -8.3746,-17.39921 0.6744,-26.71574 6.6918,-6.88951 11.4704,-8.55482 19.707,-6.8676 3.9588,0.81096 8.6781,0.91825 11.5025,0.26152 22.8306,-5.30844 36.9691,19.43192 20.802,36.4004 -3.8558,4.047 -4.6829,5.92358 -4.701,10.66666 -0.06,15.92739 -16.8874,27.14858 -30.3871,20.2643 z"
         id="path5909" />
      <path
         style="fill:#000000;fill-opacity:1;stroke:#f9c914;stroke-width:28;stroke-linecap:round;stroke-linejoin:round;stroke-dasharray:none;stroke-opacity:1"
         d="m 2599.1933,232.04257 c -15.5077,-6.90116 -15.4273,-24.1609 0.184,-39.46778 8.6836,-8.51435 8.6836,-8.51435 8.4601,-21.81728 -0.2474,-14.73235 0.6982,-17.32531 8.4686,-23.22311 15.6198,-11.85545 37.3186,3.83328 31.618,22.86048 -2.16,7.20941 0.189,15.95345 5.684,21.15776 8.9925,8.51704 12.0762,14.69581 11.476,22.99441 -1.1464,15.84879 -11.7042,22.24399 -29.7131,17.99838 -9.3567,-2.20586 -10.4101,-2.21236 -17.9683,-0.11094 -9.7949,2.7232 -11.2812,2.69122 -18.2093,-0.39186 z"
         id="path5911" />
      <path
         style="fill:#000000;fill-opacity:1;stroke:#f9c914;stroke-width:28;stroke-linecap:round;stroke-linejoin:round;stroke-dasharray:none;stroke-opacity:1"
         d="m 2422.0001,232.69207 c -15.5787,-5.5972 -17.9797,-22.8904 -5.1035,-36.7562 6.9431,-7.4765 8.3994,-11.1561 8.2883,-20.9417 -0.1671,-14.73137 5.8876,-21.88736 19.2383,-22.73746 13.3697,-0.85132 20.7106,6.97493 21.3781,22.7914 0.4056,9.60878 1.8071,12.68708 9.6144,21.117 10.4092,11.23918 10.5599,23.90312 0.3863,32.46364 -4.6168,3.8848 -4.5866,3.88016 -25.8019,3.97009 -8.8,0.0373 -17.5,0.50468 -19.3333,1.03863 -1.9819,0.57717 -5.4958,0.19385 -8.6667,-0.9454 z"
         id="path5913" />
      <path
         style="fill:#000000;fill-opacity:1;stroke:#faf88a;stroke-width:28;stroke-linecap:round;stroke-linejoin:round;stroke-dasharray:none;stroke-opacity:1"
         d="m 4249.8675,235.50316 c -8.4341,-3.82116 -13.072,-16.44352 -9.3313,-25.39611 3.1273,-7.48469 2.6584,-10.72588 -2.536,-17.53097 -8.5478,-11.19819 -5.5296,-25.8634 6.5397,-31.77608 22.5991,-11.07115 49.9527,8.09985 38.8096,27.2 -5.9957,10.27716 -6.4061,12.19936 -4.6228,21.65068 3.8584,20.44836 -11.1372,33.8816 -28.8592,25.85248 z"
         id="path5915" />
      <path
         style="fill:#000000;fill-opacity:1;stroke:#faf88a;stroke-width:28;stroke-linecap:round;stroke-linejoin:round;stroke-dasharray:none;stroke-opacity:1"
         d="m 4430.1583,237.29327 c -7.5433,-6.62303 -9.3771,-14.22147 -5.9511,-24.65784 3.8748,-11.80358 2.8294,-15.9228 -6.7928,-26.76236 -11.4,-12.84251 -11.6997,-21.68244 -1.0684,-31.51615 6.7024,-6.19955 12.6458,-7.51724 19.6534,-4.35731 3.4672,1.56354 6.6142,2.03996 9.5818,1.45062 14.7874,-2.9367 19.0926,-2.61463 24.126,1.8048 11.2855,9.90869 9.2642,29.13636 -3.7978,36.12689 -6.9391,3.71372 -8.6088,10.68565 -5.2282,21.82999 2.5244,8.3213 2.5203,14.55336 -0.013,19.45205 -5.7651,11.14816 -21.4755,14.56179 -30.51,6.62931 z"
         id="path5917" />
    </g>
    <g
       id="g2448"
       style="display:inline;opacity:0.85;fill:#000000;fill-opacity:1;stroke:#c50604;stroke-width:10;stroke-linecap:round;stroke-linejoin:round;stroke-dasharray:none;stroke-opacity:1">
      <path
         style="fill:#000000;fill-opacity:1;stroke:#c50604;stroke-width:10;stroke-linecap:round;stroke-linejoin:round;stroke-dasharray:none;stroke-opacity:1"
         d="m 2953.8713,86.42034 c -8.8335,-2.360773 -15.5593,-15.52824 -12.7393,-24.940575 3.2604,-10.882156 10.0722,-14.765786 26.5386,-15.130368 31.1848,-0.690464 59.486,0.526716 63.2616,2.720762 13.3139,7.736793 13.4907,27.1426 0.326,35.768432 -3.603,2.360792 -69.4368,3.706401 -77.3869,1.581749 z"
         id="path2396" />
      <path
         style="fill:#000000;fill-opacity:1;stroke:#c50604;stroke-width:10;stroke-linecap:round;stroke-linejoin:round;stroke-dasharray:none;stroke-opacity:1"
         d="m 626.36076,88.087388 c -2.0016,-0.646493 -4.57919,-2.115369 -5.72799,-3.264169 -1.54461,-1.544604 -3.59237,-1.88263 -7.86079,-1.297579 -16.99376,2.329255 -29.81563,-14.493889 -22.61373,-29.670743 5.468,-11.522965 20.94077,-16.646522 30.01376,-9.938572 5.00033,3.696912 23.4048,3.381774 33.17589,-0.568069 11.50328,-4.650052 23.50374,1.367396 26.50616,13.291121 C 683.64104,71.678796 674.08928,84 658.6433,84 c -2.9933,0 -7.30986,0.965719 -9.59236,2.146041 -4.89417,2.530875 -17.52033,3.611155 -22.69018,1.941347 z"
         id="path2394" />
      <path
         style="fill:#000000;fill-opacity:1;stroke:#c50604;stroke-width:10;stroke-linecap:round;stroke-linejoin:round;stroke-dasharray:none;stroke-opacity:1"
         d="m 411.33335,87.42696 c -22.89174,-10.651709 -14.40324,-39.149512 12.26336,-41.170859 6.01151,-0.455677 13.21151,-1.8266 16,-3.046496 6.25027,-2.734338 21.77153,-2.6162 27.23153,0.207271 2.57631,1.332267 9.0253,2.09162 20.0479,2.360599 18.63913,0.454838 25.27017,4.729726 27.18947,17.528449 2.9049,19.371284 -12.41811,29.026673 -35.11254,22.125241 -10.57659,-3.216368 -34.05943,-2.939385 -42.05253,0.496015 -7.08776,3.046292 -20.5468,3.835804 -25.56719,1.49978 z"
         id="path2392" />
      <path
         style="fill:#000000;fill-opacity:1;stroke:#c50604;stroke-width:10;stroke-linecap:round;stroke-linejoin:round;stroke-dasharray:none;stroke-opacity:1"
         d="m 3362.0001,88.403633 c -3.5116,-1.285365 -7.7244,-1.687717 -12.3333,-1.177914 -3.85,0.425854 -10.15,1.127725 -14,1.559712 -15.7187,1.763694 -27.2093,-15.334 -19.9148,-29.632423 2.5864,-5.069655 11.2817,-12.486341 14.6391,-12.486341 0.8694,0 4.8573,-2.967212 8.862,-6.593803 11.3144,-10.246484 25.3956,-10.037079 33.4304,0.497157 1.8221,2.38885 6.2514,6.348695 9.8432,8.799656 26.5705,18.131619 9.7508,50.11658 -20.5266,39.033956 z"
         id="path2390" />
      <path
         style="fill:#000000;fill-opacity:1;stroke:#c50604;stroke-width:10;stroke-linecap:round;stroke-linejoin:round;stroke-dasharray:none;stroke-opacity:1"
         d="m 3180.5887,87.539504 c -8.5827,-4.908711 -10.939,-5.078 -18.3573,-1.318876 -19.6886,9.976955 -38.1808,-8.735899 -28.0084,-28.342563 3.2474,-6.259053 8.2334,-9.401477 17.794,-11.214612 3.922,-0.743801 8.12,-2.24736 9.3287,-3.341242 5.8623,-5.305258 33.319,0.574109 42.4484,9.089557 19.1139,17.82856 -0.7849,47.950852 -23.2054,35.127736 z"
         id="path2388" />
      <path
         style="fill:#000000;fill-opacity:1;stroke:#c50604;stroke-width:10;stroke-linecap:round;stroke-linejoin:round;stroke-dasharray:none;stroke-opacity:1"
         d="m 2618.6668,87.390455 c -11.7198,-6.184696 -12.3578,-6.348468 -20.6667,-5.305704 -16.5604,2.078296 -22.4604,1.567272 -27.6533,-2.395144 -16.6768,-12.725124 -6.7544,-38.356274 14.8486,-38.356274 2.9044,0 6.1164,0.835482 7.1375,1.856624 5.3897,5.389743 15.9104,9.0492 23.5127,8.17849 8.8074,-1.008775 20.0977,-1.190808 32.1545,-0.518432 7.6845,0.428549 9.2761,0.06936 14.0451,-3.169767 15.816,-10.742408 34.3714,-4.053796 36.3033,13.086107 1.7875,15.85827 -9.9915,24.21068 -31.0151,21.992752 -8.9693,-0.946232 -11.5153,-0.75095 -16,1.22719 -17.4981,7.718276 -23.3382,8.326878 -32.6666,3.404158 z"
         id="path2386" />
      <path
         style="fill:#000000;fill-opacity:1;stroke:#c50604;stroke-width:10;stroke-linecap:round;stroke-linejoin:round;stroke-dasharray:none;stroke-opacity:1"
         d="m 2250.4366,84.333333 c -8.0323,-7.666666 -8.0323,-7.666666 -24.4623,-8.333333 -18.2226,-0.739409 -21.4736,-2.22252 -25.4794,-11.623841 -9.9995,-23.467752 22.3121,-39.664632 35.9693,-18.030351 4.476,7.090376 12.7832,10.835411 18.6443,8.405061 6.671,-2.766226 12.4553,-3.183638 20.9523,-1.511972 10.8686,2.138274 17.3196,0.11316 23.4426,-7.359302 14.3566,-17.520168 37.83,-10.345342 37.83,11.562964 0,12.999378 -7.9082,18.557441 -26.4044,18.557441 -17.4744,0 -18.6389,0.373339 -28.6732,9.193097 -11.7888,10.361955 -20.3035,10.131887 -31.8192,-0.859764 z"
         id="path2384" />
      <path
         style="fill:#000000;fill-opacity:1;stroke:#c50604;stroke-width:10;stroke-linecap:round;stroke-linejoin:round;stroke-dasharray:none;stroke-opacity:1"
         d="m 2802.0001,92.022376 c -2.2,-0.570896 -6.2484,-2.016836 -8.9963,-3.2132 -3.3784,-1.470807 -6.7056,-1.901891 -10.2744,-1.3312 -28.0942,4.492453 -44.4174,-22.448132 -22.7141,-37.488548 6.2432,-4.326548 21.2912,-5.096476 29.7616,-1.522759 7.9724,3.363578 25.484,2.794723 41.7663,-1.356757 15.4118,-3.92956 20.7758,-3.579907 27.1322,1.768631 17.6963,14.890426 6.4032,37.076809 -20.2824,39.846717 -4.6161,0.479147 -11.3518,1.711979 -14.9682,2.739625 -7.0791,2.011607 -15.0244,2.21835 -21.4247,0.557491 z"
         id="path2382" />
      <path
         style="fill:#000000;fill-opacity:1;stroke:#c50604;stroke-width:10;stroke-linecap:round;stroke-linejoin:round;stroke-dasharray:none;stroke-opacity:1"
         d="m 2069.3334,86.976752 c -9.2033,-7.024796 -18.7576,-10.973559 -26.5708,-10.981736 -18.2209,-0.01907 -25.4917,-25.171943 -10.4303,-36.082464 10.2656,-7.436292 18.2334,-5.493369 31.0011,7.559551 5.3333,5.452445 5.3333,5.452445 22.5543,6.252142 19.1844,0.89087 20.1121,0.638819 25.3225,-6.879737 12.5821,-18.156161 38.2101,-8.989051 36.446,13.036768 -0.976,12.186983 -7.9103,17.452057 -22.9848,17.452057 -12.7093,0 -14.8832,0.879102 -24.3299,9.838955 -9.2893,8.810685 -19.2914,8.747612 -31.0081,-0.195536 z"
         id="path2380" />
      <path
         style="fill:#000000;fill-opacity:1;stroke:#c50604;stroke-width:10;stroke-linecap:round;stroke-linejoin:round;stroke-dasharray:none;stroke-opacity:1"
         d="m 304.66668,91.483245 c -2.2,-1.05231 -6.67836,-4.698062 -9.95192,-8.10167 -7.82987,-8.140919 -29.85162,-8.107091 -38.96843,0.05987 -17.58348,15.75149 -39.67266,9.451176 -40.86531,-11.655672 -0.81497,-14.423033 10.80713,-24.186656 26.31463,-22.106665 5.92596,0.794837 10.07533,-1.388423 16.99595,-8.942691 8.11385,-8.85675 20.09418,-7.234529 30.85214,4.177602 8.40304,8.914008 8.40304,8.914008 13.16026,7.193776 25.77828,-9.321544 46.11447,18.90559 26.68425,37.038384 -4.27314,3.987802 -18.00127,5.312394 -24.22157,2.337077 z"
         id="path2378" />
      <path
         style="fill:#000000;fill-opacity:1;stroke:#c50604;stroke-width:10;stroke-linecap:round;stroke-linejoin:round;stroke-dasharray:none;stroke-opacity:1"
         d="m 3510.7097,92.258379 c -12.1064,-6.621404 -14.1941,-19.912738 -5.2656,-33.522459 3.1022,-4.728577 6.7924,-12.437664 8.2006,-17.131304 4.4145,-14.71486 13.8442,-21.609317 25.8517,-18.901212 6.4097,1.445651 13.5719,8.527309 14.6987,14.533585 0.9133,4.86824 5.814,15.033119 9.016,18.700414 7.277,8.334758 8.2162,20.772072 2.196,29.08265 -5.008,6.91344 -6.7536,7.423696 -26.0736,7.621519 -8.8,0.09011 -17.8,0.609749 -20,1.154765 -2.8751,0.712247 -5.3004,0.279714 -8.6238,-1.537958 z"
         id="path2376" />
      <path
         style="fill:#000000;fill-opacity:1;stroke:#c50604;stroke-width:10;stroke-linecap:round;stroke-linejoin:round;stroke-dasharray:none;stroke-opacity:1"
         d="m 4401.3599,93 c -18.226,-9.311805 -13.2097,-33.962577 8.0776,-39.694684 2.7691,-0.745624 6.5371,-3.141112 8.3732,-5.323304 3.2907,-3.910673 3.8248,-5.121165 5.4099,-12.258071 4.1986,-18.905085 33.3997,-17.22044 39.4524,2.276059 2.2413,7.220068 5.3742,10.334056 15.3256,15.233068 16.5574,8.151193 21.7366,21.309963 13.2228,33.59534 -7.7235,11.145016 -19.7694,11.536845 -32.8146,1.067392 C 4445.8088,77.785276 4439.19,77.558955 4428.431,86.870821 4417.3086,96.497127 4411.0004,97.925373 4401.3599,93 Z"
         id="path2374" />
      <path
         style="fill:#000000;fill-opacity:1;stroke:#c50604;stroke-width:10;stroke-linecap:round;stroke-linejoin:round;stroke-dasharray:none;stroke-opacity:1"
         d="m 3693.1901,94 c -10.2608,-7.083189 -11.1685,-16.548176 -3.0818,-32.136152 5.416,-10.440013 6.0102,-12.426412 5.2448,-17.530873 -2.7966,-18.648855 17.497,-31.464461 32.7253,-20.666308 6.5817,4.66705 6.8799,5.384076 7.9015,19 0.6745,8.988996 1.7298,13.085414 5.102,19.803498 6.4445,12.838915 6.0854,20.933196 -1.283,28.92706 -5.5346,6.004312 -5.5346,6.004312 -24.1401,5.636876 C 3699.6025,96.717013 3696.5239,96.301272 3693.1901,94 Z"
         id="path2372" />
      <path
         style="fill:#000000;fill-opacity:1;stroke:#c50604;stroke-width:10;stroke-linecap:round;stroke-linejoin:round;stroke-dasharray:none;stroke-opacity:1"
         d="m 2431.1441,90.015741 c -11.4575,-10.220998 -17.9544,-12.077102 -29.8248,-8.520629 -10.7059,3.207536 -25.3685,-5.961675 -27.4732,-17.180095 -4.5419,-24.210485 26.8255,-34.588714 40.3264,-13.342402 5.3608,8.436273 12.3873,11.083464 20.0971,7.571321 5.5965,-2.549528 7.6348,-2.752451 19.3237,-1.923753 17.5757,1.246058 19.8765,0.582437 25.9983,-7.498599 15.119,-19.958107 43.0752,-13.919053 43.0752,9.30508 0,13.051376 -9.8242,19.698176 -28.4894,19.275217 -15.1426,-0.343138 -19.5573,1.446518 -32.6181,13.222932 -10.7585,9.700577 -18.7912,9.460487 -30.4152,-0.909072 z"
         id="path2370" />
      <path
         style="fill:#000000;fill-opacity:1;stroke:#c50604;stroke-width:10;stroke-linecap:round;stroke-linejoin:round;stroke-dasharray:none;stroke-opacity:1"
         d="m 809.12895,95.225148 c -4.14959,-1.268955 -7.46148,-3.470377 -10,-6.647029 -4.65329,-5.82301 -9.38945,-10.562476 -16.23099,-16.242312 -11.62596,-9.651863 -9.70641,-28.835131 3.55314,-35.508579 4.83662,-2.434247 16.91278,-0.928595 23.06916,2.876256 6.09333,3.765888 8.30913,3.715037 16.37241,-0.375731 13.20295,-6.698294 25.72471,-1.823897 30.05565,11.699892 3.45576,10.790898 -1.47158,20.91807 -13.12197,26.969626 -3.38781,1.759728 -8.14667,5.633961 -10.57524,8.609408 -7.26784,8.90446 -13.99156,11.410633 -23.12216,8.618469 z"
         id="path2368" />
      <path
         style="fill:#000000;fill-opacity:1;stroke:#c50604;stroke-width:10;stroke-linecap:round;stroke-linejoin:round;stroke-dasharray:none;stroke-opacity:1"
         d="M 53.333335,96.093536 C 36.12866,92.653341 28.88627,73.528216 39.996415,60.87446 43.861767,56.472067 47.652784,54.8319 61.247637,51.680215 67.91051,50.135565 68.736356,49.515903 71.483319,44 81.129918,24.62962 98.699966,24.553748 113.37479,43.8191 c 3.54775,4.657536 6.17669,6.615288 10.66667,7.943385 24.15197,7.143944 32.00383,25.222724 16.76544,38.602199 -11.96415,10.504666 -22.60024,8.356244 -34.36491,-6.94148 -8.709493,-11.325052 -12.319065,-12.761497 -21.108654,-8.400281 -3.864308,1.91739 -6.797414,4.574181 -8.24025,7.46397 -2.266831,4.540128 -14.738418,14.975395 -17.560298,14.693108 -0.843033,-0.08433 -3.632786,-0.573241 -6.199453,-1.086465 z"
         id="path2366" />
      <path
         style="fill:#000000;fill-opacity:1;stroke:#c50604;stroke-width:10;stroke-linecap:round;stroke-linejoin:round;stroke-dasharray:none;stroke-opacity:1"
         d="m 1894.5306,96.989239 c -2.4919,-1.65592 -5.8541,-5.629527 -7.4719,-8.83024 -5.2684,-10.423306 -13.7346,-16.348475 -25.523,-17.862468 -17.9599,-2.306588 -22.4878,-25.472723 -7.0674,-36.159031 11.7998,-8.177236 25.1874,-2.339617 31.1224,13.570907 3.4982,9.377313 6.2648,11.404441 16.4506,12.05302 13.5389,0.862092 14.6258,0.256273 20.3258,-11.328107 6.0258,-12.246619 9.754,-15.357987 19.2443,-16.059929 23.0653,-1.706006 29.9165,30.124148 8.2305,38.237925 -14.9305,5.586249 -20.202,9.340472 -26.2436,18.690288 -6.8312,10.571625 -19.6332,13.957406 -29.0677,7.687635 z"
         id="path2364" />
      <path
         style="fill:#000000;fill-opacity:1;stroke:#c50604;stroke-width:10;stroke-linecap:round;stroke-linejoin:round;stroke-dasharray:none;stroke-opacity:1"
         d="m 4220.6668,100.01665 c -15.1822,-9.991649 -11.4748,-28.786157 7.4551,-37.792246 11.4839,-5.463539 12.5225,-7.163089 12.6737,-20.735736 0.1804,-16.205847 3.2583,-21.546761 14.3076,-24.828063 14.8404,-4.407154 27.5636,5.94678 27.5636,22.430939 0,11.656695 3.8742,18.414031 12.8638,22.437479 11.0904,4.963658 16.5857,14.803129 13.8798,24.852009 -4.2201,15.672208 -17.8532,20.438958 -32.7436,11.448664 -12.7294,-7.685587 -19.2958,-7.217276 -32.8725,2.344414 -4.9693,3.49979 -17.702,3.4131 -23.1275,-0.15746 z"
         id="path2362" />
      <path
         style="fill:#000000;fill-opacity:1;stroke:#c50604;stroke-width:10;stroke-linecap:round;stroke-linejoin:round;stroke-dasharray:none;stroke-opacity:1"
         d="m 3869.6816,98.765541 c -11.7252,-8.493657 -12.2564,-20.125357 -1.5296,-33.491221 8.2647,-10.298019 9.6213,-13.638109 8.5241,-20.986208 C 3874.7123,31.137039 3883.9956,20 3896.9215,20 c 13.7973,0 20.412,7.475089 20.412,23.067063 0,8.66405 0,8.66405 7.937,17.422285 21.0447,23.221935 7.5478,45.647712 -23.8276,39.590692 -4.1842,-0.807783 -7.4189,-0.597865 -11.1676,0.72473 -8.4392,2.97751 -14.4964,2.37772 -20.5937,-2.039229 z"
         id="path2360" />
      <path
         style="fill:#000000;fill-opacity:1;stroke:#c50604;stroke-width:10;stroke-linecap:round;stroke-linejoin:round;stroke-dasharray:none;stroke-opacity:1"
         d="m 1718.6694,101.26453 c -5.8209,-1.326674 -12.5244,-8.960359 -15.4064,-17.544361 -2.4189,-7.20496 -7.2879,-10.898098 -16.3092,-12.370872 C 1662.4249,67.344844 1667.4465,32 1692.5443,32 c 8.2108,0 15.3106,6.719016 18.6832,17.681179 2.7067,8.797417 5.8971,11.652154 13.0223,11.652154 5.6001,0 6.0423,-0.540293 10.2593,-12.538609 7.2811,-20.71594 28.8244,-23.30116 38.724,-4.646896 5.8522,11.027541 -0.7812,24.061828 -14.0514,27.611105 -9.3479,2.500171 -13.457,5.978751 -14.5242,12.295683 -1.9824,11.733467 -14.2812,19.878074 -25.9881,17.209914 z"
         id="path2358" />
      <path
         style="fill:#000000;fill-opacity:1;stroke:#c50604;stroke-width:10;stroke-linecap:round;stroke-linejoin:round;stroke-dasharray:none;stroke-opacity:1"
         d="m 1528.0545,99.174512 c -5.1751,-4.354535 -7.4558,-8.771616 -8.6027,-16.661145 -1.1661,-8.021823 -2.6996,-9.920108 -12.0935,-14.97055 -15.2184,-8.181958 -18.9977,-21.429156 -9.0882,-31.856089 9.3498,-9.838157 20.3349,-10.355379 29.5104,-1.38948 7.8409,7.661785 17.0246,7.762259 24.8862,0.272263 12.0587,-11.488724 26.9016,-10.376636 34.4702,2.582636 6.3202,10.821661 1.591,22.075641 -12.8136,30.492665 -8.7312,5.101805 -14.3232,11.283575 -14.3232,15.833647 0,15.493664 -20.3206,25.477891 -31.9456,15.696053 z"
         id="path2356" />
      <path
         style="fill:#000000;fill-opacity:1;stroke:#c50604;stroke-width:10;stroke-linecap:round;stroke-linejoin:round;stroke-dasharray:none;stroke-opacity:1"
         d="m 981.99548,98.483808 c -6.24878,-5.486503 -7.27456,-7.624461 -7.9631,-16.596953 -0.44921,-5.853963 -1.62109,-9.03052 -5.30448,-14.378623 -9.01992,-13.096529 -5.64945,-27.123952 7.89476,-32.856895 6.52194,-2.760584 33.75224,-2.736029 39.66244,0.03576 12.2403,5.740456 14.7145,22.118366 5.0993,33.75415 -4.2719,5.169553 -5.2786,7.576082 -6.084,14.543336 -2.0525,17.756357 -20.79831,26.480177 -33.30492,15.499221 z"
         id="path2354" />
      <path
         style="fill:#000000;fill-opacity:1;stroke:#c50604;stroke-width:10;stroke-linecap:round;stroke-linejoin:round;stroke-dasharray:none;stroke-opacity:1"
         d="m 4052.9119,103.40158 c -16.2506,-5.795667 -17.7716,-22.512217 -3.4316,-37.713404 9.8109,-10.400091 12.2202,-16.126097 10.3284,-24.546311 -3.3144,-14.751162 5.6601,-26.475198 20.2664,-26.475198 15.8437,0 22.0069,9.98705 19.3365,31.333333 -1.0008,8 -1.0008,8 7.7335,17.643781 10.1853,11.245958 12.5245,17.013711 10.2803,25.348274 -3.5932,13.344395 -12.1172,17.250185 -31.0302,14.218435 -9.4619,-1.51675 -12.1501,-1.49147 -18.5875,0.17482 -8.9278,2.31094 -8.4632,2.31043 -14.8958,0.0163 z"
         id="path2352" />
      <path
         style="fill:#000000;fill-opacity:1;stroke:#c50604;stroke-width:10;stroke-linecap:round;stroke-linejoin:round;stroke-dasharray:none;stroke-opacity:1"
         d="m 1169.8726,106.70127 c -10.662,-4.31073 -13.5521,-13.325494 -10.495,-32.73497 0.7378,-4.683751 0.2371,-6.270979 -3.9328,-12.467319 -11.4398,-16.999596 -0.7013,-34.485709 21.5368,-35.069393 20.255,-0.531635 32.4249,19.700197 21.3236,35.449324 -3.316,4.7044 -3.5749,5.873597 -2.6563,12 2.5087,16.731119 1.4796,22.001567 -5.5365,28.353668 -6.6339,6.006 -12.9748,7.406 -20.2398,4.46869 z"
         id="path2350" />
      <path
         style="fill:#000000;fill-opacity:1;stroke:#c50604;stroke-width:10;stroke-linecap:round;stroke-linejoin:round;stroke-dasharray:none;stroke-opacity:1"
         d="m 1343.1048,107.30992 c -6.5234,-6.80819 -7.7485,-14.663725 -3.7714,-24.182244 3.9804,-9.52642 2.4881,-13.827201 -9.5017,-27.385443 -6.6301,-7.497253 -8.0298,-14.447073 -4.4142,-21.915938 4.8624,-10.04453 15.3536,-15.096651 24.0904,-11.600914 3.3992,1.360126 6.8704,1.761296 10.1609,1.174316 22.5142,-4.016226 32.3142,1.759604 32.3263,19.052126 0,7.077145 -0.053,7.176944 -9.995,17.183565 -10.9954,11.066827 -11.0334,11.179505 -7.3334,21.697945 6.5675,18.670077 -0.7906,31.999997 -17.6641,31.999997 -7.8952,0 -8.2904,-0.17126 -13.8978,-6.02341 z"
         id="path2348" />
      <path
         style="fill:#000000;fill-opacity:1;stroke:#c50604;stroke-width:10;stroke-linecap:round;stroke-linejoin:round;stroke-dasharray:none;stroke-opacity:1"
         d="m 621.2967,211.13427 c -1.81317,-1.2095 -5.42841,-4.21578 -8.03385,-6.68063 -3.89535,-3.68515 -6.62019,-4.83885 -15.33333,-6.49215 -21.94039,-4.16314 -26.53214,-7.80105 -26.57151,-21.05176 -0.0653,-22.00346 21.62271,-28.17573 37.45809,-10.66028 6.81607,7.53923 6.81607,7.53923 23.86747,7.9737 17.0514,0.43445 17.0514,0.43445 24.85791,-7.44506 8.54754,-8.62746 13.987,-10.62618 22.2888,-8.19002 25.45776,7.47057 16.03415,43.49977 -10.27712,39.29242 -6.86591,-1.0979 -13.90602,1.29819 -18.53074,6.30692 -7.94894,8.60902 -22.2305,11.94659 -29.72572,6.94686 z"
         id="path2346" />
      <path
         style="fill:#000000;fill-opacity:1;stroke:#c50604;stroke-width:10;stroke-linecap:round;stroke-linejoin:round;stroke-dasharray:none;stroke-opacity:1"
         d="m 1500.6667,212.86264 c -12.7782,-5.92901 -16.2338,-23.87324 -6.4764,-33.63061 5.4464,-5.44643 10.7826,-6.99898 19.724,-5.73867 4.5055,0.63507 9.5567,0.27824 15.1799,-1.07236 5.2132,-1.25212 10.2985,-1.66249 13.3333,-1.07597 2.6983,0.52148 10.9059,1.07157 18.2392,1.22242 15.8104,0.32524 20.6995,2.32299 24.6536,10.07358 8.5083,16.67773 -2.3245,33.38406 -20.3949,31.45261 -4.5423,-0.48551 -12.7587,-0.73399 -18.2587,-0.55219 -5.5,0.1818 -12.25,0.2148 -15,0.0733 -2.75,-0.14147 -6.95,-0.34808 -9.3333,-0.45914 -2.3833,-0.11106 -7.3333,0.19518 -11,0.68052 -4.5513,0.60244 -7.9359,0.29355 -10.6667,-0.97353 z"
         id="path2344" />
      <path
         style="fill:#000000;fill-opacity:1;stroke:#c50604;stroke-width:10;stroke-linecap:round;stroke-linejoin:round;stroke-dasharray:none;stroke-opacity:1"
         d="m 1163.3334,209.83543 c -9.9675,-5.02354 -14.283,-5.3414 -26.9851,-1.98762 -22.2672,5.8793 -36.9048,-25.28478 -17.811,-37.92046 9.0849,-6.0121 24.4339,-4.98552 28.7015,1.91962 1.9382,3.13608 13.5361,4.34078 22.2761,2.31386 6.1573,-1.42799 10.1268,-1.65056 13.8868,-0.77866 10.5399,2.44406 18.6173,1.57318 27.5585,-2.97128 14.707,-7.47498 26.7023,-4.9436 32.7065,6.90214 10.1322,19.98977 -6.3915,35.0758 -31.9916,29.20808 -6.4066,-1.46844 -16.1491,1.10889 -24.3051,6.42976 -4.8108,3.13852 -13.9879,1.94905 -24.0366,-3.11544 z"
         id="path2342" />
      <path
         style="fill:#000000;fill-opacity:1;stroke:#c50604;stroke-width:10;stroke-linecap:round;stroke-linejoin:round;stroke-dasharray:none;stroke-opacity:1"
         d="m 808.00003,213.71533 c -1.83333,-0.3235 -6.79888,-3.9884 -11.03456,-8.14421 -7.70121,-7.55604 -7.70121,-7.55604 -24.44832,-8.24393 -16.74711,-0.6879 -16.74711,-0.6879 -21.10758,-5.44599 -12.24169,-13.35799 -2.67745,-32.70844 15.58738,-31.53653 7.42252,0.47625 7.90897,0.74878 15.46401,8.66392 9.04783,9.47906 12.14904,10.6004 22.96746,8.30457 4.45104,-0.94457 11.2376,-1.34228 15.46316,-0.90616 11.47594,1.18443 20.42656,-0.91769 24.57546,-5.77172 15.17752,-17.757 37.17906,-12.52108 37.19467,8.85157 0.009,13.3263 -6.84813,17.84648 -27.07607,17.84648 -15.0809,0 -18.23549,1.20462 -28.33873,10.82148 -3.71485,3.53602 -11.19753,6.78672 -14.57141,6.33028 -0.73818,-0.0999 -2.84214,-0.44626 -4.67547,-0.76976 z"
         id="path2340" />
      <path
         style="fill:#000000;fill-opacity:1;stroke:#c50604;stroke-width:10;stroke-linecap:round;stroke-linejoin:round;stroke-dasharray:none;stroke-opacity:1"
         d="m 1348,213.32487 c -5.5,-1.43788 -14.2,-2.62754 -19.3333,-2.6437 -26.521,-0.0835 -38.5555,-21.33065 -21.1625,-37.36289 6.582,-6.06711 17.6244,-6.71996 29.529,-1.74587 4.7154,1.97018 34.6846,1.58344 38.041,-0.49089 8.8248,-5.45405 29.4687,-3.99051 34.9089,2.47488 13.2564,15.75423 3.7551,34.06003 -19.1142,36.82683 -6.8555,0.8294 -13.1815,2.10306 -14.0579,2.83036 -3.3316,2.76501 -18.4371,2.82334 -28.811,0.11133 z"
         id="path2338" />
      <path
         style="fill:#000000;fill-opacity:1;stroke:#c50604;stroke-width:10;stroke-linecap:round;stroke-linejoin:round;stroke-dasharray:none;stroke-opacity:1"
         d="m 3386.6668,216.4748 c -1.1,-0.43531 -5.4715,-4.38516 -9.7144,-8.77747 -7.0819,-7.3313 -8.0656,-7.91486 -12,-7.11832 -2.3571,0.47723 -9.5105,1.29218 -15.8965,1.811 -11.4464,0.92996 -11.6955,1.02627 -17.5742,6.79683 -15.9258,15.63276 -42.4604,0.62561 -35.6074,-20.13863 3.1137,-9.43477 9.5054,-13.61462 22.0977,-14.45077 10.8141,-0.71807 11.3491,-0.91303 17.1319,-6.24348 11.9769,-11.03987 23.6064,-10.66471 34.9062,1.12605 6.903,7.20287 11.157,8.9647 16.1511,6.68922 18.0073,-8.20472 37.8996,15.94584 26.1247,31.71712 -5.5478,7.43058 -17.998,11.60438 -25.6191,8.58845 z"
         id="path2336" />
      <path
         style="fill:#000000;fill-opacity:1;stroke:#c50604;stroke-width:10;stroke-linecap:round;stroke-linejoin:round;stroke-dasharray:none;stroke-opacity:1"
         d="m 3490.0001,216.14661 c -24.7509,-11.42332 -12.1477,-41.26329 17.5386,-41.52518 2.8205,-0.0249 7.5281,-1.20452 10.4614,-2.62143 6.8191,-3.29383 19.4255,-3.54139 24.1078,-0.47343 2.4666,1.6162 7.6286,2.36622 19.6198,2.85068 23.1019,0.93338 34.0242,9.57335 31.0543,24.56523 -2.8992,14.63552 -13.2171,19.95917 -31.9703,16.49552 -13.4194,-2.47856 -14.3862,-2.53071 -33.4782,-1.80584 -9.164,0.34793 -14.6678,1.21424 -17.6004,2.77037 -5.5244,2.93126 -13.0384,2.8338 -19.733,-0.25592 z"
         id="path2334" />
      <path
         style="fill:#000000;fill-opacity:1;stroke:#c50604;stroke-width:10;stroke-linecap:round;stroke-linejoin:round;stroke-dasharray:none;stroke-opacity:1"
         d="m 1727.3334,214.66667 c -5.8667,-4.27988 -10.6701,-4.98279 -14.7108,-2.15266 -8.5313,5.9756 -23.8387,4.87091 -28.7864,-2.07745 -9.7043,-13.62837 -1.3123,-35.76989 13.5573,-35.76989 3.0711,0 6.3383,-1.12068 8.713,-2.98855 5.5788,-4.38829 21.3728,-5.10223 26.7596,-1.20961 2.0904,1.51053 7.2609,4.02002 11.4901,5.57664 13.5412,4.98394 18.6685,19.5186 11.7027,33.17302 -4.923,9.64958 -19.2435,12.36584 -28.7255,5.4485 z"
         id="path2332" />
      <path
         style="fill:#000000;fill-opacity:1;stroke:#c50604;stroke-width:10;stroke-linecap:round;stroke-linejoin:round;stroke-dasharray:none;stroke-opacity:1"
         d="m 3704.3012,217.32835 c -3.0876,-1.88252 -6.7173,-2.66168 -12.3995,-2.66168 -16.4916,0 -26.3225,-11.8715 -22.4772,-27.14264 3.3144,-13.1625 23.5767,-20.04674 32.5608,-11.06268 2.9108,2.91088 22.2274,2.20501 28.3572,-1.03626 16.5656,-8.75929 34.6742,5.99079 29.6008,24.11092 -2.5533,9.11966 -9.6585,14.03831 -21.7585,15.06268 -5.2349,0.44318 -11.5601,1.83978 -14.0561,3.10355 -6.0662,3.07137 -14.4355,2.91356 -19.8275,-0.37389 z"
         id="path2330" />
      <path
         style="fill:#000000;fill-opacity:1;stroke:#c50604;stroke-width:10;stroke-linecap:round;stroke-linejoin:round;stroke-dasharray:none;stroke-opacity:1"
         d="m 979.06753,213.89865 c -9.91629,-9.45233 -12.44392,-10.38578 -25.60709,-9.45685 -21.66906,1.52921 -32.21897,-5.41033 -32.09035,-21.10847 0.15781,-19.2637 28.50892,-27.04284 38.66544,-10.60924 5.97868,9.67371 12.09852,12.1755 22.94719,9.38082 7.37002,-1.89856 11.87325,-2.22546 20.91448,-1.51816 14.1964,1.11056 16.5492,0.26793 25.4086,-9.09955 20.4942,-21.66959 51.0627,-5.70377 38.5537,20.13643 -4.3367,8.95844 -9.5657,11.00596 -27.3846,10.72302 -16.4709,-0.26152 -16.9132,-0.10146 -28.6485,10.36984 -11.6629,10.40655 -22.66516,10.80359 -32.75887,1.18216 z"
         id="path2328" />
      <path
         style="fill:#000000;fill-opacity:1;stroke:#c50604;stroke-width:10;stroke-linecap:round;stroke-linejoin:round;stroke-dasharray:none;stroke-opacity:1"
         d="m 3125.36,218.99793 c -18.9511,-9.5214 -12.4634,-37.3076 9.2856,-39.76821 8.8581,-1.00219 15.0688,-4.79512 16.804,-10.26249 5.0172,-15.80744 25.9849,-18.90564 36.1533,-5.34203 7.6732,10.23524 13.1788,14.65595 19.4179,15.59155 25.988,3.89713 25.6536,39.31628 -0.3948,41.8192 -9.5484,0.91748 -21.2925,-6.07934 -21.2925,-12.68543 0,-2.17541 -8.6552,-9.34277 -12.3222,-10.20391 -5.9576,-1.3991 -12.0797,2.17882 -18.9048,11.04852 -9.3651,12.17044 -18.1031,15.15022 -28.7465,9.8028 z"
         id="path2326" />
      <path
         style="fill:#000000;fill-opacity:1;stroke:#c50604;stroke-width:10;stroke-linecap:round;stroke-linejoin:round;stroke-dasharray:none;stroke-opacity:1"
         d="m 444.51702,220.48488 c -3.64648,-0.80561 -8.74723,-6.27383 -12.8896,-13.81821 -4.02604,-7.33251 -9.6029,-11.34486 -18.38686,-13.22867 -14.9454,-3.20523 -21.24819,-9.87289 -21.23556,-22.46499 0.0148,-14.75628 18.45567,-24.38245 30.59956,-15.97301 4.36268,3.02107 5.14024,4.16464 11.10574,16.33333 3.94257,8.04224 7.24338,9.95454 17.22698,9.98035 12.18948,0.0315 14.7673,-2.01992 19.8573,-15.80248 6.72758,-18.21675 35.08309,-14.99871 38.64736,4.38605 1.98499,10.79562 -5.89769,21.7456 -17.3777,24.1397 -7.12025,1.48489 -15.57364,7.43188 -19.94494,14.03136 -7.74322,11.6901 -15.36719,15.11966 -27.60228,12.41657 z"
         id="path2324" />
      <path
         style="fill:#000000;fill-opacity:1;stroke:#c50604;stroke-width:10;stroke-linecap:round;stroke-linejoin:round;stroke-dasharray:none;stroke-opacity:1"
         d="m 2951.3334,221.90747 c -19.8089,-10.28134 -17.1364,-31.57606 5.0256,-40.04463 9.3788,-3.58385 14.1795,-9.219 14.2784,-16.76053 0.084,-6.4179 11.6286,-14.43564 20.7851,-14.43564 9.3508,0 20.5776,10.07769 20.5776,18.47156 0,3.41542 6.2857,8.80777 14.1577,12.14549 14.6718,6.22088 20.6763,18.22627 15.0268,30.04464 -7.0348,14.71619 -25.1478,16.50367 -36.1534,3.56776 -8.2748,-9.72629 -18.3659,-9.32392 -29.8915,1.19193 -8.0755,7.36792 -16.7413,9.48631 -23.8063,5.81942 z"
         id="path2322" />
      <path
         style="fill:#000000;fill-opacity:1;stroke:#c50604;stroke-width:10;stroke-linecap:round;stroke-linejoin:round;stroke-dasharray:none;stroke-opacity:1"
         d="m 1912.0001,222.48855 c -3.6648,-1.4759 -20.8791,-1.82543 -28.0943,-0.57044 -26.3909,4.59034 -31.9937,-31.62503 -6.6099,-42.72555 1.8539,-0.81075 6.1456,-3.59941 9.5371,-6.19703 13.9184,-10.66046 20.5761,-10.29788 33.3347,1.81544 3.3921,3.22063 8.7921,7.67823 12,9.90576 22.1042,15.3493 4.7698,47.81479 -20.1676,37.77182 z"
         id="path2320" />
      <path
         style="fill:#000000;fill-opacity:1;stroke:#c50604;stroke-width:10;stroke-linecap:round;stroke-linejoin:round;stroke-dasharray:none;stroke-opacity:1"
         d="m 265.33334,223.7776 c -6.71458,-1.8924 -12.81677,-8.31671 -14.59045,-15.36064 -2.09039,-8.30165 -5.93567,-11.64888 -15.55663,-13.54169 -21.19075,-4.16903 -24.82923,-29.098 -5.63754,-38.62562 11.27341,-5.59662 23.15817,0.57635 27.64982,14.36142 5.49339,16.85948 18.61776,17.30098 24.10531,0.8109 8.59953,-25.84164 41.6292,-21.01528 39.64251,5.79264 -0.64837,8.74892 -8.35764,17.45206 -15.45908,17.45206 -5.61324,0 -11.5707,5.55593 -14.08976,13.14013 -2.30587,6.94231 -8.53126,13.86704 -14.48431,16.11143 -4.35368,1.6414 -5.2976,1.62993 -11.57987,-0.14063 z"
         id="path2318" />
      <path
         style="fill:#000000;fill-opacity:1;stroke:#c50604;stroke-width:10;stroke-linecap:round;stroke-linejoin:round;stroke-dasharray:none;stroke-opacity:1"
         d="m 3892.0295,225.35005 c -3.0398,-0.74592 -6.5844,-3.3563 -10.2895,-7.57749 -6.0441,-6.88616 -12.2117,-13.1468 -17.9709,-18.24193 -1.9606,-1.7344 -4.2394,-5.6597 -5.0642,-8.72287 -5.4473,-20.22973 18.6272,-35.52865 34.512,-21.93179 5.697,4.8763 5.697,4.8763 13.9067,0.66615 25.5729,-13.11425 44.9109,14.66008 23.7593,34.12421 -3.3869,3.11667 -7.4618,5.66667 -9.0553,5.66667 -1.8751,0 -3.8303,1.58107 -5.5412,4.48092 -5.5465,9.4006 -14.8768,13.83791 -24.2569,11.53613 z"
         id="path2316" />
      <path
         style="fill:#000000;fill-opacity:1;stroke:#c50604;stroke-width:10;stroke-linecap:round;stroke-linejoin:round;stroke-dasharray:none;stroke-opacity:1"
         d="m 2058.405,226.99575 c -13.1404,-6.21086 -15.614,-23.45034 -5.0857,-35.44378 2.0697,-2.35773 4.9505,-8.40681 6.5302,-13.71178 4.5023,-15.12044 10.3971,-20.51156 22.4176,-20.5022 10.1667,0.008 19.0663,7.36392 19.0663,15.7593 0,4.09224 4.9755,14.22174 9.8532,20.05996 9.5487,11.4291 7.048,25.24699 -5.8532,32.34247 -2.3011,1.26552 -8.2884,1.83807 -19.3333,1.84873 -8.8,0.008 -17.5,0.45674 -19.3334,0.99608 -2.1841,0.64254 -5.0325,0.17751 -8.2617,-1.34878 z"
         id="path2314" />
      <path
         style="fill:#000000;fill-opacity:1;stroke:#c50604;stroke-width:10;stroke-linecap:round;stroke-linejoin:round;stroke-dasharray:none;stroke-opacity:1"
         d="m 2240.5389,226.98375 c -8.5151,-5.77791 -10.2471,-21.01026 -3.3895,-29.80968 5.4359,-6.97512 7.1907,-12.10632 6.406,-18.73175 -1.8468,-15.59332 8.7148,-26.47735 24.0191,-24.75233 9.7761,1.1019 16.4256,9.27076 16.4256,20.17874 0,7.32271 3.0211,19.39772 5.9848,23.92103 5.9327,9.0544 3.3164,25.15612 -4.9045,30.18503 -6.7718,4.14236 -38.0003,3.44753 -44.5415,-0.99104 z"
         id="path2312" />
      <path
         style="fill:#000000;fill-opacity:1;stroke:#c50604;stroke-width:10;stroke-linecap:round;stroke-linejoin:round;stroke-dasharray:none;stroke-opacity:1"
         d="m 82.206922,228.7724 c -8.747062,-3.20509 -15.540253,-12.92739 -15.540253,-22.24095 0,-3.59624 -6.112269,-10.01866 -11.661702,-12.25346 -16.615666,-6.69126 -18.599294,-27.71886 -3.495428,-37.05355 7.59259,-4.69248 12.829831,-3.99465 24.492996,3.26355 13.537104,8.42438 14.663947,8.31606 29.350135,-2.82132 17.43705,-13.22352 39.23995,5.68665 29.67727,25.73981 -1.6716,3.50537 -4.75463,6.26188 -11.2399,10.04948 -9.66825,5.64656 -14.43977,10.60623 -14.48599,15.05719 -0.13887,13.37518 -15.184653,24.62421 -27.097128,20.25925 z"
         id="path2310" />
      <path
         style="fill:#000000;fill-opacity:1;stroke:#c50604;stroke-width:10;stroke-linecap:round;stroke-linejoin:round;stroke-dasharray:none;stroke-opacity:1"
         d="m 2771.3189,230.14667 c -17.2615,-7.52382 -14.2412,-35.75332 4.3143,-40.32375 10.2264,-2.51888 13.6968,-8.27975 13.709,-22.75671 0.028,-33.06028 38.3866,-32.46236 41.2999,0.64378 1.174,13.3427 2.2872,15.15768 13.2089,21.53626 10.484,6.123 13.4824,10.78863 13.4824,20.97907 0,17.84757 -17.6593,25.50921 -34.0978,14.79361 -9.4208,-6.14094 -17.2778,-6.00277 -27.2355,0.47895 -8.5572,5.57012 -18.34,7.41273 -24.6812,4.64879 z"
         id="path2308" />
      <path
         style="fill:#000000;fill-opacity:1;stroke:#c50604;stroke-width:10;stroke-linecap:round;stroke-linejoin:round;stroke-dasharray:none;stroke-opacity:1"
         d="m 4069.5911,232.50863 c -7.018,-3.5788 -12.2576,-12.32243 -12.2576,-20.45475 0,-5.92019 -0.6903,-7.67221 -5.3402,-13.55479 -8.5412,-10.80536 -8.3746,-17.39921 0.6744,-26.71574 6.6918,-6.88951 11.4704,-8.55482 19.707,-6.8676 3.9588,0.81096 8.6781,0.91825 11.5025,0.26152 22.8306,-5.30844 36.9691,19.43192 20.802,36.4004 -3.8558,4.047 -4.6829,5.92358 -4.701,10.66666 -0.06,15.92739 -16.8874,27.14858 -30.3871,20.2643 z"
         id="path2306" />
      <path
         style="fill:#000000;fill-opacity:1;stroke:#c50604;stroke-width:10;stroke-linecap:round;stroke-linejoin:round;stroke-dasharray:none;stroke-opacity:1"
         d="m 2599.1933,232.04257 c -15.5077,-6.90116 -15.4273,-24.1609 0.184,-39.46778 8.6836,-8.51435 8.6836,-8.51435 8.4601,-21.81728 -0.2474,-14.73235 0.6982,-17.32531 8.4686,-23.22311 15.6198,-11.85545 37.3186,3.83328 31.618,22.86048 -2.16,7.20941 0.189,15.95345 5.684,21.15776 8.9925,8.51704 12.0762,14.69581 11.476,22.99441 -1.1464,15.84879 -11.7042,22.24399 -29.7131,17.99838 -9.3567,-2.20586 -10.4101,-2.21236 -17.9683,-0.11094 -9.7949,2.7232 -11.2812,2.69122 -18.2093,-0.39186 z"
         id="path2304" />
      <path
         style="fill:#000000;fill-opacity:1;stroke:#c50604;stroke-width:10;stroke-linecap:round;stroke-linejoin:round;stroke-dasharray:none;stroke-opacity:1"
         d="m 2422.0001,232.69207 c -15.5787,-5.5972 -17.9797,-22.8904 -5.1035,-36.7562 6.9431,-7.4765 8.3994,-11.1561 8.2883,-20.9417 -0.1671,-14.73137 5.8876,-21.88736 19.2383,-22.73746 13.3697,-0.85132 20.7106,6.97493 21.3781,22.7914 0.4056,9.60878 1.8071,12.68708 9.6144,21.117 10.4092,11.23918 10.5599,23.90312 0.3863,32.46364 -4.6168,3.8848 -4.5866,3.88016 -25.8019,3.97009 -8.8,0.0373 -17.5,0.50468 -19.3333,1.03863 -1.9819,0.57717 -5.4958,0.19385 -8.6667,-0.9454 z"
         id="path2302" />
      <path
         style="fill:#000000;fill-opacity:1;stroke:#c50604;stroke-width:10;stroke-linecap:round;stroke-linejoin:round;stroke-dasharray:none;stroke-opacity:1"
         d="m 4249.8675,235.50316 c -8.4341,-3.82116 -13.072,-16.44352 -9.3313,-25.39611 3.1273,-7.48469 2.6584,-10.72588 -2.536,-17.53097 -8.5478,-11.19819 -5.5296,-25.8634 6.5397,-31.77608 22.5991,-11.07115 49.9527,8.09985 38.8096,27.2 -5.9957,10.27716 -6.4061,12.19936 -4.6228,21.65068 3.8584,20.44836 -11.1372,33.8816 -28.8592,25.85248 z"
         id="path2300" />
      <path
         style="fill:#000000;fill-opacity:1;stroke:#c50604;stroke-width:10;stroke-linecap:round;stroke-linejoin:round;stroke-dasharray:none;stroke-opacity:1"
         d="m 4430.1583,237.29327 c -7.5433,-6.62303 -9.3771,-14.22147 -5.9511,-24.65784 3.8748,-11.80358 2.8294,-15.9228 -6.7928,-26.76236 -11.4,-12.84251 -11.6997,-21.68244 -1.0684,-31.51615 6.7024,-6.19955 12.6458,-7.51724 19.6534,-4.35731 3.4672,1.56354 6.6142,2.03996 9.5818,1.45062 14.7874,-2.9367 19.0926,-2.61463 24.126,1.8048 11.2855,9.90869 9.2642,29.13636 -3.7978,36.12689 -6.9391,3.71372 -8.6088,10.68565 -5.2282,21.82999 2.5244,8.3213 2.5203,14.55336 -0.013,19.45205 -5.7651,11.14816 -21.4755,14.56179 -30.51,6.62931 z"
         id="path2200" />
    </g>
  </g>
</svg>
